<svg width="54" height="78" viewBox="0 0 54 78" fill="none" xmlns="http://www.w3.org/2000/svg">
<circle cx="27" cy="26" r="26" fill="#FFF6E3"/>
<g clip-path="url(#clip0_100_3938)">
<path d="M36.6484 16.6562H32.7271L33.101 14.5234H34.5156C34.9363 14.5234 35.2773 14.1824 35.2773 13.7617C35.2773 13.341 34.9363 13 34.5156 13H32.4613C32.0913 13 31.7749 13.2658 31.711 13.6302L31.1805 16.6562H17.3516C16.9309 16.6562 16.5898 16.9973 16.5898 17.418V21.0742C16.5898 21.4949 16.9309 21.8359 17.3516 21.8359H18.6464C18.8516 23.5199 18.9961 24.7043 19.1593 26.0421C22.4429 26.7925 22.9981 28.8438 27 28.8438C30.9943 28.8438 31.5649 26.7917 34.8407 26.0415C34.9493 25.1512 35.2449 22.7269 35.3536 21.8359H36.6484C37.0691 21.8359 37.4102 21.4949 37.4102 21.0742V17.418C37.4102 16.9973 37.0691 16.6562 36.6484 16.6562Z" fill="#F5BA3C"/>
<path d="M26.9999 30.3673C22.8461 30.3673 21.7794 28.4402 19.3582 27.6725L20.2866 35.2837C20.2866 35.2837 20.2866 35.2838 20.2866 35.2838L20.6578 38.3306C20.7045 38.7127 21.029 39.0001 21.414 39.0001H32.5859C32.9709 39.0001 33.2954 38.7127 33.342 38.3306L33.4666 37.3085C33.4666 37.3085 34.6418 27.6715 34.6418 27.6714C32.2241 28.4387 31.1536 30.3673 26.9999 30.3673ZM31.9114 37.4766H22.0885L21.9029 35.9532H32.0971C32.0282 36.5181 31.9743 36.9598 31.9114 37.4766Z" fill="#F5BA3C"/>
</g>
<path d="M4.81473 70.43C5.18806 70.4967 5.50473 70.6933 5.76473 71.02C6.02473 71.3467 6.15473 71.7167 6.15473 72.13C6.15473 72.4833 6.06139 72.8033 5.87473 73.09C5.69473 73.37 5.43139 73.5933 5.08473 73.76C4.73806 73.92 4.33473 74 3.87473 74H1.09473V67.05H3.74473C4.21806 67.05 4.62473 67.13 4.96473 67.29C5.30473 67.45 5.56139 67.6667 5.73473 67.94C5.90806 68.2067 5.99473 68.5067 5.99473 68.84C5.99473 69.24 5.88806 69.5733 5.67473 69.84C5.46139 70.1067 5.17473 70.3033 4.81473 70.43ZM2.23473 69.97H3.64473C4.01806 69.97 4.30806 69.8867 4.51473 69.72C4.72806 69.5467 4.83473 69.3 4.83473 68.98C4.83473 68.6667 4.72806 68.4233 4.51473 68.25C4.30806 68.07 4.01806 67.98 3.64473 67.98H2.23473V69.97ZM3.77473 73.07C4.16139 73.07 4.46473 72.9767 4.68473 72.79C4.90473 72.6033 5.01473 72.3433 5.01473 72.01C5.01473 71.67 4.89806 71.4 4.66473 71.2C4.43139 71 4.12139 70.9 3.73473 70.9H2.23473V73.07H3.77473ZM12.4436 71.11C12.4436 71.3167 12.4302 71.5033 12.4036 71.67H8.19355C8.22689 72.11 8.39022 72.4633 8.68355 72.73C8.97689 72.9967 9.33689 73.13 9.76355 73.13C10.3769 73.13 10.8102 72.8733 11.0636 72.36H12.2936C12.1269 72.8667 11.8236 73.2833 11.3836 73.61C10.9502 73.93 10.4102 74.09 9.76355 74.09C9.23689 74.09 8.76355 73.9733 8.34355 73.74C7.93022 73.5 7.60355 73.1667 7.36355 72.74C7.13022 72.3067 7.01355 71.8067 7.01355 71.24C7.01355 70.6733 7.12689 70.1767 7.35355 69.75C7.58689 69.3167 7.91022 68.9833 8.32355 68.75C8.74355 68.5167 9.22355 68.4 9.76355 68.4C10.2836 68.4 10.7469 68.5133 11.1536 68.74C11.5602 68.9667 11.8769 69.2867 12.1036 69.7C12.3302 70.1067 12.4436 70.5767 12.4436 71.11ZM11.2536 70.75C11.2469 70.33 11.0969 69.9933 10.8036 69.74C10.5102 69.4867 10.1469 69.36 9.71355 69.36C9.32022 69.36 8.98355 69.4867 8.70355 69.74C8.42355 69.9867 8.25689 70.3233 8.20355 70.75H11.2536ZM15.6954 72.98L17.2554 68.49H18.4654L16.3654 74H15.0054L12.9154 68.49H14.1354L15.6954 72.98ZM24.3771 71.11C24.3771 71.3167 24.3638 71.5033 24.3371 71.67H20.1271C20.1605 72.11 20.3238 72.4633 20.6171 72.73C20.9105 72.9967 21.2705 73.13 21.6971 73.13C22.3105 73.13 22.7438 72.8733 22.9971 72.36H24.2271C24.0605 72.8667 23.7571 73.2833 23.3171 73.61C22.8838 73.93 22.3438 74.09 21.6971 74.09C21.1705 74.09 20.6971 73.9733 20.2771 73.74C19.8638 73.5 19.5371 73.1667 19.2971 72.74C19.0638 72.3067 18.9471 71.8067 18.9471 71.24C18.9471 70.6733 19.0605 70.1767 19.2871 69.75C19.5205 69.3167 19.8438 68.9833 20.2571 68.75C20.6771 68.5167 21.1571 68.4 21.6971 68.4C22.2171 68.4 22.6805 68.5133 23.0871 68.74C23.4938 68.9667 23.8105 69.2867 24.0371 69.7C24.2638 70.1067 24.3771 70.5767 24.3771 71.11ZM23.1871 70.75C23.1805 70.33 23.0305 69.9933 22.7371 69.74C22.4438 69.4867 22.0805 69.36 21.6471 69.36C21.2538 69.36 20.9171 69.4867 20.6371 69.74C20.3571 69.9867 20.1905 70.3233 20.1371 70.75H23.1871ZM26.639 69.29C26.8057 69.01 27.0257 68.7933 27.299 68.64C27.579 68.48 27.909 68.4 28.289 68.4V69.58H27.999C27.5524 69.58 27.2124 69.6933 26.979 69.92C26.7524 70.1467 26.639 70.54 26.639 71.1V74H25.499V68.49H26.639V69.29ZM28.9569 71.22C28.9569 70.6667 29.0702 70.1767 29.2969 69.75C29.5302 69.3233 29.8436 68.9933 30.2369 68.76C30.6369 68.52 31.0769 68.4 31.5569 68.4C31.9902 68.4 32.3669 68.4867 32.6869 68.66C33.0136 68.8267 33.2736 69.0367 33.4669 69.29V68.49H34.6169V74H33.4669V73.18C33.2736 73.44 33.0102 73.6567 32.6769 73.83C32.3436 74.0033 31.9636 74.09 31.5369 74.09C31.0636 74.09 30.6302 73.97 30.2369 73.73C29.8436 73.4833 29.5302 73.1433 29.2969 72.71C29.0702 72.27 28.9569 71.7733 28.9569 71.22ZM33.4669 71.24C33.4669 70.86 33.3869 70.53 33.2269 70.25C33.0736 69.97 32.8702 69.7567 32.6169 69.61C32.3636 69.4633 32.0902 69.39 31.7969 69.39C31.5036 69.39 31.2302 69.4633 30.9769 69.61C30.7236 69.75 30.5169 69.96 30.3569 70.24C30.2036 70.5133 30.1269 70.84 30.1269 71.22C30.1269 71.6 30.2036 71.9333 30.3569 72.22C30.5169 72.5067 30.7236 72.7267 30.9769 72.88C31.2369 73.0267 31.5102 73.1 31.7969 73.1C32.0902 73.1 32.3636 73.0267 32.6169 72.88C32.8702 72.7333 33.0736 72.52 33.2269 72.24C33.3869 71.9533 33.4669 71.62 33.4669 71.24ZM38.3343 68.4C38.7609 68.4 39.1376 68.4867 39.4643 68.66C39.7976 68.8267 40.0576 69.0367 40.2443 69.29V68.49H41.3943V74.09C41.3943 74.5967 41.2876 75.0467 41.0743 75.44C40.8609 75.84 40.5509 76.1533 40.1443 76.38C39.7443 76.6067 39.2643 76.72 38.7043 76.72C37.9576 76.72 37.3376 76.5433 36.8443 76.19C36.3509 75.8433 36.0709 75.37 36.0043 74.77H37.1343C37.2209 75.0567 37.4043 75.2867 37.6843 75.46C37.9709 75.64 38.3109 75.73 38.7043 75.73C39.1643 75.73 39.5343 75.59 39.8143 75.31C40.1009 75.03 40.2443 74.6233 40.2443 74.09V73.17C40.0509 73.43 39.7876 73.65 39.4543 73.83C39.1276 74.0033 38.7543 74.09 38.3343 74.09C37.8543 74.09 37.4143 73.97 37.0143 73.73C36.6209 73.4833 36.3076 73.1433 36.0743 72.71C35.8476 72.27 35.7343 71.7733 35.7343 71.22C35.7343 70.6667 35.8476 70.1767 36.0743 69.75C36.3076 69.3233 36.6209 68.9933 37.0143 68.76C37.4143 68.52 37.8543 68.4 38.3343 68.4ZM40.2443 71.24C40.2443 70.86 40.1643 70.53 40.0043 70.25C39.8509 69.97 39.6476 69.7567 39.3943 69.61C39.1409 69.4633 38.8676 69.39 38.5743 69.39C38.2809 69.39 38.0076 69.4633 37.7543 69.61C37.5009 69.75 37.2943 69.96 37.1343 70.24C36.9809 70.5133 36.9043 70.84 36.9043 71.22C36.9043 71.6 36.9809 71.9333 37.1343 72.22C37.2943 72.5067 37.5009 72.7267 37.7543 72.88C38.0143 73.0267 38.2876 73.1 38.5743 73.1C38.8676 73.1 39.1409 73.0267 39.3943 72.88C39.6476 72.7333 39.8509 72.52 40.0043 72.24C40.1643 71.9533 40.2443 71.62 40.2443 71.24ZM47.9416 71.11C47.9416 71.3167 47.9283 71.5033 47.9016 71.67H43.6916C43.7249 72.11 43.8883 72.4633 44.1816 72.73C44.4749 72.9967 44.8349 73.13 45.2616 73.13C45.8749 73.13 46.3083 72.8733 46.5616 72.36H47.7916C47.6249 72.8667 47.3216 73.2833 46.8816 73.61C46.4483 73.93 45.9083 74.09 45.2616 74.09C44.7349 74.09 44.2616 73.9733 43.8416 73.74C43.4283 73.5 43.1016 73.1667 42.8616 72.74C42.6283 72.3067 42.5116 71.8067 42.5116 71.24C42.5116 70.6733 42.6249 70.1767 42.8516 69.75C43.0849 69.3167 43.4083 68.9833 43.8216 68.75C44.2416 68.5167 44.7216 68.4 45.2616 68.4C45.7816 68.4 46.2449 68.5133 46.6516 68.74C47.0583 68.9667 47.3749 69.2867 47.6016 69.7C47.8283 70.1067 47.9416 70.5767 47.9416 71.11ZM46.7516 70.75C46.7449 70.33 46.5949 69.9933 46.3016 69.74C46.0083 69.4867 45.6449 69.36 45.2116 69.36C44.8183 69.36 44.4816 69.4867 44.2016 69.74C43.9216 69.9867 43.7549 70.3233 43.7016 70.75H46.7516ZM51.0635 74.09C50.6301 74.09 50.2401 74.0133 49.8935 73.86C49.5535 73.7 49.2835 73.4867 49.0835 73.22C48.8835 72.9467 48.7768 72.6433 48.7635 72.31H49.9435C49.9635 72.5433 50.0735 72.74 50.2735 72.9C50.4801 73.0533 50.7368 73.13 51.0435 73.13C51.3635 73.13 51.6101 73.07 51.7835 72.95C51.9635 72.8233 52.0535 72.6633 52.0535 72.47C52.0535 72.2633 51.9535 72.11 51.7535 72.01C51.5601 71.91 51.2501 71.8 50.8235 71.68C50.4101 71.5667 50.0735 71.4567 49.8135 71.35C49.5535 71.2433 49.3268 71.08 49.1335 70.86C48.9468 70.64 48.8535 70.35 48.8535 69.99C48.8535 69.6967 48.9401 69.43 49.1135 69.19C49.2868 68.9433 49.5335 68.75 49.8535 68.61C50.1801 68.47 50.5535 68.4 50.9735 68.4C51.6001 68.4 52.1035 68.56 52.4835 68.88C52.8701 69.1933 53.0768 69.6233 53.1035 70.17H51.9635C51.9435 69.9233 51.8435 69.7267 51.6635 69.58C51.4835 69.4333 51.2401 69.36 50.9335 69.36C50.6335 69.36 50.4035 69.4167 50.2435 69.53C50.0835 69.6433 50.0035 69.7933 50.0035 69.98C50.0035 70.1267 50.0568 70.25 50.1635 70.35C50.2701 70.45 50.4001 70.53 50.5535 70.59C50.7068 70.6433 50.9335 70.7133 51.2335 70.8C51.6335 70.9067 51.9601 71.0167 52.2135 71.13C52.4735 71.2367 52.6968 71.3967 52.8835 71.61C53.0701 71.8233 53.1668 72.1067 53.1735 72.46C53.1735 72.7733 53.0868 73.0533 52.9135 73.3C52.7401 73.5467 52.4935 73.74 52.1735 73.88C51.8601 74.02 51.4901 74.09 51.0635 74.09Z" fill="#868889"/>
<defs>
<clipPath id="clip0_100_3938">
<rect width="26" height="26" fill="white" transform="translate(14 13)"/>
</clipPath>
</defs>
</svg>
