<svg width="52" height="78" viewBox="0 0 52 78" fill="none" xmlns="http://www.w3.org/2000/svg">
<circle cx="26" cy="26" r="26" fill="#F3EFFA"/>
<path d="M34.7526 22.0407C32.4919 22.9827 30.1364 23.5782 27.7227 23.8205L28.8605 21.8497L32.7407 22.0826C33.1717 22.1084 33.5421 21.78 33.5679 21.3491C33.5938 20.9181 33.2654 20.5477 32.8344 20.5218L29.7346 20.3358L30.4241 19.1416L34.3043 19.3745C34.7353 19.4003 35.1057 19.0719 35.1315 18.6409C35.1574 18.21 34.829 17.8396 34.398 17.8137L31.2982 17.6276L32.1642 16.1277C33.0277 14.632 34.9402 14.1196 36.4359 14.9831C37.9316 15.8466 38.4441 17.7591 37.5805 19.2549L36.3584 21.3716L34.7526 22.0407Z" fill="#AE80FF"/>
<path d="M25.2308 23.945C24.1934 23.945 23.1643 23.8809 22.1461 23.7537C22.1187 23.5608 22.1037 23.3637 22.1037 23.1632C22.1037 20.8604 23.9704 18.9937 26.2732 18.9937C27.0401 18.9937 27.758 19.2016 28.3754 19.5628L25.8497 23.9374C25.6437 23.9424 25.4375 23.945 25.2308 23.945Z" fill="#AE80FF"/>
<path d="M21.0919 20.7103C20.5142 19.1826 20.4084 18.033 20.4069 18.0154C20.3703 17.5852 19.9917 17.2672 19.5617 17.3026C19.1315 17.3392 18.8124 17.7176 18.849 18.1478C18.8585 18.2601 19.0756 20.6197 20.5412 23.2166C20.5421 23.3119 20.546 23.4066 20.5515 23.5008C18.8997 23.183 17.2813 22.6958 15.709 22.0406L14.768 21.6486C14.8916 21.3455 15.064 21.063 15.2801 20.8138C14.2188 20.3432 13.504 19.2865 13.504 18.0816C13.504 16.4291 14.8483 15.0848 16.5008 15.0848C16.7626 15.0848 17.0218 15.1199 17.2756 15.1895C17.6299 13.9128 18.791 13 20.1491 13C21.4719 13 22.617 13.8623 23.0029 15.0984C23.095 15.0893 23.1859 15.0848 23.2763 15.0848C24.7053 15.0848 25.9032 16.0905 26.2012 17.4311C23.9477 17.459 22.0032 18.7934 21.0919 20.7103Z" fill="#AE80FF"/>
<path d="M15.1077 23.484C18.3319 24.8274 21.7379 25.5086 25.2308 25.5086C28.7238 25.5086 32.1298 24.8274 35.354 23.484C35.9024 23.2554 36.4953 23.6981 36.432 24.2889C36.1715 26.7197 35.2288 35.613 35.0179 37.5888C34.8903 38.7838 33.8877 39.685 32.6858 39.685H17.7759C16.5739 39.685 15.5714 38.7838 15.4438 37.5888C15.2329 35.613 14.2901 26.7197 14.0297 24.2888C13.9664 23.6981 14.5592 23.2554 15.1077 23.484ZM19.2371 34.4731C19.2371 34.9048 19.5872 35.2549 20.0189 35.2549H30.4428C30.8745 35.2549 31.2245 34.9048 31.2245 34.4731V30.3036C31.2245 29.8718 30.8745 29.5218 30.4428 29.5218H20.0189C19.5872 29.5218 19.2371 29.8718 19.2371 30.3036V34.4731Z" fill="#AE80FF"/>
<path d="M29.6609 31.0853H20.8006V33.6913H29.6609V31.0853Z" fill="#AE80FF"/>
<path d="M1.45484 70.51C1.45484 69.83 1.61151 69.22 1.92484 68.68C2.24484 68.14 2.67484 67.72 3.21484 67.42C3.76151 67.1133 4.35817 66.96 5.00484 66.96C5.74484 66.96 6.40151 67.1433 6.97484 67.51C7.55484 67.87 7.97484 68.3833 8.23484 69.05H6.86484C6.68484 68.6833 6.43484 68.41 6.11484 68.23C5.79484 68.05 5.42484 67.96 5.00484 67.96C4.54484 67.96 4.13484 68.0633 3.77484 68.27C3.41484 68.4767 3.13151 68.7733 2.92484 69.16C2.72484 69.5467 2.62484 69.9967 2.62484 70.51C2.62484 71.0233 2.72484 71.4733 2.92484 71.86C3.13151 72.2467 3.41484 72.5467 3.77484 72.76C4.13484 72.9667 4.54484 73.07 5.00484 73.07C5.42484 73.07 5.79484 72.98 6.11484 72.8C6.43484 72.62 6.68484 72.3467 6.86484 71.98H8.23484C7.97484 72.6467 7.55484 73.16 6.97484 73.52C6.40151 73.88 5.74484 74.06 5.00484 74.06C4.35151 74.06 3.75484 73.91 3.21484 73.61C2.67484 73.3033 2.24484 72.88 1.92484 72.34C1.61151 71.8 1.45484 71.19 1.45484 70.51ZM14.5592 68.49V74H13.4192V73.35C13.2392 73.5767 13.0025 73.7567 12.7092 73.89C12.4225 74.0167 12.1159 74.08 11.7892 74.08C11.3559 74.08 10.9659 73.99 10.6192 73.81C10.2792 73.63 10.0092 73.3633 9.80921 73.01C9.61588 72.6567 9.51921 72.23 9.51921 71.73V68.49H10.6492V71.56C10.6492 72.0533 10.7725 72.4333 11.0192 72.7C11.2659 72.96 11.6025 73.09 12.0292 73.09C12.4559 73.09 12.7925 72.96 13.0392 72.7C13.2925 72.4333 13.4192 72.0533 13.4192 71.56V68.49H14.5592ZM17.2034 69.3C17.3967 69.0467 17.66 68.8333 17.9934 68.66C18.3267 68.4867 18.7034 68.4 19.1234 68.4C19.6034 68.4 20.04 68.52 20.4334 68.76C20.8334 68.9933 21.1467 69.3233 21.3734 69.75C21.6 70.1767 21.7134 70.6667 21.7134 71.22C21.7134 71.7733 21.6 72.27 21.3734 72.71C21.1467 73.1433 20.8334 73.4833 20.4334 73.73C20.04 73.97 19.6034 74.09 19.1234 74.09C18.7034 74.09 18.33 74.0067 18.0034 73.84C17.6767 73.6667 17.41 73.4533 17.2034 73.2V76.62H16.0634V68.49H17.2034V69.3ZM20.5534 71.22C20.5534 70.84 20.4734 70.5133 20.3134 70.24C20.16 69.96 19.9534 69.75 19.6934 69.61C19.44 69.4633 19.1667 69.39 18.8734 69.39C18.5867 69.39 18.3134 69.4633 18.0534 69.61C17.8 69.7567 17.5934 69.97 17.4334 70.25C17.28 70.53 17.2034 70.86 17.2034 71.24C17.2034 71.62 17.28 71.9533 17.4334 72.24C17.5934 72.52 17.8 72.7333 18.0534 72.88C18.3134 73.0267 18.5867 73.1 18.8734 73.1C19.1667 73.1 19.44 73.0267 19.6934 72.88C19.9534 72.7267 20.16 72.5067 20.3134 72.22C20.4734 71.9333 20.5534 71.6 20.5534 71.22ZM22.4607 71.24C22.4607 70.6733 22.574 70.1767 22.8007 69.75C23.034 69.3167 23.354 68.9833 23.7607 68.75C24.1674 68.5167 24.634 68.4 25.1607 68.4C25.8274 68.4 26.3774 68.56 26.8107 68.88C27.2507 69.1933 27.5474 69.6433 27.7007 70.23H26.4707C26.3707 69.9567 26.2107 69.7433 25.9907 69.59C25.7707 69.4367 25.494 69.36 25.1607 69.36C24.694 69.36 24.3207 69.5267 24.0407 69.86C23.7674 70.1867 23.6307 70.6467 23.6307 71.24C23.6307 71.8333 23.7674 72.2967 24.0407 72.63C24.3207 72.9633 24.694 73.13 25.1607 73.13C25.8207 73.13 26.2574 72.84 26.4707 72.26H27.7007C27.5407 72.82 27.2407 73.2667 26.8007 73.6C26.3607 73.9267 25.814 74.09 25.1607 74.09C24.634 74.09 24.1674 73.9733 23.7607 73.74C23.354 73.5 23.034 73.1667 22.8007 72.74C22.574 72.3067 22.4607 71.8067 22.4607 71.24ZM28.4568 71.22C28.4568 70.6667 28.5701 70.1767 28.7968 69.75C29.0301 69.3233 29.3435 68.9933 29.7368 68.76C30.1368 68.52 30.5768 68.4 31.0568 68.4C31.4901 68.4 31.8668 68.4867 32.1868 68.66C32.5135 68.8267 32.7735 69.0367 32.9668 69.29V68.49H34.1168V74H32.9668V73.18C32.7735 73.44 32.5101 73.6567 32.1768 73.83C31.8435 74.0033 31.4635 74.09 31.0368 74.09C30.5635 74.09 30.1301 73.97 29.7368 73.73C29.3435 73.4833 29.0301 73.1433 28.7968 72.71C28.5701 72.27 28.4568 71.7733 28.4568 71.22ZM32.9668 71.24C32.9668 70.86 32.8868 70.53 32.7268 70.25C32.5735 69.97 32.3701 69.7567 32.1168 69.61C31.8635 69.4633 31.5901 69.39 31.2968 69.39C31.0035 69.39 30.7301 69.4633 30.4768 69.61C30.2235 69.75 30.0168 69.96 29.8568 70.24C29.7035 70.5133 29.6268 70.84 29.6268 71.22C29.6268 71.6 29.7035 71.9333 29.8568 72.22C30.0168 72.5067 30.2235 72.7267 30.4768 72.88C30.7368 73.0267 31.0101 73.1 31.2968 73.1C31.5901 73.1 31.8635 73.0267 32.1168 72.88C32.3701 72.7333 32.5735 72.52 32.7268 72.24C32.8868 71.9533 32.9668 71.62 32.9668 71.24ZM37.7941 71.25L40.3341 74H38.7941L36.7541 71.63V74H35.6141V66.6H36.7541V70.9L38.7541 68.49H40.3341L37.7941 71.25ZM46.2012 71.11C46.2012 71.3167 46.1879 71.5033 46.1612 71.67H41.9512C41.9846 72.11 42.1479 72.4633 42.4412 72.73C42.7346 72.9967 43.0946 73.13 43.5212 73.13C44.1346 73.13 44.5679 72.8733 44.8212 72.36H46.0512C45.8846 72.8667 45.5812 73.2833 45.1412 73.61C44.7079 73.93 44.1679 74.09 43.5212 74.09C42.9946 74.09 42.5212 73.9733 42.1012 73.74C41.6879 73.5 41.3612 73.1667 41.1212 72.74C40.8879 72.3067 40.7712 71.8067 40.7712 71.24C40.7712 70.6733 40.8846 70.1767 41.1112 69.75C41.3446 69.3167 41.6679 68.9833 42.0812 68.75C42.5012 68.5167 42.9812 68.4 43.5212 68.4C44.0412 68.4 44.5046 68.5133 44.9112 68.74C45.3179 68.9667 45.6346 69.2867 45.8612 69.7C46.0879 70.1067 46.2012 70.5767 46.2012 71.11ZM45.0112 70.75C45.0046 70.33 44.8546 69.9933 44.5612 69.74C44.2679 69.4867 43.9046 69.36 43.4712 69.36C43.0779 69.36 42.7412 69.4867 42.4612 69.74C42.1812 69.9867 42.0146 70.3233 41.9612 70.75H45.0112ZM49.3231 74.09C48.8898 74.09 48.4998 74.0133 48.1531 73.86C47.8131 73.7 47.5431 73.4867 47.3431 73.22C47.1431 72.9467 47.0365 72.6433 47.0231 72.31H48.2031C48.2231 72.5433 48.3331 72.74 48.5331 72.9C48.7398 73.0533 48.9965 73.13 49.3031 73.13C49.6231 73.13 49.8698 73.07 50.0431 72.95C50.2231 72.8233 50.3131 72.6633 50.3131 72.47C50.3131 72.2633 50.2131 72.11 50.0131 72.01C49.8198 71.91 49.5098 71.8 49.0831 71.68C48.6698 71.5667 48.3331 71.4567 48.0731 71.35C47.8131 71.2433 47.5865 71.08 47.3931 70.86C47.2065 70.64 47.1131 70.35 47.1131 69.99C47.1131 69.6967 47.1998 69.43 47.3731 69.19C47.5465 68.9433 47.7931 68.75 48.1131 68.61C48.4398 68.47 48.8131 68.4 49.2331 68.4C49.8598 68.4 50.3631 68.56 50.7431 68.88C51.1298 69.1933 51.3365 69.6233 51.3631 70.17H50.2231C50.2031 69.9233 50.1031 69.7267 49.9231 69.58C49.7431 69.4333 49.4998 69.36 49.1931 69.36C48.8931 69.36 48.6631 69.4167 48.5031 69.53C48.3431 69.6433 48.2631 69.7933 48.2631 69.98C48.2631 70.1267 48.3165 70.25 48.4231 70.35C48.5298 70.45 48.6598 70.53 48.8131 70.59C48.9665 70.6433 49.1931 70.7133 49.4931 70.8C49.8931 70.9067 50.2198 71.0167 50.4731 71.13C50.7331 71.2367 50.9565 71.3967 51.1431 71.61C51.3298 71.8233 51.4265 72.1067 51.4331 72.46C51.4331 72.7733 51.3465 73.0533 51.1731 73.3C50.9998 73.5467 50.7531 73.74 50.4331 73.88C50.1198 74.02 49.7498 74.09 49.3231 74.09Z" fill="#868889"/>
</svg>
