<svg width="52" height="78" viewBox="0 0 52 78" fill="none" xmlns="http://www.w3.org/2000/svg">
<circle cx="26" cy="26" r="26" fill="#FFE9E5"/>
<path d="M27.0714 20.2519C27.5355 19.4769 28.2698 18.3678 29.1974 17.3035H29.1984C29.984 16.4003 31.5224 15.241 31.5224 15.241C31.7536 15.0662 31.7288 14.8229 31.4659 14.7004L29.6065 13.8314C29.3436 13.7084 28.9862 13.7982 28.812 14.0299C28.812 14.0299 27.4368 16.0027 25.8181 20.2023C20.8134 17.9386 16.0563 21.1093 16.0563 26.6228C16.0563 32.3818 20.4872 41.1299 26.4791 38.4893C32.7899 41.2202 36.9051 32.3824 36.9051 26.6228C36.9051 21.0617 32.6289 17.8013 27.0714 20.2519Z" fill="#F8644A"/>
<path d="M25.9506 18.3868C26.2399 18.3625 26.4954 18.1065 26.5186 17.8177C26.5186 17.8177 26.7044 15.5656 25.1349 13.9945C23.5606 12.4229 21.3127 12.6103 21.3127 12.6103C21.0234 12.6346 20.7679 12.8907 20.7442 13.1794C20.7442 13.1794 20.5552 15.4326 22.1268 17.0042C23.6974 18.5742 25.9506 18.3868 25.9506 18.3868Z" fill="#F8644A"/>
<path d="M16.272 72.58H13.362L12.862 74H11.672L14.162 67.04H15.482L17.972 74H16.772L16.272 72.58ZM15.952 71.65L14.822 68.42L13.682 71.65H15.952ZM20.1947 69.3C20.388 69.0467 20.6514 68.8333 20.9847 68.66C21.318 68.4867 21.6947 68.4 22.1147 68.4C22.5947 68.4 23.0314 68.52 23.4247 68.76C23.8247 68.9933 24.138 69.3233 24.3647 69.75C24.5914 70.1767 24.7047 70.6667 24.7047 71.22C24.7047 71.7733 24.5914 72.27 24.3647 72.71C24.138 73.1433 23.8247 73.4833 23.4247 73.73C23.0314 73.97 22.5947 74.09 22.1147 74.09C21.6947 74.09 21.3214 74.0067 20.9947 73.84C20.668 73.6667 20.4014 73.4533 20.1947 73.2V76.62H19.0547V68.49H20.1947V69.3ZM23.5447 71.22C23.5447 70.84 23.4647 70.5133 23.3047 70.24C23.1514 69.96 22.9447 69.75 22.6847 69.61C22.4314 69.4633 22.158 69.39 21.8647 69.39C21.578 69.39 21.3047 69.4633 21.0447 69.61C20.7914 69.7567 20.5847 69.97 20.4247 70.25C20.2714 70.53 20.1947 70.86 20.1947 71.24C20.1947 71.62 20.2714 71.9533 20.4247 72.24C20.5847 72.52 20.7914 72.7333 21.0447 72.88C21.3047 73.0267 21.578 73.1 21.8647 73.1C22.158 73.1 22.4314 73.0267 22.6847 72.88C22.9447 72.7267 23.1514 72.5067 23.3047 72.22C23.4647 71.9333 23.5447 71.6 23.5447 71.22ZM26.972 69.3C27.1654 69.0467 27.4287 68.8333 27.762 68.66C28.0954 68.4867 28.472 68.4 28.892 68.4C29.372 68.4 29.8087 68.52 30.202 68.76C30.602 68.9933 30.9154 69.3233 31.142 69.75C31.3687 70.1767 31.482 70.6667 31.482 71.22C31.482 71.7733 31.3687 72.27 31.142 72.71C30.9154 73.1433 30.602 73.4833 30.202 73.73C29.8087 73.97 29.372 74.09 28.892 74.09C28.472 74.09 28.0987 74.0067 27.772 73.84C27.4454 73.6667 27.1787 73.4533 26.972 73.2V76.62H25.832V68.49H26.972V69.3ZM30.322 71.22C30.322 70.84 30.242 70.5133 30.082 70.24C29.9287 69.96 29.722 69.75 29.462 69.61C29.2087 69.4633 28.9354 69.39 28.642 69.39C28.3554 69.39 28.082 69.4633 27.822 69.61C27.5687 69.7567 27.362 69.97 27.202 70.25C27.0487 70.53 26.972 70.86 26.972 71.24C26.972 71.62 27.0487 71.9533 27.202 72.24C27.362 72.52 27.5687 72.7333 27.822 72.88C28.082 73.0267 28.3554 73.1 28.642 73.1C28.9354 73.1 29.2087 73.0267 29.462 72.88C29.722 72.7267 29.9287 72.5067 30.082 72.22C30.242 71.9333 30.322 71.6 30.322 71.22ZM33.7494 66.6V74H32.6094V66.6H33.7494ZM40.2961 71.11C40.2961 71.3167 40.2828 71.5033 40.2561 71.67H36.0461C36.0794 72.11 36.2428 72.4633 36.5361 72.73C36.8294 72.9967 37.1894 73.13 37.6161 73.13C38.2294 73.13 38.6628 72.8733 38.9161 72.36H40.1461C39.9794 72.8667 39.6761 73.2833 39.2361 73.61C38.8028 73.93 38.2628 74.09 37.6161 74.09C37.0894 74.09 36.6161 73.9733 36.1961 73.74C35.7828 73.5 35.4561 73.1667 35.2161 72.74C34.9828 72.3067 34.8661 71.8067 34.8661 71.24C34.8661 70.6733 34.9794 70.1767 35.2061 69.75C35.4394 69.3167 35.7628 68.9833 36.1761 68.75C36.5961 68.5167 37.0761 68.4 37.6161 68.4C38.1361 68.4 38.5994 68.5133 39.0061 68.74C39.4128 68.9667 39.7294 69.2867 39.9561 69.7C40.1828 70.1067 40.2961 70.5767 40.2961 71.11ZM39.1061 70.75C39.0994 70.33 38.9494 69.9933 38.6561 69.74C38.3628 69.4867 37.9994 69.36 37.5661 69.36C37.1728 69.36 36.8361 69.4867 36.5561 69.74C36.2761 69.9867 36.1094 70.3233 36.0561 70.75H39.1061Z" fill="#868889"/>
</svg>
