<svg width="28" height="28" viewBox="0 0 28 28" fill="none" xmlns="http://www.w3.org/2000/svg">
<path d="M8.38556 1.8539C8.13834 1.85776 7.90276 1.95955 7.73051 2.13692C7.55826 2.3143 7.46342 2.55277 7.46681 2.79999V3.73332H6.53348C6.4098 3.73157 6.28701 3.75442 6.17224 3.80054C6.05747 3.84666 5.95301 3.91513 5.86493 4.00197C5.77685 4.08882 5.70691 4.1923 5.65917 4.3064C5.61143 4.42051 5.58685 4.54297 5.58685 4.66666C5.58685 4.79035 5.61143 4.9128 5.65917 5.02691C5.70691 5.14102 5.77685 5.2445 5.86493 5.33134C5.95301 5.41818 6.05747 5.48665 6.17224 5.53277C6.28701 5.57889 6.4098 5.60174 6.53348 5.59999H7.46681V6.53332C7.46506 6.657 7.48791 6.77979 7.53403 6.89456C7.58015 7.00933 7.64862 7.11379 7.73546 7.20187C7.8223 7.28995 7.92578 7.35989 8.03989 7.40763C8.154 7.45537 8.27645 7.47995 8.40014 7.47995C8.52383 7.47995 8.64629 7.45537 8.7604 7.40763C8.8745 7.35989 8.97798 7.28995 9.06483 7.20187C9.15167 7.11379 9.22014 7.00933 9.26626 6.89456C9.31238 6.77979 9.33522 6.657 9.33348 6.53332V5.59999H10.2668C10.3905 5.60174 10.5133 5.57889 10.628 5.53277C10.7428 5.48665 10.8473 5.41818 10.9354 5.33134C11.0234 5.2445 11.0934 5.14102 11.1411 5.02691C11.1889 4.9128 11.2134 4.79035 11.2134 4.66666C11.2134 4.54297 11.1889 4.42051 11.1411 4.3064C11.0934 4.1923 11.0234 4.08882 10.9354 4.00197C10.8473 3.91513 10.7428 3.84666 10.628 3.80054C10.5133 3.75442 10.3905 3.73157 10.2668 3.73332H9.33348V2.79999C9.33519 2.67512 9.31182 2.55118 9.26477 2.4355C9.21771 2.31982 9.14792 2.21476 9.05953 2.12654C8.97114 2.03832 8.86595 1.96874 8.75018 1.9219C8.63441 1.87507 8.51043 1.85195 8.38556 1.8539ZM24.8665 2.80546L22.154 3.54556C21.748 3.65663 21.4668 4.02515 21.4668 4.44608V8.78098C21.4668 9.94485 18.6668 9.08496 18.6668 11.5154C18.6668 12.4487 19.2197 13.0667 20.2837 13.0667C21.9264 13.0667 22.4001 11.8185 22.4001 10.4325V5.96093L24.9668 5.19348C25.1021 5.16641 25.2001 5.04724 25.2001 4.90911V3.0789C25.2001 2.9025 25.0392 2.77093 24.8665 2.80546ZM13.2054 7.46848C9.79215 8.78915 7.46681 12.1928 7.46681 16.0726C7.46681 21.1136 11.5532 25.2 16.5942 25.2C20.474 25.2 23.8785 22.8755 25.2001 19.4633C24.1781 19.859 22.9706 19.9846 21.8095 19.9846C16.7686 19.9846 12.684 15.8982 12.684 10.8573C12.684 9.69622 12.8096 8.48955 13.2054 7.46848ZM3.71889 8.38723C3.47168 8.39109 3.23609 8.49288 3.06384 8.67026C2.8916 8.84763 2.79676 9.0861 2.80014 9.33332C2.67646 9.33157 2.55367 9.35442 2.4389 9.40054C2.32413 9.44666 2.21967 9.51513 2.13159 9.60197C2.04351 9.68882 1.97357 9.7923 1.92584 9.9064C1.8781 10.0205 1.85352 10.143 1.85352 10.2667C1.85352 10.3903 1.8781 10.5128 1.92584 10.6269C1.97357 10.741 2.04351 10.8445 2.13159 10.9313C2.21967 11.0182 2.32413 11.0867 2.4389 11.1328C2.55367 11.1789 2.67646 11.2017 2.80014 11.2C2.79839 11.3237 2.82124 11.4465 2.86736 11.5612C2.91348 11.676 2.98195 11.7805 3.06879 11.8685C3.15563 11.9566 3.25912 12.0266 3.37322 12.0743C3.48733 12.122 3.60979 12.1466 3.73348 12.1466C3.85717 12.1466 3.97962 12.122 4.09373 12.0743C4.20784 12.0266 4.31132 11.9566 4.39816 11.8685C4.485 11.7805 4.55347 11.676 4.59959 11.5612C4.64571 11.4465 4.66856 11.3237 4.66681 11.2C4.79049 11.2017 4.91328 11.1789 5.02805 11.1328C5.14282 11.0867 5.24728 11.0182 5.33536 10.9313C5.42344 10.8445 5.49338 10.741 5.54111 10.6269C5.58885 10.5128 5.61344 10.3903 5.61344 10.2667C5.61344 10.143 5.58885 10.0205 5.54111 9.9064C5.49338 9.7923 5.42344 9.68882 5.33536 9.60197C5.24728 9.51513 5.14282 9.44666 5.02805 9.40054C4.91328 9.35442 4.79049 9.33157 4.66681 9.33332C4.66852 9.20845 4.64515 9.08451 4.5981 8.96883C4.55104 8.85315 4.48126 8.7481 4.39287 8.65988C4.30448 8.57166 4.19928 8.50207 4.08352 8.45524C3.96775 8.40841 3.84376 8.38528 3.71889 8.38723Z" fill="white"/>
</svg>
