<svg width="227" height="169" viewBox="0 0 227 169" fill="none" xmlns="http://www.w3.org/2000/svg">
<g clip-path="url(#clip0_8_4341)">
<rect width="227" height="169" fill="#FF69B4"/>
<path opacity="0.1" d="M14.8571 66.2393H34.5863V93.3323H16.2997C16.253 93.6124 16.2064 93.8905 16.1539 94.1706H34.5863V116.017C34.5552 116.017 34.5241 115.993 34.4949 115.981C33.9765 115.774 33.4581 115.554 32.9396 115.321C32.8288 115.27 32.7199 115.217 32.6072 115.169C32.0887 114.922 31.5703 114.661 31.0519 114.385C30.871 114.289 30.6902 114.189 30.5133 114.087C27.6352 112.469 25.0193 110.418 22.7562 108.004C22.6882 107.939 22.6259 107.869 22.5618 107.808C22.2468 107.463 21.9377 107.115 21.6383 106.758C21.5256 106.627 21.4167 106.494 21.3059 106.367C20.952 105.932 20.6099 105.481 20.2794 105.029C20.2288 104.96 20.1822 104.894 20.1335 104.833C18.7796 102.946 17.6569 100.9 16.7896 98.7419C16.7624 98.6773 16.7371 98.6068 16.7119 98.546C16.4436 97.8605 16.2005 97.1652 15.9906 96.4562C15.9012 96.1605 15.8137 95.8687 15.7398 95.5612C15.7126 95.473 15.6912 95.3829 15.6679 95.2948C14.5752 90.9565 14.4489 86.4479 14.4489 81.9608C14.4489 81.4385 14.4489 80.9162 14.4489 80.3939C14.4644 78.562 14.4858 76.732 14.513 74.904C14.5234 74.434 14.5331 73.9619 14.5422 73.488C14.5694 72.288 14.6083 71.0854 14.6588 69.8803C14.6705 69.5473 14.6861 69.2124 14.7036 68.8814C14.7113 68.6894 14.7211 68.4975 14.7327 68.3056C14.7677 67.6122 14.8092 66.9235 14.8571 66.2393Z" fill="#FF69B4"/>
<path opacity="0.1" d="M34.5863 36.073H23.7632C25.5234 33.3007 27.4456 30.6362 29.5199 28.0938C31.1296 26.1039 32.8249 24.1649 34.5863 22.2964V36.073Z" fill="#FF69B4"/>
<path opacity="0.1" d="M34.5863 36.9075V65.4009H14.9194C14.9194 65.3186 14.931 65.2344 14.9388 65.1522C14.9563 64.9269 14.9738 64.7036 14.9932 64.4784C15.0127 64.216 15.038 63.9535 15.0632 63.695C15.0885 63.4364 15.1138 63.1231 15.1449 62.8391C15.176 62.5551 15.2013 62.2672 15.2324 61.9832C15.2635 61.6992 15.2946 61.4152 15.3296 61.1331C15.3646 60.8511 15.3957 60.5652 15.4346 60.2831C15.4637 60.0501 15.4929 59.815 15.5259 59.58C15.5707 59.249 15.6173 58.918 15.6659 58.589C15.6659 58.538 15.6815 58.4891 15.6892 58.4401C16.0446 56.0316 16.5274 53.644 17.1357 51.2874C17.7745 48.8157 18.5899 46.3938 19.5756 44.0406C20.623 41.575 21.8498 39.1908 23.2461 36.9075H34.5863Z" fill="#FF69B4"/>
<path opacity="0.1" d="M39.2989 66.2393V93.3324H81.4401V66.2393H39.2989ZM39.2989 94.1706V117.439C39.54 117.488 39.7771 117.536 40.0163 117.578C40.3371 117.64 40.6598 117.697 40.9883 117.746L41.1828 117.773C41.3111 117.795 41.4413 117.813 41.5716 117.828C41.8963 117.875 42.2209 117.911 42.5437 117.942C42.6953 117.958 42.8528 117.969 43.0064 117.983L43.3816 118.01C43.5857 118.026 43.7879 118.038 43.9901 118.046C44.1145 118.046 44.239 118.056 44.3653 118.059C44.4917 118.063 44.5597 118.059 44.6608 118.059H45.0283C45.1955 118.059 45.3627 118.059 45.5279 118.059H45.7418C45.909 118.059 46.0762 118.059 46.2414 118.044H46.2511C46.3678 118.044 46.4825 118.044 46.5991 118.03C46.6322 118.032 46.6653 118.032 46.6983 118.03C46.7955 118.03 46.8927 118.03 46.986 118.018C47.008 118.016 47.0301 118.016 47.0521 118.018C47.2679 118.005 47.4857 117.987 47.7054 117.967C47.925 117.948 48.1331 117.924 48.3528 117.901L48.7941 117.846C50.5975 117.592 52.3808 117.209 54.1308 116.702C58.0638 115.597 61.9073 114.052 65.8384 112.922C70.9165 111.463 76.5312 110.744 81.4382 112.521V94.1706H39.2989ZM81.4401 36.0733V0.00403393C76.8269 -0.0470991 72.2261 0.495909 67.7495 1.61986C57.0781 4.32074 47.4954 10.1789 39.2989 17.6606V36.0713H41.4199V36.9076H39.2989V65.401H81.4401V36.9076H50.0967V36.0693L81.4401 36.0733ZM135.581 23.8889C132.94 23.7949 130.316 22.9547 127.94 21.6522C123.403 19.1668 119.775 15.3241 115.723 12.0846C107.305 5.33333 96.865 1.25753 86.1547 0.246898V36.0733H146.308L146.458 35.9146L135.581 23.8889ZM141.061 22.9096L146.872 29.3357V21.2194C144.916 21.4681 143.213 22.0459 141.061 22.9018V22.9096ZM146.872 123.216V94.1706H134.48C134.449 94.0472 134.414 93.9219 134.375 93.7965C134.412 93.9219 134.445 94.0472 134.478 94.1706H86.1547V115.174C86.6135 115.517 87.0665 115.88 87.5156 116.244C88.0003 116.643 88.4818 117.047 88.9601 117.456L89.4422 117.858C89.6736 118.054 89.9088 118.249 90.1421 118.435C90.61 118.815 91.0811 119.191 91.5555 119.564C91.7927 119.752 92.0312 119.936 92.2709 120.118C96.0683 123.042 100.074 125.68 104.255 128.013C105.192 128.54 106.139 129.047 107.091 129.543C107.725 129.872 108.363 130.194 109.006 130.51C109.97 130.984 110.942 131.441 111.922 131.881C120.956 135.966 130.509 138.769 140.307 140.209C142.482 140.532 144.666 140.786 146.861 140.973V123.212H147.055L146.872 123.216ZM86.1547 36.9076V65.401H146.872V36.9076H86.1547ZM86.1547 66.2354V93.3324H146.872V66.2393L86.1547 66.2354ZM151.585 21.1802V30.2484L159 22.0479C156.542 21.6392 154.071 21.35 151.585 21.1802ZM151.585 66.2393V93.3324H210.638V66.2393H151.585ZM210.43 125.365L210.638 94.1706H151.585V141.288C155.389 141.448 159.198 141.401 162.997 141.149H163.063C164.878 141.032 166.684 140.864 168.481 140.648H168.522C178.116 139.523 187.496 136.999 196.368 133.154L210.43 125.365ZM222.031 70.6892C221.807 70.1669 221.577 69.6446 221.341 69.1223C220.901 68.143 220.439 67.1912 219.96 66.2413H215.353V93.3324H227C226.99 85.6586 225.062 77.8243 222.031 70.6892ZM215.353 94.1706V121.003C218.632 117.836 221.407 114.211 223.401 110.066C225.802 105.074 226.901 99.6723 226.992 94.1687L215.353 94.1706ZM215.353 58.3443V65.3952H219.529C218.263 62.9714 216.869 60.6177 215.353 58.3443ZM175.303 26.4978C174.996 26.3783 174.687 26.2588 174.378 26.1452C171.119 24.9317 167.788 23.923 164.404 23.1251L153.055 35.6717L152.833 35.9126L152.979 36.0713H193.374C187.748 32.171 181.682 28.9573 175.303 26.4978ZM194.56 36.9076H152.413L151.585 37.6695V65.401H158.846H210.638V51.9652C205.955 46.2597 200.55 41.1974 194.56 36.9076Z" fill="#FF69B4"/>
<path opacity="0.1" d="M34.5863 51.2815V65.4009H14.9194C14.9194 65.3186 14.931 65.2344 14.9388 65.1522C14.9563 64.9269 14.9738 64.7036 14.9932 64.4784C15.0127 64.216 15.038 63.9535 15.0632 63.695C15.0885 63.4364 15.1138 63.1231 15.1449 62.8391C15.176 62.5551 15.2013 62.2672 15.2324 61.9832C15.2635 61.6992 15.2946 61.4152 15.3296 61.1332C15.3646 60.8511 15.3957 60.5652 15.4346 60.2831C15.4637 60.0501 15.4929 59.815 15.5259 59.58C15.5707 59.249 15.6173 58.918 15.6659 58.589C15.6659 58.538 15.6815 58.4891 15.6892 58.4401C16.0446 56.0316 16.5274 53.644 17.1357 51.2874L34.5863 51.2815Z" fill="#FF69B4"/>
<path opacity="0.1" d="M14.8571 66.2393H34.5863V93.3323H16.2997C16.253 93.6124 16.2064 93.8905 16.1539 94.1706H34.5863V116.017C34.5552 116.017 34.5241 115.993 34.4949 115.981C33.9765 115.774 33.4581 115.554 32.9396 115.321C32.8288 115.27 32.7199 115.217 32.6072 115.169C32.0887 114.922 31.5703 114.661 31.0519 114.385C30.871 114.289 30.6902 114.189 30.5133 114.087C27.6352 112.469 25.0193 110.418 22.7562 108.004C22.6882 107.939 22.6259 107.869 22.5618 107.808C22.2468 107.463 21.9377 107.115 21.6383 106.758C21.5256 106.627 21.4167 106.494 21.3059 106.367C20.952 105.932 20.6099 105.481 20.2794 105.029C20.2288 104.96 20.1822 104.894 20.1335 104.833C18.7796 102.946 17.6569 100.9 16.7896 98.7419C16.7624 98.6773 16.7371 98.6068 16.7119 98.546C16.4436 97.8605 16.2005 97.1652 15.9906 96.4562C15.9012 96.1605 15.8137 95.8687 15.7398 95.5612C15.7126 95.473 15.6912 95.3829 15.6679 95.2948C14.5752 90.9565 14.4489 86.4479 14.4489 81.9608C14.4489 81.4385 14.4489 80.9162 14.4489 80.3939C14.4644 78.562 14.4858 76.732 14.513 74.904C14.5234 74.434 14.5331 73.9619 14.5422 73.488C14.5694 72.288 14.6083 71.0854 14.6588 69.8803C14.6705 69.5473 14.6861 69.2124 14.7036 68.8814C14.7113 68.6894 14.7211 68.4975 14.7327 68.3056C14.7677 67.6122 14.8092 66.9235 14.8571 66.2393Z" fill="#FF69B4"/>
<path opacity="0.1" d="M54.1327 40.9891V65.4008H39.2969V40.9891H41.4122V32.7239H50.0947V40.9891H54.1327Z" fill="#FF69B4"/>
<path opacity="0.1" d="M54.1307 66.2373H39.2969V93.3303H54.1307V66.2373Z" fill="#FF69B4"/>
<path opacity="0.1" d="M39.2989 94.1704H54.1327V116.694C52.3829 117.202 50.5995 117.583 48.796 117.836C48.6483 117.857 48.5025 117.875 48.3547 117.891C48.137 117.916 47.9212 117.94 47.7054 117.959L47.0541 118.012H46.988L46.7002 118.028H46.6011C46.4844 118.028 46.3697 118.042 46.2531 118.044H46.2434C46.0762 118.044 45.9109 118.055 45.7437 118.059H45.5299C45.3646 118.059 45.1994 118.059 45.0302 118.059H44.6647H44.3673C44.2409 118.059 44.1165 118.059 43.9901 118.044C43.7905 118.036 43.5883 118.024 43.3835 118.008L43.0083 117.981C42.8528 117.969 42.6972 117.953 42.5437 117.938C42.217 117.909 41.893 117.872 41.5716 117.826L41.1828 117.771L40.9883 117.744C40.6637 117.695 40.3409 117.64 40.0163 117.577C39.7752 117.534 39.538 117.485 39.2989 117.434V94.1704Z" fill="#FF69B4"/>
<path opacity="0.1" d="M146.87 38.1062H134.638V65.399H146.87V38.1062Z" fill="#FF69B4"/>
<path opacity="0.1" d="M146.872 66.2373V93.3323H86.1547V81.6455H118.495V88.5397H134.638V66.2373H146.872Z" fill="#FF69B4"/>
<path opacity="0.1" d="M147.065 123.222C147.001 123.222 146.936 123.222 146.87 123.21V140.984C144.679 140.803 142.495 140.549 140.319 140.223C130.517 138.783 120.96 135.982 111.922 131.899C109.313 130.713 106.757 129.421 104.255 128.023C100.075 125.689 96.0703 123.05 92.2729 120.128C91.3164 119.391 90.3741 118.638 89.4461 117.869C88.8026 117.333 88.1649 116.784 87.5156 116.253C87.0684 115.887 86.6154 115.525 86.1547 115.18V94.1705H134.478C134.443 94.0451 134.412 93.9217 134.377 93.7964C134.414 93.9217 134.449 94.0451 134.48 94.1705H146.872V123.208C146.936 123.21 147.001 123.216 147.065 123.222Z" fill="#FF69B4"/>
<path opacity="0.1" d="M178.776 36.0731H170.805V33.5778H174.376V26.145C174.686 26.2599 174.994 26.3774 175.301 26.4976V33.5778H178.774L178.776 36.0731Z" fill="#FF69B4"/>
<path opacity="0.1" d="M197.982 65.4009H158.846C158.85 65.4018 158.854 65.4018 158.858 65.4009H158.84H151.585V38.1081H153.642V58.2815H163.04V46.3341H170.807V36.9075H178.777V46.34H186.54V58.2873H197.984L197.982 65.4009Z" fill="#FF69B4"/>
<path opacity="0.1" d="M151.585 66.2393V93.3323H197.984V66.2393H151.585ZM210.572 125.222L210.638 103.775H197.984V94.1784H151.585V141.288C155.389 141.447 159.198 141.401 162.997 141.149H163.063C164.878 141.032 166.684 140.864 168.481 140.648H168.522C178.116 139.523 187.496 136.998 196.368 133.154" fill="#FF69B4"/>
<path opacity="0.1" d="M216.169 94.1704H226.992C226.899 99.6721 225.802 105.076 223.401 110.066C221.407 114.213 218.632 117.838 215.353 121.005V103.769H216.169V94.1704Z" fill="#FF69B4"/>
<path opacity="0.1" d="M227 93.3321H216.169V70.689H222.031C225.062 77.8241 226.99 85.6584 227 93.3321Z" fill="#FF69B4"/>
<path opacity="0.1" d="M146.872 45.6936H140.318V54.2506H146.872V45.6936Z" fill="#FF69B4"/>
<path opacity="0.1" d="M146.872 63.4307H140.318V65.401H146.872V63.4307Z" fill="#FF69B4"/>
<path opacity="0.1" d="M146.872 66.2373H140.318V71.9857H146.872V66.2373Z" fill="#FF69B4"/>
<path opacity="0.1" d="M146.872 81.1675H140.318V89.7245H146.872V81.1675Z" fill="#FF69B4"/>
<path opacity="0.1" d="M146.872 98.9043H140.318V107.461H146.872V98.9043Z" fill="#FF69B4"/>
<path opacity="0.1" d="M146.872 123.208C146.936 123.208 147 123.208 147.067 123.222C147.002 123.222 146.938 123.222 146.872 123.21V125.198H140.318V116.641H146.872V123.208Z" fill="#FF69B4"/>
<path opacity="0.1" d="M146.872 134.376V140.984C144.679 140.803 142.495 140.549 140.318 140.223V134.376H146.872Z" fill="#FF69B4"/>
<path opacity="0.1" d="M114.242 92.7036H86.1547V93.3323H114.242V92.7036Z" fill="#FF69B4"/>
<path opacity="0.1" d="M114.242 94.1685H86.1547V96.5775H114.242V94.1685Z" fill="#FF69B4"/>
<path opacity="0.1" d="M114.242 104.475H86.1547V108.349H114.242V104.475Z" fill="#FF69B4"/>
<path opacity="0.1" d="M114.242 116.246V120.12H92.2729C91.3164 119.386 90.3741 118.632 89.4461 117.859C88.8006 117.325 88.163 116.776 87.5156 116.246H114.242Z" fill="#FF69B4"/>
<path opacity="0.1" d="M114.242 128.015V131.899H111.922C109.313 130.713 106.757 129.421 104.255 128.022L114.242 128.015Z" fill="#FF69B4"/>
<path opacity="0.1" d="M168.526 68.8638H162.997V74.434H168.526V68.8638Z" fill="#FF69B4"/>
<path opacity="0.1" d="M48.8096 42.9106H43.2805V48.4808H48.8096V42.9106Z" fill="#FF69B4"/>
<path opacity="0.1" d="M48.8096 55.8489H43.2805V61.4191H48.8096V55.8489Z" fill="#FF69B4"/>
<path opacity="0.1" d="M48.8096 68.7874H43.2805V74.3576H48.8096V68.7874Z" fill="#FF69B4"/>
<path opacity="0.1" d="M48.8096 81.7236H43.2805V87.2938H48.8096V81.7236Z" fill="#FF69B4"/>
<path opacity="0.1" d="M48.8096 94.6621H43.2805V100.232H48.8096V94.6621Z" fill="#FF69B4"/>
<path opacity="0.1" d="M48.8096 107.601H43.2805V113.171H48.8096V107.601Z" fill="#FF69B4"/>
<path opacity="0.1" d="M189.634 68.8638H184.104V74.434H189.634V68.8638Z" fill="#FF69B4"/>
<path opacity="0.1" d="M168.526 82.603H162.997V88.1732H168.526V82.603Z" fill="#FF69B4"/>
<path opacity="0.1" d="M189.634 82.603H184.104V88.1732H189.634V82.603Z" fill="#FF69B4"/>
<path opacity="0.1" d="M168.526 96.3406H162.997V101.911H168.526V96.3406Z" fill="#FF69B4"/>
<path opacity="0.1" d="M189.634 96.3406H184.104V101.911H189.634V96.3406Z" fill="#FF69B4"/>
<path opacity="0.1" d="M168.526 110.08H162.997V115.65H168.526V110.08Z" fill="#FF69B4"/>
<path opacity="0.1" d="M189.634 110.08H184.104V115.65H189.634V110.08Z" fill="#FF69B4"/>
<path opacity="0.1" d="M168.526 123.82H162.997V129.39H168.526V123.82Z" fill="#FF69B4"/>
<path opacity="0.1" d="M189.634 123.82H184.104V129.39H189.634V123.82Z" fill="#FF69B4"/>
<path opacity="0.1" d="M162.997 141.149V137.557H168.524V140.638L162.997 141.149Z" fill="#FF69B4"/>
<path opacity="0.1" d="M15.6659 58.4343V61.6209H34.5863V58.4343H15.6659ZM17.5498 61.4212H15.9945V58.6361H17.5498V61.4212ZM19.4337 61.4212H17.8783V58.6361H19.4337V61.4212ZM21.3136 61.4212H19.7583V58.6361H21.3136V61.4212ZM23.1975 61.4212H21.6422V58.6361H23.1975V61.4212ZM25.0794 61.4212H23.5241V58.6361H25.0794V61.4212ZM26.9633 61.4212H25.408V58.6361H26.9633V61.4212ZM28.8472 61.4212H27.2919V58.6361H28.8472V61.4212ZM30.7291 61.4212H29.1738V58.6361H30.7291V61.4212ZM32.611 61.4212H31.0557V58.6361H32.611V61.4212ZM34.4949 61.4212H32.9396V58.6361H34.4949V61.4212Z" fill="#FF69B4"/>
<path opacity="0.1" d="M15.6659 67.71V70.8966H34.5863V67.71H15.6659ZM17.5498 70.6968H15.9945V67.9117H17.5498V70.6968ZM19.4337 70.6968H17.8783V67.9117H19.4337V70.6968ZM21.3136 70.6968H19.7583V67.9117H21.3136V70.6968ZM23.1975 70.6968H21.6422V67.9117H23.1975V70.6968ZM25.0794 70.6968H23.5241V67.9117H25.0794V70.6968ZM26.9633 70.6968H25.408V67.9117H26.9633V70.6968ZM28.8472 70.6968H27.2919V67.9117H28.8472V70.6968ZM30.7291 70.6968H29.1738V67.9117H30.7291V70.6968ZM32.611 70.6968H31.0557V67.9117H32.611V70.6968ZM34.4949 70.6968H32.9396V67.9117H34.4949V70.6968Z" fill="#FF69B4"/>
<path opacity="0.1" d="M15.6659 76.9878V80.1724H34.5863V76.9878H15.6659ZM17.5498 79.9707H15.9945V77.1856H17.5498V79.9707ZM19.4337 79.9707H17.8783V77.1856H19.4337V79.9707ZM21.3136 79.9707H19.7583V77.1856H21.3136V79.9707ZM23.1975 79.9707H21.6422V77.1856H23.1975V79.9707ZM25.0794 79.9707H23.5241V77.1856H25.0794V79.9707ZM26.9633 79.9707H25.408V77.1856H26.9633V79.9707ZM28.8472 79.9707H27.2919V77.1856H28.8472V79.9707ZM30.7291 79.9707H29.1738V77.1856H30.7291V79.9707ZM32.611 79.9707H31.0557V77.1856H32.611V79.9707ZM34.4949 79.9707H32.9396V77.1856H34.4949V79.9707Z" fill="#FF69B4"/>
<path opacity="0.1" d="M15.6659 86.2637V89.4483H34.5863V86.2637H15.6659ZM17.5498 89.2486H15.9945V86.4595H17.5498V89.2486ZM19.4337 89.2486H17.8783V86.4595H19.4337V89.2486ZM21.3136 89.2486H19.7583V86.4595H21.3136V89.2486ZM23.1975 89.2486H21.6422V86.4595H23.1975V89.2486ZM25.0794 89.2486H23.5241V86.4595H25.0794V89.2486ZM26.9633 89.2486H25.408V86.4595H26.9633V89.2486ZM28.8472 89.2486H27.2919V86.4595H28.8472V89.2486ZM30.7291 89.2486H29.1738V86.4595H30.7291V89.2486ZM32.611 89.2486H31.0557V86.4595H32.611V89.2486ZM34.4949 89.2486H32.9396V86.4595H34.4949V89.2486Z" fill="#FF69B4"/>
<path opacity="0.1" d="M15.7573 95.5356C15.8311 95.8373 15.9186 96.135 16.0081 96.4307V95.7374H17.5634V98.5205H16.7293C16.7527 98.5871 16.7779 98.6557 16.8052 98.7164H34.5941V95.5356H15.7573ZM19.4511 98.5205H17.8958V95.7374H19.4511V98.5205ZM21.3311 98.5205H19.7758V95.7374H21.3311V98.5205ZM23.215 98.5205H21.6597V95.7374H23.215V98.5205ZM25.0969 98.5205H23.5416V95.7374H25.0969V98.5205ZM26.9808 98.5205H25.4255V95.7374H26.9808V98.5205ZM28.8647 98.5205H27.3094V95.7374H28.8647V98.5205ZM30.7466 98.5205H29.1913V95.7374H30.7466V98.5205ZM32.6285 98.5205H31.0732V95.7374H32.6285V98.5205ZM34.5124 98.5205H32.9571V95.7374H34.5124V98.5205Z" fill="#FF69B4"/>
<path opacity="0.1" d="M20.1394 104.812C20.1899 104.874 20.2366 104.945 20.2852 105.007H21.3137V106.345L21.6461 106.737V105H23.2014V107.808H22.5618C22.624 107.873 22.6843 107.941 22.7562 108.004H34.5824V104.812H20.1394ZM25.0892 107.808H23.5339V105.011H25.0892V107.808ZM26.973 107.808H25.4177V105.011H26.973V107.808ZM28.8569 107.808H27.3016V105.011H28.8569V107.808ZM30.7389 107.808H29.1835V105.011H30.7389V107.808ZM32.6208 107.808H31.0655V105.011H32.6208V107.808ZM34.5047 107.808H32.9493V105.011H34.5047V107.808Z" fill="#FF69B4"/>
<path opacity="0.1" d="M30.5192 114.087C30.698 114.189 30.8788 114.283 31.0596 114.383V114.285H32.6149V115.169C32.7277 115.218 32.8346 115.27 32.9455 115.321V114.285H34.5008V115.981C34.5303 115.995 34.5609 116.006 34.5921 116.015V114.087H30.5192Z" fill="#FF69B4"/>
<path opacity="0.1" d="M146.87 123.208H147.065H146.87ZM134.375 93.7963C134.412 93.9216 134.445 94.047 134.478 94.1704C134.449 94.047 134.414 93.9216 134.375 93.7963ZM41.4199 36.073V36.9074H50.1044V36.0691L41.4199 36.073ZM146.872 123.208H147.067H146.872ZM134.375 93.7963C134.412 93.9216 134.445 94.047 134.478 94.1704C134.449 94.047 134.414 93.9216 134.375 93.7963ZM146.87 123.208H147.065H146.87ZM134.375 93.7963C134.412 93.9216 134.445 94.047 134.478 94.1704C134.449 94.047 134.414 93.9216 134.375 93.7963Z" fill="#FF69B4"/>
<path opacity="0.1" d="M170.974 169C181.436 169 189.917 167.628 189.917 165.935C189.917 164.242 181.436 162.87 170.974 162.87C160.511 162.87 152.03 164.242 152.03 165.935C152.03 167.628 160.511 169 170.974 169Z" fill="#FF69B4"/>
<path opacity="0.1" d="M85.5364 165.935C95.9988 165.935 104.48 164.562 104.48 162.87C104.48 161.177 95.9988 159.804 85.5364 159.804C75.0741 159.804 66.5927 161.177 66.5927 162.87C66.5927 164.562 75.0741 165.935 85.5364 165.935Z" fill="#FF69B4"/>
<path d="M107.346 81.8197C107.341 81.8002 107.331 81.7826 107.317 81.7688C107.027 81.4809 103.333 76.2182 103.333 76.2182C103.333 76.2182 103.139 75.6306 102.824 74.8667C102.925 74.7351 103.001 74.5856 103.047 74.4261C103.064 74.3584 103.077 74.2897 103.084 74.2204C103.084 74.1989 103.1 74.1812 103.106 74.1597C103.173 73.8941 103.166 73.6148 103.086 73.3528C103.065 73.42 103.038 73.4855 103.007 73.5486C102.933 73.3205 102.836 73.1011 102.715 72.8944C102.225 72.0444 101.525 71.3276 101.01 70.4991C100.23 69.2119 99.9197 67.6909 100.133 66.1981C100.133 66.2744 100.133 66.3528 100.133 66.4292C100.153 66.1331 100.192 65.8387 100.25 65.5478C100.331 65.2168 100.44 64.8931 100.574 64.5803C101.037 63.5129 101.786 62.5825 102.241 61.5112C102.393 61.1498 102.509 60.7738 102.587 60.3889C102.747 59.7461 102.805 59.0818 102.76 58.4205C102.76 58.5772 102.734 58.7339 102.711 58.8886C102.662 57.2989 102.025 55.7851 100.924 54.6444C99.336 53.0364 97.0555 52.4116 94.8742 52.0826C93.9575 51.9748 93.0821 51.6382 92.3273 51.1033C91.4894 50.5569 90.4065 50.4256 89.4267 50.5451C88.3005 50.6678 87.254 51.189 86.4735 52.016C85.4373 53.1637 84.9882 54.7893 83.7789 55.7569C83.046 56.3444 82.1167 56.6187 81.2632 57.0182C80.4097 57.4178 79.6029 57.9975 79.3288 58.8554C79.3288 58.8554 79.3288 58.8436 79.3288 58.8377V58.8867L79.3171 58.918C79.0333 59.9326 79.5815 60.9647 79.8673 61.9773C80.1648 63.0252 80.1842 64.1318 80.1998 65.2149C80.2212 66.5389 80.2406 67.8648 80.2192 69.1908C80.2095 69.7118 80.192 70.2386 80.1531 70.7576C79.693 70.8978 79.246 71.0787 78.8175 71.2982C78.382 71.5842 76.7528 73.3567 76.7528 73.3567L73.5664 85.6213L73.6091 85.6703L73.5664 85.8368L73.7277 85.7995C74.1788 86.2892 75.5261 87.6837 76.9803 88.5533L77.1164 90.9584C77.1164 90.9584 77.2797 93.3714 79.4824 94.3683C79.5329 95.2046 79.6904 98.6008 78.9614 99.9464C78.4565 100.929 78.2191 102.029 78.2731 103.135C78.2731 103.135 78.5278 105.176 78.2381 106.249C78.0689 106.966 78.0563 107.712 78.2012 108.435C78.2012 108.435 78.2012 108.672 78.2012 109.079C78.2012 111.251 78.2265 118.212 78.2012 118.999C78.1643 119.93 78.2012 133.689 78.2012 133.689C78.2012 133.689 78.0204 140.565 77.441 142.428C76.8617 144.291 77.0075 150.458 77.0075 150.458C77.0075 150.458 76.6439 157.805 77.929 159.254C77.929 159.319 77.9174 159.385 77.9154 159.45C77.9154 159.479 77.9154 159.513 77.9154 159.542C77.8999 160.1 78.0068 160.694 78.4831 160.876C79.4552 161.252 80.7402 162.38 80.9833 162.703C81.2263 163.026 82.6397 163.831 84.4827 163.616C85.6373 163.485 86.7992 163.431 87.9608 163.455C87.9608 163.455 88.6879 163.322 88.4527 162.411C88.301 161.843 87.7333 160.97 87.3289 160.396C87.4028 160.416 87.4748 160.431 87.5428 160.445L87.6128 160.459H87.6672C87.697 160.46 87.7269 160.46 87.7567 160.459H87.7955C87.8318 160.462 87.8682 160.462 87.9044 160.459C88.3924 160.412 90.2121 161.266 90.5368 161.83C90.8615 162.394 92.0065 162.823 92.8697 162.93C93.383 162.993 94.6778 162.887 95.7646 162.746C96.3119 162.689 96.8539 162.59 97.386 162.449C97.6426 162.351 97.6971 162.037 97.6232 161.685C97.5359 161.237 97.2984 160.833 96.9505 160.541C96.6355 160.316 96.2195 159.722 95.9123 159.236L95.8307 159.105C96.3731 158.584 97.3529 156.88 97.6504 156.528C98.012 156.099 97.0671 140.413 97.0671 140.413V132.549L98.5155 125.106L99.5284 121.168L100.397 115.221C100.397 115.221 101.918 108.276 101.449 107.595C101.449 107.581 101.06 100.43 100.652 98.7125C100.475 97.9466 100.52 96.2231 100.625 94.5466C100.735 94.4368 100.811 94.2979 100.846 94.146C100.88 93.9941 100.871 93.8356 100.819 93.6887C100.79 93.5883 100.753 93.4906 100.707 93.3969C100.707 93.3675 100.707 93.3361 100.707 93.3068C101.546 92.9175 102.424 92.6169 103.325 92.4097C104.774 92.1238 104.412 91.3717 104.412 91.3717C104.412 91.3717 104.739 90.7273 104.955 90.3336C105.17 89.94 104.991 86.4655 104.955 86.1795C104.941 86.0639 104.851 85.4254 104.748 84.7008C105.213 84.3678 105.818 83.9546 106.477 83.5628C107.731 82.8147 107.449 82.0254 107.346 81.8197ZM88.4488 131.476C88.4488 131.476 87.362 134.269 87.7975 134.983C88.233 135.698 87.7255 138.352 87.7255 138.352L87.362 142.291C87.362 142.291 86.3491 149.596 86.7107 151.314C86.9945 152.662 87.0995 156.686 87.1326 158.365C87.1077 158.375 87.0836 158.386 87.0607 158.4L87.012 158.426C87.1792 157.766 87.1093 156.43 86.2791 153.743L86.2091 142.643C86.2091 142.643 86.0808 129.823 87.0859 128.389C88.091 126.955 88.4468 124.521 88.4468 124.521C88.4468 124.521 88.2291 128.032 88.0872 128.963C87.9452 129.893 88.4488 131.476 88.4488 131.476ZM86.4249 159.064C86.4152 159.088 86.4035 159.111 86.3958 159.133L86.3413 159.062C86.3691 159.065 86.397 159.066 86.4249 159.064Z" fill="url(#paint0_linear_8_4341)"/>
<path d="M97.5085 163.463C96.9466 163.68 93.9001 164.051 93.0486 163.947C92.1971 163.843 91.0695 163.408 90.7487 162.84C90.4279 162.272 88.6296 161.414 88.1474 161.469C87.9498 161.475 87.7526 161.447 87.5642 161.387C87.2315 161.285 86.9067 161.16 86.5921 161.011C86.5482 160.764 86.5554 160.511 86.6135 160.267C86.6247 160.217 86.639 160.169 86.6562 160.122C86.7697 159.8 87.0045 159.537 87.3095 159.389L87.3795 159.356C87.5142 159.297 87.6551 159.254 87.7994 159.227C89.3275 158.931 95.6324 159.524 95.6324 159.524C95.6324 159.524 95.8093 159.844 96.0523 160.239C96.3556 160.729 96.7677 161.326 97.0788 161.551C97.4234 161.848 97.6572 162.254 97.7418 162.703C97.8156 163.05 97.7612 163.367 97.5085 163.463Z" fill="white"/>
<path opacity="0.1" d="M97.5085 163.463C96.9466 163.681 93.9021 164.051 93.0505 163.947C92.199 163.843 91.0714 163.406 90.7487 162.84C90.426 162.274 88.6315 161.414 88.1494 161.469C87.6672 161.524 86.594 161.011 86.594 161.011C86.594 161.011 86.4268 160.228 86.9129 159.693L87.885 160.388C87.885 160.388 90.4862 161.201 90.9684 161.955C91.4505 162.709 92.3293 163.13 93.5988 163.207C94.5475 163.269 96.7269 162.897 97.7476 162.711C97.8156 163.05 97.7631 163.367 97.5085 163.463Z" fill="black"/>
<path d="M88.2018 164.462C87.0551 164.439 85.9081 164.494 84.7685 164.624C82.9429 164.84 81.549 164.037 81.306 163.706C81.0629 163.375 79.8051 162.257 78.8388 161.865C78.3664 161.681 78.2556 161.081 78.277 160.521C78.277 160.492 78.277 160.459 78.277 160.429C78.2949 160.074 78.347 159.722 78.4325 159.377L85.9972 159.215L86.6523 160.11L86.7534 160.247L87.152 160.793C87.152 160.793 87.3328 161.032 87.57 161.381C87.9705 161.969 88.5304 162.836 88.6801 163.41C88.9192 164.329 88.2018 164.462 88.2018 164.462Z" fill="white"/>
<path opacity="0.1" d="M88.2018 164.462C87.0551 164.439 85.9081 164.494 84.7685 164.624C82.9449 164.84 81.549 164.037 81.3079 163.706C81.0668 163.375 79.8051 162.247 78.8388 161.869C78.3664 161.685 78.2556 161.085 78.277 160.525C78.8175 160.652 79.9528 160.978 80.398 161.544C80.9813 162.3 82.0253 163.571 83.5087 163.651C84.7063 163.716 87.6225 163.5 88.6918 163.414C88.9212 164.329 88.2018 164.462 88.2018 164.462Z" fill="black"/>
<path opacity="0.1" d="M87.3017 159.381C87.2143 160.036 86.944 160.212 86.7496 160.251C86.7021 160.26 86.6533 160.26 86.6057 160.251C86.5802 160.249 86.5548 160.245 86.5299 160.239C86.5299 160.239 79.7371 161.751 78.3645 160.527C78.3297 160.496 78.2972 160.462 78.2673 160.425C78.2852 160.07 78.3373 159.718 78.4228 159.374L85.9875 159.211L86.6427 160.106C86.7562 159.785 86.9909 159.521 87.2959 159.374L87.3017 159.381Z" fill="black"/>
<path opacity="0.1" d="M96.0504 160.231C95.8987 160.4 95.7723 160.496 95.6926 160.463C95.3349 160.318 92.4031 159.814 91.4719 160.247C90.5407 160.68 87.3892 160.318 87.3892 160.318C87.3892 160.318 87.3892 159.942 87.3717 159.338C87.5065 159.28 87.6473 159.236 87.7916 159.209C89.3197 158.913 95.6246 159.507 95.6246 159.507C95.6246 159.507 95.8093 159.836 96.0504 160.231Z" fill="black"/>
<path d="M100.487 115.928L99.6275 121.91L98.6282 125.874L97.1974 133.367V141.3C97.1974 141.3 98.1267 157.082 97.7689 157.513C97.4112 157.944 96.0523 160.398 95.6945 160.255C95.3368 160.112 92.405 159.607 91.4738 160.037C90.5426 160.468 87.3911 160.11 87.3911 160.11C87.3911 160.11 87.3192 153.985 86.9614 152.256C86.6037 150.527 87.605 143.176 87.605 143.176L87.9627 139.214C87.9627 139.214 88.4643 136.546 88.0346 135.825C87.605 135.105 88.6781 132.3 88.6781 132.3C88.6781 132.3 88.1785 130.712 88.3223 129.775C88.4662 128.839 88.6781 125.308 88.6781 125.308C88.6781 125.308 88.3223 127.76 87.3289 129.2C86.3354 130.639 86.4618 143.54 86.4618 143.54L86.5318 154.704C88.3223 160.615 86.5318 160.037 86.5318 160.037C86.5318 160.037 79.739 161.551 78.3664 160.325C76.9938 159.099 77.3865 151.382 77.3865 151.382C77.3865 151.382 77.2446 145.186 77.8162 143.313C78.3878 141.441 78.5686 134.521 78.5686 134.521C78.5686 134.521 78.5316 120.684 78.5686 119.749C78.5958 118.966 78.5686 111.952 78.5686 109.761C78.5686 109.353 78.5686 109.112 78.5686 109.112L79.389 107.06L89.1097 105.834H93.7601C93.7601 105.834 100.759 107.491 101.482 108.206C101.498 108.217 101.511 108.232 101.521 108.249C101.99 108.94 100.487 115.928 100.487 115.928Z" fill="#FF69B4"/>
<path opacity="0.1" d="M88.684 147.348C88.684 147.348 90.8226 152.536 91.8316 152.897C92.8406 153.257 88.684 147.348 88.684 147.348Z" fill="black"/>
<path opacity="0.1" d="M89.4752 154.986C89.4752 154.986 96.6958 155.347 96.6239 156.14C96.5519 156.933 89.4752 154.986 89.4752 154.986Z" fill="black"/>
<path opacity="0.1" d="M79.8148 152.912C80.1006 153.185 85.3225 153.696 84.8929 154.193C84.4632 154.691 80.2445 155.658 80.2445 155.658L79.8148 152.912Z" fill="black"/>
<path opacity="0.1" d="M78.9574 143.961C78.9574 144.177 80.0306 150.879 80.3183 151.167C80.6061 151.455 82.9643 151.743 82.9643 151.743L78.9574 143.961Z" fill="black"/>
<path d="M86.7437 52.3508C85.7192 53.5044 85.2759 55.1398 84.0822 56.1152C83.357 56.7028 82.4394 56.9828 81.5957 57.3824C80.7519 57.7819 79.9159 58.391 79.6651 59.2959C79.3852 60.3144 79.9256 61.3544 80.2095 62.3728C80.503 63.4266 80.5205 64.5273 80.538 65.63C80.5575 66.9637 80.5789 68.2975 80.5555 69.6313C80.5205 71.7094 80.3495 73.8834 79.2549 75.6442C83.2073 76.9114 87.4106 77.0837 91.5555 77.2463C92.352 77.3035 93.1522 77.2832 93.9448 77.1856C94.6317 77.0477 95.3111 76.8745 95.9804 76.6666C97.3036 76.3138 98.6671 76.138 100.036 76.1436C100.633 76.1436 101.241 76.1808 101.817 76.0241C102.392 75.8675 102.946 75.4659 103.102 74.8862C103.24 74.3652 103.038 73.8109 102.773 73.3428C102.291 72.4889 101.607 71.776 101.09 70.9338C100.562 70.0442 100.248 69.0422 100.175 68.0083C100.102 66.9745 100.271 65.9378 100.668 64.9817C101.127 63.9064 101.865 62.9702 102.316 61.893C102.778 60.7364 102.901 59.4706 102.67 58.2457C102.439 57.0209 101.864 55.8886 101.014 54.9831C99.4448 53.3653 97.1935 52.7386 95.0394 52.4056C94.1324 52.2977 93.2671 51.9609 92.5237 51.4263C91.6974 50.8779 90.6262 50.7447 89.658 50.8662C88.5411 50.9923 87.5066 51.5193 86.7437 52.3508Z" fill="#3F3D56"/>
<g opacity="0.1">
<path opacity="0.1" d="M100.728 63.8518C100.332 64.7955 100.162 65.8202 100.232 66.8425C100.276 66.1115 100.443 65.3933 100.728 64.7194C101.185 63.6441 101.924 62.7079 102.375 61.6307C102.743 60.7312 102.898 59.7574 102.828 58.7869C102.788 59.4671 102.634 60.1358 102.375 60.765C101.924 61.8422 101.185 62.7765 100.728 63.8518Z" fill="black"/>
<path opacity="0.1" d="M80.5964 65.3638C80.608 66.1316 80.6197 66.9013 80.6216 67.6691C80.6216 66.6114 80.6119 65.5557 80.5964 64.5001C80.5808 63.4052 80.5614 62.2967 80.2678 61.241C80.0734 60.5712 79.7857 59.8915 79.6846 59.2158C79.5115 60.1755 80.0034 61.1489 80.2678 62.1067C80.5614 63.1526 80.5808 64.269 80.5964 65.3638Z" fill="black"/>
<path opacity="0.1" d="M101.883 74.9039C101.3 75.0626 100.701 75.0273 100.104 75.0234C98.7362 75.0146 97.3733 75.1872 96.0503 75.5365C95.381 75.7436 94.7016 75.9161 94.0148 76.0536C93.2216 76.1528 92.4207 76.1738 91.6235 76.1163C87.6186 75.9576 83.5573 75.7872 79.7215 74.6336C79.6076 74.8897 79.4777 75.1383 79.3326 75.3779C83.2851 76.6431 87.4883 76.8174 91.6313 76.98C92.4285 77.0376 93.2294 77.0166 94.0226 76.9173C94.7069 76.7812 95.3837 76.6092 96.0503 76.4022C97.3706 76.0516 98.7308 75.8771 100.096 75.8832C100.693 75.8832 101.3 75.9204 101.875 75.7618C102.45 75.6031 103.005 75.2055 103.16 74.6258C103.226 74.3573 103.219 74.0761 103.141 73.811C102.968 74.3594 102.433 74.7414 101.883 74.9039Z" fill="black"/>
</g>
<path d="M96.1242 72.5831C95.9804 72.9082 95.3738 75.7168 95.2299 76.0048C95.0861 76.2927 94.3006 80.9012 94.2287 81.1597C94.1568 81.4183 89.0514 80.0786 89.0514 80.0786L85.9778 77.4835L82.8185 74.3165C82.8185 74.3165 82.7252 71.4589 85.0523 70.5423C85.2105 70.4797 85.3729 70.4287 85.5384 70.3895C88.3613 69.706 88.0774 61.0588 88.0774 61.0588L93.871 63.5795C93.871 63.5795 92.7978 68.6248 92.8347 69.5982C92.8445 69.9253 93.0991 70.129 93.4316 70.2524C93.9456 70.3997 94.4807 70.458 95.0141 70.4248C95.0141 70.4248 96.2681 72.26 96.1242 72.5831Z" fill="#FBBEBE"/>
<path d="M106.496 82.0586L107.319 82.276C107.319 82.276 107.927 83.2083 106.496 84.0759C105.588 84.6319 104.716 85.2462 103.885 85.915L99.6567 87.2116L98.8421 84.6361L102.777 81.6277L106.496 82.0586Z" fill="#FF69B4"/>
<path opacity="0.1" d="M106.496 82.0586L107.319 82.276C107.319 82.276 107.927 83.2083 106.496 84.0759C105.588 84.6319 104.716 85.2462 103.885 85.915L99.6567 87.2116L98.8421 84.6361L102.777 81.6277L106.496 82.0586Z" fill="black"/>
<path d="M75.6369 84.546L73.9921 86.1677C73.9921 86.1677 76.9589 89.6265 79.2413 89.842C81.5237 90.0574 82.9954 87.2116 82.9954 87.2116L81.0202 84.0779L75.6369 84.546Z" fill="#FF69B4"/>
<path opacity="0.1" d="M75.6369 84.546L73.9921 86.1677C73.9921 86.1677 76.9589 89.6265 79.2413 89.842C81.5237 90.0574 82.9954 87.2116 82.9954 87.2116L81.0202 84.0779L75.6369 84.546Z" fill="black"/>
<path opacity="0.1" d="M91.26 66.7093C94.42 66.7093 96.9816 64.1287 96.9816 60.9453C96.9816 57.7618 94.42 55.1812 91.26 55.1812C88.1 55.1812 85.5384 57.7618 85.5384 60.9453C85.5384 64.1287 88.1 66.7093 91.26 66.7093Z" fill="black"/>
<path d="M91.26 66.2765C94.42 66.2765 96.9816 63.6958 96.9816 60.5124C96.9816 57.329 94.42 54.7483 91.26 54.7483C88.1 54.7483 85.5384 57.329 85.5384 60.5124C85.5384 63.6958 88.1 66.2765 91.26 66.2765Z" fill="#FBBEBE"/>
<path opacity="0.1" d="M101.525 108.903C100.222 109.053 98.939 109.343 97.697 109.767C95.5585 110.483 78.8 109.778 78.5667 109.767C78.5667 109.359 78.5667 109.118 78.5667 109.118L79.3871 107.066L89.1078 105.84H93.7582C93.7582 105.84 100.757 107.497 101.48 108.211C101.51 108.642 101.525 108.903 101.525 108.903Z" fill="black"/>
<path opacity="0.1" d="M96.1242 72.5829C95.9804 72.908 95.3738 75.7166 95.2299 76.0045C95.0861 76.2925 94.3006 80.901 94.2287 81.1595C94.1568 81.4181 89.0514 80.0784 89.0514 80.0784L85.9778 77.4833L82.8185 74.3163C82.8185 74.3163 82.7252 71.4587 85.0523 70.5421L90.8303 77.2345L93.4316 70.2522C93.9456 70.3995 94.4807 70.4578 95.0141 70.4246C95.0141 70.4246 96.2681 72.2597 96.1242 72.5829Z" fill="black"/>
<path d="M90.8303 77.4501L84.9162 70.5951C84.57 70.3724 84.1744 70.2399 83.7648 70.2095C83.3552 70.1791 82.9445 70.2517 82.5696 70.4207C81.2457 70.9985 79.6009 71.4666 79.1713 71.7545C78.7416 72.0424 77.1319 73.8247 77.1319 73.8247L81.9261 86.4595L79.8148 94.7816C79.8148 94.7816 80.1375 99.0336 79.3152 100.583C78.8144 101.573 78.5798 102.679 78.6347 103.789C78.6347 103.789 78.8855 105.844 78.5997 106.923C78.4327 107.644 78.4201 108.393 78.5628 109.12C78.5628 109.12 95.5526 109.841 97.697 109.12C98.9386 108.695 100.222 108.406 101.525 108.257C101.525 108.257 101.136 101.049 100.747 99.3196C100.359 97.5902 101.07 90.9976 101.07 90.9976L100.605 83.9349L103.393 76.6882C103.393 76.6882 101.883 72.0424 100.308 71.5743C100.308 71.5743 97.4482 70.8888 96.8397 70.5657C96.2311 70.2425 94.4425 69.9526 94.4425 69.9526L93.5035 70.2699L90.8303 77.4501Z" fill="#FF69B4"/>
<path opacity="0.1" d="M99.0817 83.6965L86.6369 82.844C86.3219 82.8224 86.0492 83.0621 86.0278 83.3794L84.6917 103.174C84.6703 103.491 84.9083 103.766 85.2232 103.788L97.6681 104.64C97.9831 104.662 98.2557 104.422 98.2771 104.105L99.6132 84.3101C99.6346 83.9928 99.3967 83.7181 99.0817 83.6965Z" fill="black"/>
<path d="M99.5102 83.2666L87.0653 82.4141C86.7504 82.3925 86.4777 82.6322 86.4563 82.9495L85.1202 102.744C85.0988 103.061 85.3368 103.336 85.6517 103.358L98.0966 104.21C98.4115 104.232 98.6842 103.992 98.7056 103.675L100.042 83.8801C100.063 83.5628 99.8252 83.2881 99.5102 83.2666Z" fill="#3F3D56"/>
<path d="M99.0996 84.8181L87.2637 84.0073L86.0474 102.028L97.8833 102.839L99.0996 84.8181Z" fill="white"/>
<path opacity="0.1" d="M98.0383 89.4179L88.3701 88.7361L88.1815 91.4507L97.8497 92.1325L98.0383 89.4179Z" fill="black"/>
<path opacity="0.1" d="M97.6885 100.205L96.1542 100.1L96.0587 101.515L97.593 101.62L97.6885 100.205Z" fill="black"/>
<path opacity="0.1" d="M96.1751 96.7912L88.3214 96.2532L88.2259 97.6679L96.0796 98.2059L96.1751 96.7912Z" fill="black"/>
<path d="M97.6346 84.1444L89.457 83.5842L89.3102 85.7591L97.4878 86.3193L97.6346 84.1444Z" fill="#3F3D56"/>
<path opacity="0.1" d="M97.6346 84.1444L89.457 83.5842L89.3102 85.7591L97.4878 86.3193L97.6346 84.1444Z" fill="black"/>
<path opacity="0.1" d="M91.5458 108.505C91.5458 108.505 91.4738 119.172 88.684 125.296C88.684 125.296 92.0474 117.225 92.0474 116.902C92.0474 116.579 93.906 113.19 93.4083 112.182C92.9106 111.173 91.5458 108.505 91.5458 108.505Z" fill="black"/>
<path opacity="0.1" d="M91.6974 59.0709C91.5905 58.1268 91.82 57.1752 92.3448 56.3856C92.2824 57.177 92.5045 57.9645 92.9707 58.6046C93.4368 59.2446 94.1158 59.6944 94.8838 59.8719C94.8183 59.8146 94.7715 59.7387 94.7497 59.6541C94.7278 59.5695 94.7319 59.4802 94.7614 59.3979C95.1599 59.8523 95.4651 60.3909 95.9162 60.7905C96.3672 61.1901 97.0438 61.429 97.5745 61.145C98.2958 60.7533 98.3036 59.7211 98.117 58.9181C97.7164 57.208 96.8947 55.627 95.7276 54.3213C95.4364 53.9266 95.0585 53.6052 94.6233 53.3823C94.1882 53.1594 93.7078 53.041 93.2197 53.0365C92.1154 52.9503 90.9683 53.0482 89.9788 53.5477C89.4219 53.8538 88.9003 54.221 88.4235 54.6425L85.7017 56.8792C85.4398 57.0693 85.2156 57.3071 85.0407 57.5804C84.9239 57.8088 84.8538 58.0586 84.8346 58.3148C84.7651 59.0474 84.8996 59.7849 85.2231 60.4447C85.5466 61.1045 86.0463 61.6603 86.666 62.0499C86.6529 61.4709 86.8109 60.9011 87.1201 60.4128C87.4292 59.9246 87.8754 59.54 88.4021 59.3079C88.4846 59.3773 88.5514 59.4638 88.598 59.5614C88.6446 59.659 88.6699 59.7656 88.6723 59.8739L89.2458 58.8437C89.3311 58.6562 89.4656 58.4957 89.6347 58.3795C89.9885 58.1836 90.4298 58.4147 90.7312 58.6909C91.0325 58.9671 91.3261 59.3118 91.7305 59.3549L91.746 57.8213" fill="black"/>
<path d="M91.6974 58.8553C91.5903 57.9105 91.8197 56.9582 92.3448 56.1681C92.1699 57.735 93.3422 59.3527 94.8858 59.6544C94.8202 59.5975 94.7734 59.5219 94.7515 59.4376C94.7296 59.3533 94.7337 59.2642 94.7633 59.1823C95.1619 59.6367 95.4671 60.1734 95.9182 60.5749C96.3692 60.9764 97.0458 61.2134 97.5765 60.9274C98.2978 60.5357 98.3056 59.5036 98.1189 58.7025C97.7184 56.9924 96.8967 55.4114 95.7296 54.1057C95.3675 53.661 94.9111 53.3036 94.394 53.0598C94.0196 52.9203 93.6262 52.8397 93.2275 52.8209C92.1232 52.7347 90.9762 52.8307 89.9866 53.3301C89.4301 53.6376 88.9085 54.0054 88.4313 54.4269L85.7095 56.6636C85.4472 56.8532 85.2229 57.0911 85.0485 57.3648C84.9314 57.5931 84.8613 57.843 84.8424 58.0993C84.773 58.8315 84.9076 59.5687 85.2311 60.2281C85.5546 60.8876 86.0542 61.4431 86.6738 61.8323C86.6612 61.2534 86.8194 60.6839 87.1285 60.1957C87.4376 59.7076 87.8836 59.3228 88.4099 59.0903C88.4921 59.16 88.5587 59.2465 88.6053 59.3441C88.6518 59.4417 88.6774 59.5481 88.6801 59.6563L89.2517 58.63C89.3365 58.4422 89.471 58.2816 89.6405 58.1658C89.9944 57.97 90.4357 58.2011 90.737 58.4773C91.0384 58.7534 91.3319 59.0962 91.7363 59.1412L91.7519 57.6057" fill="#3F3D56"/>
<path d="M94.4075 95.2124C93.9079 94.9578 85.6453 96.2563 85.6453 96.2563C85.6453 96.2563 84.2844 95.8646 80.9949 95.3201C77.7054 94.7757 77.4954 91.5362 77.4954 91.5362L77.1358 85.0513L78.2459 84.072L83.0013 87.2057C83.0013 87.2057 83.0751 88.7902 83.0013 89.0762C82.9546 89.272 82.8302 89.5051 82.8418 89.6638C82.8454 89.7067 82.863 89.7473 82.8918 89.7792C82.9207 89.811 82.9591 89.8324 83.0013 89.84C83.324 89.9223 87.7216 90.6391 87.7216 90.6391C87.7216 90.6391 97.9148 89.936 100.456 93.3949C100.657 93.6487 100.809 93.9384 100.905 94.2488C101.535 96.6128 94.8605 95.4377 94.4075 95.2124Z" fill="#FBBEBE"/>
<path opacity="0.1" d="M100.911 94.2625C100.522 94.4368 100.281 94.5622 100.281 94.5622C100.281 94.5622 96.6336 94.4545 94.5845 93.7063C92.5353 92.9581 90.0449 93.0913 90.0449 93.0913C90.0449 93.0913 81.5062 91.6106 82.8302 89.6775C82.8338 89.7205 82.8514 89.761 82.8802 89.7929C82.909 89.8248 82.9475 89.8462 82.9896 89.8538C83.3123 89.936 87.71 90.6529 87.71 90.6529C87.71 90.6529 97.9031 89.9497 100.444 93.4086C100.652 93.6611 100.81 93.9508 100.911 94.2625Z" fill="black"/>
<path d="M104.457 82.8518C104.457 82.8518 104.958 86.4184 104.993 86.7082C105.028 86.9981 105.209 90.4903 104.993 90.8879C104.778 91.2854 104.457 91.9318 104.457 91.9318C104.457 91.9318 104.815 92.6878 103.384 92.9777C101.953 93.2675 100.273 94.1293 100.273 94.1293C100.273 94.1293 96.6239 94.0216 94.5864 93.2656C92.5489 92.5096 90.0449 92.6525 90.0449 92.6525C90.0449 92.6525 79.2063 90.7782 83.8567 88.4906C88.5071 86.2029 91.7966 89.3014 91.7966 89.3014L96.9816 88.9782C96.9816 88.9782 98.9141 87.7874 99.4506 87.8971C99.8295 87.9457 100.214 87.8831 100.559 87.7169L100.596 83.9329L104.457 82.8518Z" fill="#FBBEBE"/>
<path opacity="0.1" d="M78.1642 74.0971L77.1261 74.0422L73.9804 86.3813C73.9804 86.3813 77.3769 85.5156 78.8408 86.3813C80.3047 87.247 82.9896 87.4252 82.9896 87.4252L81.9884 77.5892L78.1642 74.0971Z" fill="black"/>
<path d="M78.1642 73.8795L77.1261 73.8247L73.9804 86.1637C73.9804 86.1637 77.3769 85.298 78.8408 86.1637C80.3047 87.0294 82.9896 87.2077 82.9896 87.2077L81.9884 77.3717L78.1642 73.8795Z" fill="#FF69B4"/>
<path opacity="0.1" d="M101.955 76.5825L103.384 76.9076C103.384 76.9076 107.033 82.1958 107.319 82.4916C107.604 82.7873 105.958 83.8626 105.279 83.8626C104.601 83.8626 101.274 84.2543 100.308 85.1591C99.3418 86.064 99.7442 81.5103 99.7442 81.4065C99.7442 81.3027 100.944 78.4295 100.944 78.4295L101.955 76.5825Z" fill="black"/>
<path d="M101.955 76.3669L103.384 76.6901C103.384 76.6901 107.033 81.9881 107.319 82.276C107.604 82.5639 105.958 83.647 105.279 83.647C104.601 83.647 101.274 84.0387 100.308 84.9436C99.3418 85.8484 99.7442 81.2947 99.7442 81.1909C99.7442 81.0871 100.952 78.2041 100.952 78.2041L101.955 76.3669Z" fill="#FF69B4"/>
<g opacity="0.1">
<path opacity="0.1" d="M92.3351 56.1858C92.3267 56.0356 92.3299 55.885 92.3448 55.7354C92.0488 56.1828 91.8452 56.6857 91.746 57.2141V57.6685C91.746 57.6685 91.746 57.6587 91.746 57.6528V57.7605C91.746 58.0778 91.746 58.3971 91.7363 58.7144H91.7091V58.8612C91.7091 58.8103 91.7091 58.7614 91.6994 58.7104C91.3105 58.6478 91.0325 58.3187 90.7428 58.0563C90.4532 57.7938 90.0002 57.5431 89.6463 57.7449C89.4768 57.8606 89.3423 58.0212 89.2575 58.209L88.6801 59.2353C88.6776 59.1273 88.6521 59.0211 88.6055 58.9239C88.5589 58.8266 88.4922 58.7405 88.4099 58.6713C87.8832 58.9034 87.437 59.288 87.1278 59.7763C86.8187 60.2645 86.6606 60.8343 86.6738 61.4133C86.1426 61.078 85.6982 60.6202 85.3774 60.0776C85.0566 59.5351 84.8685 58.9235 84.8288 58.2933C84.795 58.997 84.9481 59.697 85.2725 60.3212C85.5968 60.9454 86.0805 61.4711 86.6738 61.8442C86.6612 61.2653 86.8194 60.6957 87.1285 60.2076C87.4376 59.7194 87.8835 59.3347 88.4099 59.1022C88.4921 59.1719 88.5587 59.2584 88.6052 59.356C88.6518 59.4535 88.6773 59.5599 88.6801 59.6682L89.2517 58.6419C89.3365 58.4541 89.471 58.2935 89.6405 58.1777C89.9943 57.9818 90.4357 58.213 90.737 58.4891C91.0384 58.7653 91.3319 59.108 91.7363 59.1531C91.7363 58.6517 91.7415 58.1516 91.7518 57.6528C91.8472 57.1295 92.0455 56.6307 92.3351 56.1858Z" fill="black"/>
<path opacity="0.1" d="M91.678 58.1581C91.6877 58.0249 91.7032 57.8918 91.7227 57.7664L91.7441 57.2258C91.6856 57.5329 91.6634 57.8458 91.678 58.1581Z" fill="black"/>
<path opacity="0.1" d="M97.5765 60.4946C97.0457 60.7806 96.3692 60.5416 95.9182 60.1421C95.4671 59.7425 95.1619 59.2039 94.7633 58.7495C94.7339 58.8317 94.7298 58.921 94.7516 59.0056C94.7735 59.0902 94.8203 59.1662 94.8858 59.2235C94.8469 59.2235 94.81 59.2039 94.7731 59.1941C95.1619 59.6446 95.471 60.1734 95.9182 60.5651C96.3653 60.9569 97.0457 61.2036 97.5765 60.9177C98.1072 60.6317 98.2589 59.9619 98.2122 59.3097C98.1772 59.8228 97.9945 60.2674 97.5765 60.4946Z" fill="black"/>
<path opacity="0.1" d="M94.7614 59.1902C94.1112 59.0117 93.5308 58.6373 93.0978 58.1171C92.6649 57.5969 92.4001 56.9558 92.339 56.2798C92.2282 57.8173 93.3791 59.3587 94.8858 59.6544C94.8216 59.5982 94.7755 59.5241 94.7534 59.4414C94.7312 59.3587 94.734 59.2713 94.7614 59.1902Z" fill="black"/>
</g>
<path d="M188.127 91.2013C188.127 91.2013 187.361 91.0936 187.361 89.9713C187.361 88.8491 186.813 86.7475 186.813 86.7475C186.813 86.7475 186.338 83.0908 185.683 82.5111C185.028 81.9314 184.186 78.5274 184.186 78.5274C184.186 78.5274 184.042 76.6804 183.749 76.2828C183.455 75.8852 183.058 74.9118 182.473 73.5232C181.888 72.1346 179.454 71.1827 179.454 71.1827C179.454 71.1827 175.043 68.6052 173.793 67.765C173.678 67.6953 173.572 67.6139 173.474 67.5221C173.256 67.2361 172.307 67.2303 172.307 67.2303C172.208 66.5976 172.113 65.873 172.082 65.2168C172.082 65.1463 172.082 65.0758 172.082 65.0053C173.476 64.1752 174.526 62.8665 175.039 61.3193C175.062 61.2448 175.082 61.1685 175.103 61.0921C175.188 61.0656 175.267 61.0211 175.334 60.9617C175.401 60.9023 175.455 60.8292 175.492 60.7474C175.603 60.4947 175.607 60.2009 175.747 59.9639C175.91 59.6858 176.221 59.537 176.466 59.3294C177.084 58.7986 177.244 57.9074 177.214 57.0985C177.195 56.4404 177.09 55.7784 177.131 55.1262C177.131 55.0714 177.131 55.0166 177.142 54.9617C177.154 54.8657 177.168 54.7659 177.185 54.6719C177.28 54.1861 177.489 53.7278 177.605 53.246C177.722 52.7642 177.733 52.2217 177.461 51.8064C177.063 51.1973 176.233 51.0759 175.504 51.023C174.677 50.9525 173.948 51.0426 173.41 50.3512C173.163 49.9901 172.884 49.6519 172.578 49.3406C172.469 49.2388 171.411 48.5865 171.411 48.5454C170.376 48.0607 169.202 47.9696 168.106 48.2888C167.556 48.4494 167.041 48.7119 166.483 48.8431C165.285 49.1291 163.905 48.8196 162.886 49.511C162.318 49.9027 161.978 50.5275 161.659 51.1327C161.4 51.6315 161.137 52.1309 160.87 52.631C160.438 53.4517 160.003 54.286 159.822 55.1948C159.784 55.3933 159.76 55.5942 159.75 55.7961C159.75 55.8685 159.75 55.941 159.75 56.0135C159.75 56.0448 159.75 56.0762 159.75 56.1075C159.75 56.1741 159.75 56.2407 159.762 56.3033C159.773 56.366 159.762 56.3836 159.775 56.4248C159.789 56.4659 159.793 56.558 159.805 56.6206C159.816 56.6833 159.84 56.795 159.863 56.8792C159.863 56.9164 159.886 56.9516 159.898 56.9888C159.91 57.0261 159.941 57.1201 159.966 57.1847C159.991 57.2493 159.993 57.2533 160.009 57.2866C160.038 57.3551 160.073 57.4217 160.108 57.4824C160.123 57.5079 160.135 57.5333 160.151 57.5588C160.204 57.6505 160.264 57.7382 160.33 57.8212C160.744 58.3442 161.358 58.6771 161.811 59.1668C161.811 59.1864 161.811 59.206 161.811 59.2256C161.811 59.2784 161.811 59.3313 161.811 59.3861C161.839 60.4783 162.131 61.547 162.662 62.4994C163.193 63.4518 163.948 64.2589 164.859 64.8506C164.859 64.925 164.869 65.0014 164.873 65.0778C164.911 65.6585 164.904 66.2413 164.852 66.8209C164.772 66.7272 164.673 66.6525 164.561 66.6024C164.45 66.5522 164.328 66.5279 164.206 66.5311C164.123 66.5269 164.039 66.5341 163.957 66.5526L163.94 66.5389V66.5565C163.512 66.6623 162.985 67.1108 162.482 68.3858C162.482 68.3858 160.95 70.125 159.783 70.0526C158.617 69.9801 155.664 71.8643 155.664 71.8643C155.664 71.8643 152.782 73.7465 152.164 75.6659C151.819 76.7545 151.404 77.8196 150.922 78.8544L147.35 86.2422L146.695 92.1179C146.695 92.1179 147.059 94.7248 146.987 95.1244C146.915 95.5239 148.482 99.1081 148.482 99.1081C148.482 99.1081 153.659 108.27 155.774 108.74L155.926 108.635C156.017 108.681 156.113 108.716 156.212 108.74L156.647 108.433C156.674 108.777 156.663 109.123 156.612 109.465C156.323 110.372 156.723 116.275 157.232 117.433C157.742 118.59 157.561 133.769 157.561 133.769L157.489 135.107C157.489 135.107 157.489 135.15 157.507 135.224L157.489 135.542L157.542 135.569C157.596 135.995 157.578 136.426 157.489 136.846C157.306 137.434 157.232 139.093 157.232 139.093C157.232 139.093 155.774 148.47 156.466 150.354C157.159 152.239 157.744 154.303 157.744 154.303C157.744 154.303 158.473 156.653 157.779 157.045C157.085 157.437 155.119 158.132 155.52 159.109C155.889 160.014 157.291 162.439 157.499 162.793L157.481 162.989L157.196 166.109C157.242 166.521 157.353 166.923 157.524 167.3C157.837 167.982 158.444 168.685 159.602 168.608C159.797 168.595 160.02 168.573 160.24 168.544C162.357 168.256 164.962 167.304 164.962 167.304C164.827 167.218 164.704 167.114 164.595 166.996C164.491 166.895 164.408 166.773 164.353 166.638C164.297 166.504 164.269 166.359 164.27 166.213C164.301 165.643 163.246 162.938 162.981 162.27L162.921 162.122C162.921 162.122 165.328 159.585 164.927 157.341C164.927 157.341 162.264 155.774 163.141 154.912C164.018 154.05 165.585 151.582 165.585 151.582C165.585 151.582 165.656 142.348 165.585 140.971C165.51 140.013 165.555 139.05 165.719 138.103C165.748 137.962 165.783 137.823 165.82 137.684C167.033 137.869 168.259 137.962 169.486 137.964C169.935 137.964 170.388 137.955 170.847 137.937C170.847 138.068 170.853 138.209 170.865 138.36C170.966 140.648 171.154 144.661 171.308 146.151C171.526 148.286 172.729 154.046 172.729 154.046C172.729 154.046 170.433 155.529 173.13 159.19C173.13 159.19 173.13 160.514 172.951 160.707C172.76 161.336 172.606 161.974 172.49 162.621C172.377 163.308 172.331 164.008 172.513 164.368C172.951 165.234 175.575 165.163 175.575 165.163C175.597 165.158 175.618 165.155 175.64 165.153C176.135 165.101 176.636 165.148 177.113 165.293C177.59 165.437 178.034 165.676 178.418 165.996C179.415 166.803 183.198 166.45 185.25 166.191C186.052 166.088 186.589 165.996 186.589 165.996C186.615 165.904 186.624 165.808 186.616 165.714C186.595 165.206 186.2 164.094 183.525 163.101C183.525 163.101 181.009 161.397 181.044 159.912H180.988H180.698C180.881 159.906 181.009 159.906 181.009 159.906C181.009 159.906 180.024 156.285 180.426 155.989C180.829 155.693 179.623 151.68 179.623 151.68C179.623 151.68 178.933 144.943 178.894 144.473C178.897 144.068 178.958 143.665 179.077 143.278L178.894 139.582C178.894 139.582 178.859 138.354 178.894 137.955C178.89 137.608 178.863 137.262 178.812 136.919C178.795 136.781 178.777 136.638 178.758 136.497C179.701 136.257 180.313 136.035 180.313 136.035L180.204 123.177C181.005 121.61 181.153 118.171 181.149 115.734C181.149 114.168 181.079 113.008 181.079 113.008L182.174 111.208C182.174 111.208 182.427 109.054 182.026 108.582C181.849 108.368 181.929 108.147 182.075 107.965C182.151 107.901 182.233 107.844 182.318 107.792C182.308 107.779 182.3 107.764 182.292 107.749C182.369 107.685 182.45 107.627 182.535 107.575C182.535 107.575 182.147 106.968 182.495 106.711C182.821 106.935 183.113 107.113 183.335 107.24C183.319 107.383 183.303 107.465 183.303 107.465L183.397 107.27C183.611 107.391 183.741 107.465 183.741 107.465C183.741 107.465 185.456 104.024 185.419 103.519C185.382 103.014 186.585 100.875 186.585 100.875C186.585 100.875 186.731 99.7505 187.388 99.2805C188.045 98.8104 187.897 95.4044 187.897 95.4044C187.897 95.4044 188.08 93.63 188.518 92.9072C188.955 92.1845 188.127 91.2013 188.127 91.2013ZM155.318 89.6913L155.351 90.5119C155.156 90.1966 155.016 89.9713 155.016 89.9713L155.318 89.6913Z" fill="url(#paint1_linear_8_4341)"/>
<path d="M183.842 105.977L183.422 107.779C183.422 107.779 180.059 106.045 179.454 103.852C178.849 101.658 180.467 100.822 180.467 100.822L183.603 102.158L183.842 105.977Z" fill="white"/>
<path opacity="0.1" d="M183.842 105.977L183.422 107.779C183.422 107.779 180.059 106.045 179.454 103.852C178.849 101.658 180.467 100.822 180.467 100.822L183.603 102.158L183.842 105.977Z" fill="black"/>
<path d="M164.966 167.302C164.966 167.302 161.856 168.454 159.717 168.598C158.582 168.675 157.985 167.974 157.678 167.298C157.511 166.925 157.402 166.529 157.355 166.123L157.637 163.018L157.785 161.367L162.328 160.177L162.972 162.161L163.032 162.309C163.289 162.973 164.327 165.664 164.296 166.227C164.293 166.372 164.32 166.516 164.374 166.651C164.429 166.786 164.51 166.908 164.612 167.01C164.718 167.122 164.837 167.22 164.966 167.302Z" fill="white"/>
<path d="M186.204 165.723C186.212 165.818 186.203 165.914 186.177 166.005C186.177 166.005 179.524 167.122 178.163 166.005C177.781 165.679 177.335 165.437 176.854 165.294C176.373 165.152 175.868 165.112 175.371 165.177C175.371 165.177 172.797 165.247 172.368 164.393C172.189 164.035 172.235 163.34 172.346 162.656C172.459 162.013 172.61 161.378 172.797 160.752L172.9 160.67L173.513 160.175L180.683 159.961H180.737C180.702 161.438 183.169 163.132 183.169 163.132C185.796 164.111 186.183 165.218 186.204 165.723Z" fill="white"/>
<path opacity="0.1" d="M186.206 165.723C186.213 165.818 186.203 165.914 186.177 166.005C186.177 166.005 179.524 167.122 178.165 166.005C177.782 165.679 177.336 165.437 176.855 165.294C176.374 165.151 175.869 165.112 175.371 165.177C175.371 165.177 172.795 165.247 172.366 164.394C172.189 164.035 172.234 163.34 172.344 162.654C173.336 162.754 174.901 163.003 175.515 163.598C176.445 164.499 178.019 165.4 178.984 165.473C179.746 165.52 184.277 165.665 186.206 165.723Z" fill="black"/>
<path opacity="0.1" d="M164.966 167.302C164.966 167.302 161.856 168.454 159.717 168.598C158.582 168.675 157.985 167.974 157.678 167.298C158.471 167.566 159.569 167.846 160.147 167.59C160.831 167.282 163.257 167.086 164.618 167.002C164.721 167.117 164.838 167.218 164.966 167.302Z" fill="black"/>
<path d="M169.582 74.4868C167.015 73.4821 163.714 70.1623 164.539 68.6111C164.721 68.2193 164.83 67.797 164.859 67.3654C164.912 66.7794 164.92 66.19 164.883 65.6027C164.825 64.6402 164.71 63.6821 164.539 62.7334C164.539 62.7334 172.55 62.9155 172.084 64.1044C171.948 64.455 171.924 65.0602 171.963 65.7359C172.002 66.4116 172.097 67.1813 172.199 67.8296C172.337 68.7169 172.478 69.3965 172.478 69.3965C172.478 69.3965 171.987 70.0879 171.701 70.1251C171.415 70.1623 173.264 75.9264 169.582 74.4868Z" fill="#CF6F80"/>
<path opacity="0.1" d="M163.024 162.3L162.964 162.366C160.569 159.448 157.672 163.087 157.672 163.087L157.629 163.009L157.777 161.358L162.32 160.167L162.964 162.151L163.024 162.3Z" fill="black"/>
<path opacity="0.1" d="M180.741 160.167C180.741 160.167 178.991 160.132 178.058 160.962C177.125 161.792 172.615 161.14 172.809 160.962C172.866 160.872 172.9 160.769 172.91 160.662L173.522 160.167L180.692 159.953C180.72 160.09 180.741 160.167 180.741 160.167Z" fill="black"/>
<path d="M166.004 137.25C165.874 137.574 165.775 137.911 165.709 138.254C165.547 139.196 165.502 140.154 165.575 141.106C165.647 142.477 165.575 151.665 165.575 151.665C165.575 151.665 164.037 154.115 163.178 154.979C162.318 155.842 164.927 157.394 164.927 157.394C165.316 159.628 162.96 162.151 162.96 162.151C160.565 159.233 157.668 162.87 157.668 162.87C157.668 162.87 156.093 160.128 155.701 159.148C155.308 158.169 157.238 157.493 157.917 157.094C158.595 156.694 157.882 154.352 157.882 154.352C157.882 154.352 157.31 152.297 156.63 150.423C155.949 148.549 157.38 139.22 157.38 139.22C157.38 139.22 157.454 137.561 157.631 136.983C157.719 136.566 157.737 136.137 157.684 135.714C157.672 135.571 157.658 135.454 157.649 135.371C157.639 135.289 157.631 135.254 157.631 135.254L157.658 135.207L158.63 133.381C158.63 133.381 166.471 136.1 166.004 137.25Z" fill="#FF69B4"/>
<path d="M180.741 159.951C180.741 159.951 178.991 159.914 178.058 160.735C177.125 161.556 172.615 160.915 172.809 160.735C173.003 160.555 172.986 159.223 172.986 159.223C170.34 155.582 172.597 154.105 172.597 154.105C172.597 154.105 171.417 148.376 171.203 146.251C171.053 144.769 170.869 140.767 170.77 138.501C170.727 137.522 170.702 136.846 170.702 136.846L172.844 136.417L173.122 136.362L178.336 135.307C178.336 135.307 178.48 136.286 178.577 137.087C178.626 137.429 178.653 137.774 178.657 138.119C178.624 138.511 178.657 139.739 178.657 139.739L178.836 143.413C178.72 143.799 178.66 144.199 178.657 144.602C178.694 145.072 179.372 151.772 179.372 151.772C179.372 151.772 180.553 155.772 180.15 156.06C179.748 156.348 180.741 159.951 180.741 159.951Z" fill="#FF69B4"/>
<path opacity="0.1" d="M172.084 64.1103C171.948 64.4608 171.924 65.066 171.963 65.7418C170.89 66.3928 169.656 66.7256 168.404 66.7021C167.151 66.6785 165.931 66.2995 164.883 65.6086C164.825 64.6461 164.71 63.6879 164.539 62.7393C164.539 62.7393 172.55 62.9214 172.084 64.1103Z" fill="black"/>
<path opacity="0.1" d="M169.582 74.4869C167.015 73.4821 163.714 70.1623 164.539 68.6111C164.721 68.2194 164.83 67.7971 164.859 67.3655L168.372 70.2759L170.546 72.0719L172.199 67.8355C172.337 68.7228 172.478 69.4024 172.478 69.4024C172.478 69.4024 171.987 70.0938 171.701 70.131C171.415 70.1682 173.264 75.9264 169.582 74.4869Z" fill="black"/>
<path d="M178.667 87.3487L175.733 136.999L171.907 137.251L161.998 108.462L163.623 74.2831L163.967 67.0618L168.372 70.7067L170.546 72.5027L172.247 68.1409L175.41 70.9182L178.667 87.3487Z" fill="#FF69B4"/>
<path opacity="0.1" d="M166.004 137.25C165.874 137.574 165.775 137.911 165.709 138.254C162.922 137.822 160.216 136.971 157.68 135.73L157.627 135.702L157.645 135.387V135.222L158.617 133.397C158.617 133.397 166.471 136.1 166.004 137.25Z" fill="black"/>
<path opacity="0.1" d="M172.908 138.262C172.196 138.385 171.479 138.468 170.758 138.511C170.715 137.531 170.69 136.856 170.69 136.856L172.844 136.417L172.908 138.262Z" fill="black"/>
<path opacity="0.1" d="M178.585 137.087C177.203 137.449 175.066 137.857 173.157 137.602L173.13 136.362L178.344 135.307C178.344 135.307 178.482 136.278 178.585 137.087Z" fill="black"/>
<path opacity="0.1" d="M170.76 81.3672C169.902 81.0069 165.361 75.7833 165.361 75.7833V74.5945C165.196 74.2028 164.212 74.4417 163.417 74.7159L163.759 67.4946L164.148 67.8197C164.997 70.8477 170.667 81.1929 170.76 81.3672Z" fill="black"/>
<path opacity="0.1" d="M157.851 106.985C157.958 106.985 163.394 106.41 163.394 106.41C163.394 106.41 166.685 112.932 166.469 114.516C166.253 116.101 165.863 117.507 164.539 117.258C163.215 117.009 157.413 117.454 157.413 117.454L157.851 106.985Z" fill="black"/>
<path d="M161.731 103.499C161.731 103.499 166.72 106.202 166.827 107.025C166.934 107.847 164.288 106.664 163.716 106.519C163.34 106.429 162.957 106.369 162.571 106.339L158.759 106.443L161.731 103.499Z" fill="#CF6F80"/>
<path opacity="0.1" d="M169.366 81.7041C169.656 81.7041 169.891 81.4674 169.891 81.1753C169.891 80.8832 169.656 80.6465 169.366 80.6465C169.076 80.6465 168.841 80.8832 168.841 81.1753C168.841 81.4674 169.076 81.7041 169.366 81.7041Z" fill="black"/>
<path d="M169.366 81.4888C169.656 81.4888 169.891 81.252 169.891 80.96C169.891 80.6679 169.656 80.4312 169.366 80.4312C169.076 80.4312 168.841 80.6679 168.841 80.96C168.841 81.252 169.076 81.4888 169.366 81.4888Z" fill="#3F3D56"/>
<path opacity="0.1" d="M170.332 104.596C170.622 104.596 170.857 104.359 170.857 104.067C170.857 103.775 170.622 103.538 170.332 103.538C170.042 103.538 169.807 103.775 169.807 104.067C169.807 104.359 170.042 104.596 170.332 104.596Z" fill="black"/>
<path d="M170.332 104.379C170.622 104.379 170.857 104.142 170.857 103.85C170.857 103.558 170.622 103.321 170.332 103.321C170.042 103.321 169.807 103.558 169.807 103.85C169.807 104.142 170.042 104.379 170.332 104.379Z" fill="#3F3D56"/>
<path opacity="0.1" d="M169.891 93.1502C170.181 93.1502 170.416 92.9134 170.416 92.6213C170.416 92.3293 170.181 92.0925 169.891 92.0925C169.601 92.0925 169.366 92.3293 169.366 92.6213C169.366 92.9134 169.601 93.1502 169.891 93.1502Z" fill="black"/>
<path d="M169.891 92.9346C170.181 92.9346 170.416 92.6978 170.416 92.4058C170.416 92.1137 170.181 91.877 169.891 91.877C169.601 91.877 169.366 92.1137 169.366 92.4058C169.366 92.6978 169.601 92.9346 169.891 92.9346Z" fill="#3F3D56"/>
<path opacity="0.1" d="M175.397 75.141L175.912 76.6491L173.208 79.3911C173.268 76.5688 173.336 73.9071 173.336 73.9071L172.399 68.1743C172.399 68.1743 173.336 68.1743 173.552 68.4661C173.647 68.5574 173.751 68.6381 173.863 68.707L176.161 75.3838L175.397 75.141Z" fill="black"/>
<path opacity="0.1" d="M175.177 59.7858C175.178 60.4915 175.067 61.1929 174.85 61.8638C174.814 61.87 174.776 61.8686 174.74 61.8599C174.704 61.8511 174.67 61.8352 174.64 61.8129C174.588 60.0502 173.729 58.3932 172.669 56.985C172.371 56.5602 172.01 56.1838 171.6 55.8686C171.184 55.5542 170.667 55.4069 170.149 55.4553C169.566 55.5356 169.051 55.9352 168.462 55.9861C167.684 56.0507 166.988 55.5082 166.216 55.4828C165.903 55.4854 165.593 55.5556 165.308 55.6887C165.024 55.8218 164.77 56.0147 164.566 56.2544C164.16 56.7367 163.859 57.2991 163.681 57.9055C163.376 58.8257 163.209 59.7871 163.187 60.7572C163.178 61.3056 163.125 61.9931 162.62 62.1929C162.658 61.7898 162.613 61.3832 162.486 60.9988C162.36 60.6144 162.156 60.2607 161.887 59.9601L161.875 59.9464C161.875 59.8915 161.875 59.8406 161.875 59.7858C161.875 58.0082 162.576 56.3035 163.824 55.0465C165.071 53.7896 166.764 53.0835 168.528 53.0835C170.292 53.0835 171.985 53.7896 173.232 55.0465C174.48 56.3035 175.181 58.0082 175.181 59.7858H175.177Z" fill="black"/>
<path opacity="0.1" d="M150.152 90.4473L148.122 86.6653L147.479 92.5019C147.479 92.5019 147.836 95.095 147.765 95.4926C147.693 95.8902 149.23 99.4548 149.23 99.4548C149.23 99.4548 154.31 108.572 156.385 109.04L163.384 103.995L161.525 101.617C161.525 101.617 160.882 101.364 160.72 101.617C160.72 101.617 157.267 95.6356 156.912 95.2047C156.556 94.7738 156.624 93.9061 156.624 93.9061C156.624 93.9061 156.087 93.3303 156.266 92.7898C156.445 92.2492 155.24 90.3768 155.24 90.3768L156.348 89.3329L150.152 90.4473Z" fill="black"/>
<path opacity="0.1" d="M181.527 109.105C181.915 109.581 181.67 111.719 181.67 111.719L180.597 113.508C180.597 113.508 180.661 114.663 180.665 116.222L178.861 116.79C178.698 116.841 178.525 116.853 178.356 116.823C178.188 116.793 178.029 116.723 177.893 116.619C177.756 116.515 177.647 116.379 177.573 116.224C177.5 116.068 177.464 115.897 177.469 115.725L177.782 105.618L181.991 107.238C181.633 107.489 182.026 108.104 182.026 108.104C182.026 108.104 181.134 108.629 181.527 109.105Z" fill="black"/>
<path d="M183.136 104.067C183.136 104.067 182.85 105.906 182.135 106.014C181.42 106.122 181.099 108.989 180.385 108.889C179.672 108.789 180.144 106.222 180.169 105.724C180.195 105.227 179.392 103.166 179.991 102.698C180.589 102.23 182.495 102.698 182.495 102.698L183.136 104.067Z" fill="#CF6F80"/>
<path opacity="0.1" d="M184.649 89.9066L185.996 87.1646C185.996 87.1646 186.535 89.2544 186.535 90.3707C186.535 91.4871 187.285 91.5968 187.285 91.5968C187.285 91.5968 188.107 92.5761 187.674 93.291C187.24 94.0059 187.067 95.7764 187.067 95.7764C187.067 95.7764 187.209 99.1628 186.566 99.6309C185.922 100.099 185.778 101.217 185.778 101.217C185.778 101.217 184.598 103.342 184.635 103.848C184.672 104.353 182.99 107.775 182.99 107.775C182.99 107.775 183.813 103.523 179.021 101.685C179.021 101.685 178.984 100.244 179.341 99.8483C179.699 99.4527 180.257 99.2607 179.907 97.2708C179.557 95.2809 179.806 92.8816 179.806 92.4018C179.806 91.9219 180.879 88.9312 180.879 88.9312L184.649 89.9066Z" fill="black"/>
<path opacity="0.1" d="M159.219 157.844C159.219 157.844 161.097 156.655 162.33 157.519C163.563 158.382 159.219 157.844 159.219 157.844Z" fill="black"/>
<path opacity="0.1" d="M173.816 154.168C173.816 154.168 175.478 153.952 176.874 155.466C178.27 156.98 173.816 154.168 173.816 154.168Z" fill="black"/>
<path opacity="0.1" d="M25.8046 164.301C36.2669 164.301 44.7483 162.929 44.7483 161.236C44.7483 159.543 36.2669 158.171 25.8046 158.171C15.3423 158.171 6.86086 159.543 6.86086 161.236C6.86086 162.929 15.3423 164.301 25.8046 164.301Z" fill="#FF69B4"/>
<path d="M26.4151 102.516H25.1961V130.165H26.4151V102.516Z" fill="#535461"/>
<path d="M34.0769 130.083L33.9992 131.329L33.8922 133.091L33.8475 133.824L33.7386 135.587L33.692 136.319L33.5851 138.082L32.3544 158.073C32.3019 158.933 31.9258 159.741 31.3026 160.331C30.6794 160.921 29.8562 161.25 29.0008 161.25H22.6104C21.7526 161.25 20.9272 160.92 20.3036 160.327C19.68 159.733 19.3054 158.922 19.2567 158.059L18.0261 138.068L17.9192 136.306L17.8744 135.573L17.7636 133.81L17.7189 133.078L17.612 131.315L17.5342 130.069C17.5208 129.831 17.5557 129.592 17.6368 129.367C17.718 129.142 17.8437 128.936 18.0063 128.762C18.1689 128.588 18.365 128.449 18.5826 128.353C18.8003 128.258 19.0349 128.208 19.2723 128.207H32.3408C32.5792 128.208 32.8149 128.259 33.0333 128.355C33.2517 128.451 33.4482 128.592 33.6107 128.768C33.7733 128.943 33.8985 129.151 33.9787 129.377C34.0589 129.603 34.0923 129.843 34.0769 130.083Z" fill="#3F3D56"/>
<path d="M33.9992 131.327L33.8903 133.085H17.7189L17.6101 131.327H33.9992Z" fill="#9D9CB5"/>
<path d="M33.8456 133.818L33.7386 135.577H17.8725L17.7636 133.818H33.8456Z" fill="#9D9CB5"/>
<path d="M33.692 136.311L33.585 138.068H18.0261L17.9172 136.311H33.692Z" fill="#9D9CB5"/>
<path d="M15.7573 112.881C22.8573 118.055 25.8143 126.148 25.8143 126.148C25.8143 126.148 17.2601 125.852 10.1582 120.678C3.0562 115.503 0.0952759 107.416 0.0952759 107.416C0.0952759 107.416 8.6495 107.706 15.7573 112.881Z" fill="#FF69B4"/>
<path d="M0.0952759 107.416C0.0952759 107.416 8.97417 112.381 11.8223 116.492C14.6705 120.603 25.8066 126.152 25.8066 126.152" stroke="#535461" stroke-width="2" stroke-miterlimit="10"/>
<path d="M20.3318 102.457C24.1968 105.272 25.8066 109.677 25.8066 109.677C25.8066 109.677 21.1406 109.516 17.2854 106.702C13.4301 103.887 11.8107 99.4802 11.8107 99.4802C11.8107 99.4802 16.4688 99.6408 20.3318 102.457Z" fill="#FF69B4"/>
<path d="M11.8107 99.4802C11.8107 99.4802 16.6438 102.183 18.1952 104.42C19.7467 106.656 25.8066 109.677 25.8066 109.677" stroke="#535461" stroke-width="2" stroke-miterlimit="10"/>
<path d="M31.4212 109.453C26.9828 114.367 26.0437 120.79 26.0437 120.79C26.0437 120.79 32.3019 119.242 36.7365 114.326C41.1711 109.41 42.114 102.99 42.114 102.99C42.114 102.99 35.8597 104.539 31.4212 109.453Z" fill="#FF69B4"/>
<path d="M42.1179 102.992C42.1179 102.992 36.336 108.029 34.8663 111.5C33.3965 114.971 26.0437 120.79 26.0437 120.79" stroke="#535461" stroke-width="2" stroke-miterlimit="10"/>
</g>
<defs>
<linearGradient id="paint0_linear_8_4341" x1="90.5057" y1="163.651" x2="90.5057" y2="50.5138" gradientUnits="userSpaceOnUse">
<stop stop-color="#808080" stop-opacity="0.25"/>
<stop offset="0.54" stop-color="#808080" stop-opacity="0.12"/>
<stop offset="1" stop-color="#808080" stop-opacity="0.1"/>
</linearGradient>
<linearGradient id="paint1_linear_8_4341" x1="36993" y1="106028" x2="36993" y2="31871.8" gradientUnits="userSpaceOnUse">
<stop stop-color="#808080" stop-opacity="0.25"/>
<stop offset="0.54" stop-color="#808080" stop-opacity="0.12"/>
<stop offset="1" stop-color="#808080" stop-opacity="0.1"/>
</linearGradient>
<clipPath id="clip0_8_4341">
<rect width="227" height="169" fill="white"/>
</clipPath>
</defs>
</svg>
