<svg width="335" height="80" viewBox="0 0 335 80" fill="none" xmlns="http://www.w3.org/2000/svg">
<rect width="150" height="80" rx="16" fill="#FF69B4" fill-opacity="0.1"/>
<path fill-rule="evenodd" clip-rule="evenodd" d="M43.9061 30.5439H47.5773H50.581C52.4722 30.5439 54.8084 32.9914 54.1409 36.2176C53.5846 38.9988 51.3597 40.5562 48.6897 40.5562H45.9086L44.9073 45.0061H41.3474H41.0137L43.9061 30.5439ZM48.2448 37.2188C49.246 37.2188 50.2472 36.5513 50.4697 35.5501C50.6922 34.5489 50.136 33.8814 49.1347 33.8814H47.2435L46.4648 37.2188H48.2448ZM85.2013 30.548C85.1566 30.5453 85.112 30.5439 85.0677 30.5439H80.6178H78.5041L75.7562 44.283L75.5004 45.0061H75.6116H75.8341H79.394H79.5053L80.5065 40.5562H83.1765H83.2877C85.9576 40.5562 88.1826 38.9988 88.7388 36.2176C89.282 33.067 87.0668 30.6591 85.2013 30.548ZM84.9564 35.5501C84.7339 36.5513 83.7327 37.2188 82.7315 37.2188H80.9515L81.7302 33.8814H83.6214C84.6227 33.8814 85.1789 34.5489 84.9564 35.5501ZM104.202 30.5439H101.644L98.7511 45.0061H102.311L103.312 40.5562L103.249 40.4895L105.315 30.5439H104.202ZM94.0787 33.8814C92.8181 33.8814 91.7479 34.1353 90.8203 34.3555C90.52 34.4267 90.2346 34.4944 89.9625 34.5489L89.6288 37.1075C90.185 36.885 91.7425 36.4401 93.0775 36.3288C94.4124 36.3288 95.1912 36.5513 94.9687 37.775C94.4008 37.775 93.8597 37.7907 93.3477 37.8252L93.3 37.775C91.4312 37.9135 89.95 38.3102 88.9903 39.1261C88.3526 39.6389 87.9251 40.3239 87.7376 41.2237C86.96 45.667 91.8393 45.7845 93.7365 43.7913L93.7448 43.7834L93.5225 45.0061L93.5225 45.0061H97.0824L98.6399 37.775C98.8845 36.6741 98.6658 35.872 98.1701 35.2977C97.3329 34.2017 95.6594 33.8095 94.0787 33.8814ZM94.3012 41.3349C94.0787 42.2249 93.3 42.5587 92.41 42.6699C91.6313 42.6699 90.9638 42.2249 91.4088 41.3349C91.7981 40.7509 92.6134 40.6779 93.3328 40.6688C93.4356 40.6675 93.5364 40.6675 93.6337 40.6675H94.4517L94.4517 40.6675C94.431 40.6871 94.4113 40.7224 94.3933 40.7682C94.3393 40.9059 94.3012 41.1395 94.3012 41.3349ZM94.5237 40.6675C94.4993 40.6431 94.4749 40.6454 94.4517 40.6675H94.5237ZM56.0321 34.3873C56.9351 34.1606 58.0476 33.8814 59.3695 33.8814C60.7903 33.8168 62.3235 34.1271 63.2511 34.9865C63.9647 35.5699 64.3344 36.4589 64.0419 37.775L62.4844 45.0061H58.9245L59.1028 43.9363C58.3433 44.6405 57.213 45.0429 56.1496 45.0285C54.5898 45.0495 53.1401 44.189 53.1663 42.0874C53.1625 41.7888 53.1893 41.4642 53.2509 41.1125C53.6959 38.8875 55.6983 37.9975 58.702 37.775L58.7523 37.8279C59.2641 37.7915 59.8044 37.775 60.3707 37.775C60.5873 36.5839 59.8552 36.3414 58.5849 36.3293C57.2509 36.4414 55.5864 36.8854 55.1421 37.1075L55.2913 37.0004C55.1826 37.0396 55.0943 37.0758 55.0308 37.1075L55.3646 34.5489C55.5727 34.5026 55.7952 34.4468 56.0321 34.3873L56.0321 34.3873L56.0321 34.3873ZM57.812 42.6699C58.702 42.5587 59.4807 42.2249 59.7032 41.3349C59.7032 41.1395 59.7414 40.9059 59.7953 40.7682C59.8133 40.7223 59.8331 40.6871 59.8537 40.6675H59.9257C59.9014 40.6431 59.877 40.6454 59.8537 40.6675H59.0358C58.3683 40.6675 57.367 40.6675 56.9221 41.3349C56.3658 42.2249 57.0333 42.6699 57.812 42.6699ZM65.4881 33.8814H69.048L69.6043 40.1112L73.1642 33.8814H76.8354L68.3805 49.456H64.3756L66.9343 44.7836L65.4881 33.8814ZM106.093 32.8801V31.3227H105.537V31.1002H106.983V31.3227H106.427V32.8801H106.093ZM107.206 31.1002V32.7689H107.317V31.2114L107.873 32.7689H108.207L108.763 31.2114V32.7689H108.986V30.9889H108.652L108.207 32.2127C108.096 32.4352 108.096 32.4352 108.096 32.5464C108.096 32.5464 107.985 32.4352 107.985 32.3239L107.54 31.1002H107.206Z" fill="#7F7F7F"/>
<rect x="185" width="150" height="80" rx="16" fill="#FF69B4" fill-opacity="0.1"/>
<path fill-rule="evenodd" clip-rule="evenodd" d="M243.248 31.4648C243.876 30.6562 244.325 29.5781 244.19 28.5C243.248 28.5449 242.126 29.1289 241.453 29.8926C240.869 30.5664 240.331 31.6895 240.465 32.7227C241.542 32.8574 242.574 32.2734 243.248 31.4648ZM244.189 32.9922C243.259 32.9374 242.411 33.267 241.729 33.5325C241.293 33.7022 240.924 33.8457 240.644 33.8457C240.332 33.8457 239.943 33.6927 239.504 33.5198C238.933 33.2953 238.277 33.0371 237.592 33.0371C236.022 33.082 234.585 33.9355 233.778 35.373C232.162 38.2031 233.329 42.3809 234.944 44.6719C235.707 45.7949 236.65 47.0527 237.862 47.0078C238.406 46.9869 238.794 46.8193 239.194 46.6465C239.652 46.4488 240.126 46.2441 240.868 46.2441C241.568 46.2441 242.018 46.4371 242.452 46.6234C242.881 46.8076 243.295 46.9852 243.92 46.9629C245.177 46.918 245.984 45.8398 246.747 44.6719C247.645 43.3691 248.004 42.1113 248.004 42.0664C248 42.0626 247.98 42.0528 247.945 42.0363C247.568 41.8568 245.536 40.8885 245.536 38.3379C245.491 36.002 247.421 34.8789 247.51 34.834C246.478 33.2168 244.773 33.0371 244.189 32.9922ZM262.987 35.373C262.987 32.0938 260.699 29.8027 257.378 29.8027H251.005V46.7832H253.653V40.9883H257.288C260.654 40.9883 262.987 38.6973 262.987 35.373ZM256.66 38.7871H253.653H253.608V32.0488H256.66C258.949 32.0488 260.25 33.2617 260.25 35.418C260.25 37.5293 258.949 38.7871 256.66 38.7871ZM263.661 43.3242C263.661 41.168 265.322 39.8203 268.284 39.6406L271.694 39.4609V38.5176C271.694 37.125 270.752 36.3164 269.226 36.3164C267.745 36.3164 266.847 37.0352 266.623 38.1133H264.2C264.334 35.8672 266.264 34.2051 269.316 34.2051C272.323 34.2051 274.252 35.7773 274.252 38.293V46.8281H271.829V44.8066H271.784C271.066 46.1992 269.495 47.0527 267.88 47.0527C265.366 47.0527 263.661 45.5254 263.661 43.3242ZM271.693 41.2129V42.2012C271.693 43.8184 270.302 45.0312 268.507 45.0312C267.16 45.0312 266.263 44.3125 266.263 43.2344C266.263 42.1562 267.115 41.4824 268.641 41.3926L271.693 41.2129ZM276.496 51.4102V49.3438C276.675 49.3887 277.124 49.3887 277.304 49.3887C278.47 49.3887 279.099 48.8945 279.503 47.6367C279.503 47.5918 279.727 46.873 279.727 46.873L275.239 34.4746H277.977L281.118 44.582H281.163L284.305 34.4746H286.997L282.375 47.5469C281.298 50.5566 280.086 51.5 277.528 51.5C277.437 51.4771 277.229 51.4659 277.018 51.4545H277.018C276.814 51.4434 276.606 51.4322 276.496 51.4102Z" fill="#7F7F7F"/>
</svg>
