<svg width="20" height="20" viewBox="0 0 20 20" fill="none" xmlns="http://www.w3.org/2000/svg">
<path d="M15.9334 7.60001C15.6084 7.60001 15.3501 7.85834 15.3501 8.18334V9.50001C15.3501 12.45 12.9501 14.85 10.0001 14.85C7.05007 14.85 4.65007 12.45 4.65007 9.50001V8.17501C4.65007 7.85001 4.39173 7.59167 4.06673 7.59167C3.74173 7.59167 3.4834 7.85001 3.4834 8.17501V9.49168C3.4834 12.8833 6.09173 15.675 9.41673 15.975V17.75C9.41673 18.075 9.67507 18.3333 10.0001 18.3333C10.3251 18.3333 10.5834 18.075 10.5834 17.75V15.975C13.9001 15.6833 16.5167 12.8833 16.5167 9.49168V8.17501C16.5084 7.85834 16.2501 7.60001 15.9334 7.60001Z" fill="#FF69B4"/>
<path d="M10.0002 1.66663C7.96689 1.66663 6.31689 3.31663 6.31689 5.34996V9.61663C6.31689 11.65 7.96689 13.3 10.0002 13.3C12.0336 13.3 13.6836 11.65 13.6836 9.61663V5.34996C13.6836 3.31663 12.0336 1.66663 10.0002 1.66663ZM11.0919 7.45829C11.0336 7.67496 10.8419 7.81663 10.6252 7.81663C10.5836 7.81663 10.5419 7.80829 10.5002 7.79996C10.1752 7.70829 9.83356 7.70829 9.50856 7.79996C9.24189 7.87496 8.98356 7.71663 8.91689 7.45829C8.84189 7.19996 9.00023 6.93329 9.25856 6.86663C9.75023 6.73329 10.2669 6.73329 10.7586 6.86663C11.0086 6.93329 11.1586 7.19996 11.0919 7.45829ZM11.5336 5.84163C11.4586 6.04163 11.2752 6.15829 11.0752 6.15829C11.0169 6.15829 10.9669 6.14996 10.9086 6.13329C10.3252 5.91663 9.67523 5.91663 9.09189 6.13329C8.84189 6.22496 8.55856 6.09163 8.46689 5.84163C8.37523 5.59163 8.50856 5.30829 8.75856 5.22496C9.55856 4.93329 10.4419 4.93329 11.2419 5.22496C11.4919 5.31663 11.6252 5.59163 11.5336 5.84163Z" fill="#FF69B4"/>
</svg>
