<svg width="33" height="34" viewBox="0 0 33 34" fill="none" xmlns="http://www.w3.org/2000/svg">
<g filter="url(#filter0_d_8_4592)">
<rect width="33" height="34" fill="#FF69B4"/>
<path fill-rule="evenodd" clip-rule="evenodd" d="M16.993 3.48209C17.2487 3.23093 17.5884 3.09082 17.9417 3.09082C18.295 3.09082 18.6348 3.23093 18.8905 3.48209L29.8905 14.2757L33.328 17.6473C33.5924 17.9066 33.746 18.2634 33.755 18.6394C33.764 19.0153 33.6277 19.3795 33.3761 19.6519C33.1245 19.9243 32.7781 20.0826 32.4133 20.0919C32.0484 20.1012 31.6949 19.9608 31.4305 19.7015L30.3167 18.6064V29.2994C30.3167 30.0509 30.027 30.7715 29.5113 31.3029C28.9955 31.8342 28.2961 32.1328 27.5667 32.1328H8.31672C7.58737 32.1328 6.8879 31.8342 6.37218 31.3029C5.85645 30.7715 5.56672 30.0509 5.56672 29.2994V18.6064L4.45297 19.7001C4.18895 19.9593 3.83578 20.0999 3.47116 20.0909C3.10654 20.0818 2.76034 19.9239 2.50872 19.6519C2.25709 19.3799 2.12066 19.016 2.12943 18.6404C2.13819 18.2647 2.29145 17.908 2.55547 17.6488L5.99297 14.2757L16.993 3.48067V3.48209ZM8.31672 15.9091V29.2994H13.8167V22.2161C13.8167 21.0889 14.2513 20.0079 15.0249 19.2109C15.7985 18.4139 16.8477 17.9661 17.9417 17.9661C19.0357 17.9661 20.0849 18.4139 20.8585 19.2109C21.6321 20.0079 22.0667 21.0889 22.0667 22.2161V29.2994H27.5667V15.9091L17.9417 6.46276L8.31672 15.9077V15.9091ZM19.3167 29.2994V22.2161C19.3167 21.8404 19.1719 21.48 18.914 21.2144C18.6561 20.9487 18.3064 20.7994 17.9417 20.7994C17.577 20.7994 17.2273 20.9487 16.9694 21.2144C16.7116 21.48 16.5667 21.8404 16.5667 22.2161V29.2994H19.3167Z" fill="black"/>
</g>
<defs>
<filter id="filter0_d_8_4592" x="-6" y="-6" width="49.7554" height="50" filterUnits="userSpaceOnUse" color-interpolation-filters="sRGB">
<feFlood flood-opacity="0" result="BackgroundImageFix"/>
<feColorMatrix in="SourceAlpha" type="matrix" values="0 0 0 0 0 0 0 0 0 0 0 0 0 0 0 0 0 0 127 0" result="hardAlpha"/>
<feOffset dx="2" dy="2"/>
<feGaussianBlur stdDeviation="4"/>
<feColorMatrix type="matrix" values="0 0 0 0 0 0 0 0 0 0 0 0 0 0 0 0 0 0 0.1 0"/>
<feBlend mode="normal" in2="BackgroundImageFix" result="effect1_dropShadow_8_4592"/>
<feBlend mode="normal" in="SourceGraphic" in2="effect1_dropShadow_8_4592" result="shape"/>
</filter>
</defs>
</svg>
