<svg width="335" height="80" viewBox="0 0 335 80" fill="none" xmlns="http://www.w3.org/2000/svg">
<rect x="0.5" y="0.5" width="149" height="79" rx="15.5" fill="#FF69B4" fill-opacity="0.1"/>
<path fill-rule="evenodd" clip-rule="evenodd" d="M69.6561 31.8954C71.3534 31.8954 72.7112 32.2348 73.5599 32.5743L72.881 35.8841L72.4566 35.7143C71.6928 35.3749 70.6744 35.1203 69.2317 35.1203C67.5344 35.1203 66.7706 35.7992 66.7706 36.4781C66.7706 37.2029 67.6113 37.622 69.0025 38.3156L69.2317 38.43C71.7777 39.5333 72.881 40.8911 72.881 42.6733C72.881 43.9571 72.4102 45.0661 71.5598 45.936L71.608 45.9831C70.335 47.3409 68.1285 48.1047 65.4128 48.1047C63.4609 48.1047 61.5938 47.6804 60.5754 47.2561L60.589 47.1768L60.5754 47.1712L61.1695 43.6917L61.7636 43.9463C63.2063 44.5404 64.1398 44.795 65.8371 44.795C67.0252 44.795 68.3831 44.2858 68.3831 43.2674C68.3831 43.1105 68.3559 42.9627 68.2931 42.8187C68.2167 42.692 68.103 42.563 67.9587 42.4187L68.2125 42.6666C67.9477 42.2446 67.3425 41.8401 66.1766 41.3155C64.4793 40.5517 62.3576 39.3636 62.3576 37.0722C62.3576 34.0196 65.4076 31.899 69.6452 31.8954L69.6561 31.8954ZM53.871 47.6804L56.5868 32.4046H57.3505H60.83L58.1992 47.6804H53.871ZM80.8583 32.4046C79.8399 32.4046 79.0761 32.4894 78.6518 33.5078L72.2869 47.6804L72.881 47.6804L76.8696 47.6804L77.7183 45.1344H83.1497L83.6589 47.6804H87.7324L87.7323 47.6799L86.2897 41.4852L86.2861 41.4817L84.1681 32.4046H81.8767H80.8583ZM81.1978 36.563C80.9432 37.1571 80.6037 38.0906 80.6037 38.0906C80.6037 38.0906 79.2459 41.7398 78.9064 42.5885H82.4536C82.2505 41.5974 81.4524 38.0057 81.4524 38.0057L81.1978 36.563ZM48.1002 47.7653L48.1384 47.6804H48.1851L48.7685 46.2801L54.9743 32.4894H51.2402H50.3916L47.4405 39.7223L47.4213 39.703L46.0634 42.9279L45.7239 40.8063C45.6537 40.5721 45.5691 40.3358 45.4713 40.0987L44.1115 33.6776C43.8569 32.6592 43.0931 32.4046 42.1596 32.4046H34.2671L36.9973 33.2426C37.9903 33.6232 38.9328 34.0725 39.8088 34.5788L43.5174 47.7653H48.1002Z" fill="#FF69B4"/>
<path fill-rule="evenodd" clip-rule="evenodd" d="M108.761 37.2959L105.923 41.0226L104.699 39.4581C104.444 39.1311 103.971 39.0741 103.646 39.3299C103.319 39.5849 103.262 40.0566 103.517 40.3821L105.341 42.7124C105.483 42.8939 105.701 42.9996 105.932 42.9996H105.937C106.169 42.9989 106.388 42.8894 106.528 42.7041L109.955 38.2041C110.206 37.8741 110.142 37.4046 109.812 37.1534C109.481 36.9021 109.012 36.9666 108.761 37.2959ZM106.733 46C103.425 46 100.733 43.3082 100.733 40C100.733 36.6918 103.425 34 106.733 34C110.041 34 112.733 36.6918 112.733 40C112.733 43.3082 110.041 46 106.733 46ZM106.733 32.5C102.591 32.5 99.2329 35.8585 99.2329 40C99.2329 44.1415 102.591 47.5 106.733 47.5C110.875 47.5 114.233 44.1415 114.233 40C114.233 35.8585 110.875 32.5 106.733 32.5Z" fill="#FF69B4"/>
<mask id="mask0_8_6118" style="mask-type:luminance" maskUnits="userSpaceOnUse" x="99" y="32" width="16" height="16">
<path fill-rule="evenodd" clip-rule="evenodd" d="M108.761 37.2959L105.923 41.0226L104.699 39.4581C104.444 39.1311 103.971 39.0741 103.646 39.3299C103.319 39.5849 103.262 40.0566 103.517 40.3821L105.341 42.7124C105.483 42.8939 105.701 42.9996 105.932 42.9996H105.937C106.169 42.9989 106.388 42.8894 106.528 42.7041L109.955 38.2041C110.206 37.8741 110.142 37.4046 109.812 37.1534C109.481 36.9021 109.012 36.9666 108.761 37.2959ZM106.733 46C103.425 46 100.733 43.3082 100.733 40C100.733 36.6918 103.425 34 106.733 34C110.041 34 112.733 36.6918 112.733 40C112.733 43.3082 110.041 46 106.733 46ZM106.733 32.5C102.591 32.5 99.2329 35.8585 99.2329 40C99.2329 44.1415 102.591 47.5 106.733 47.5C110.875 47.5 114.233 44.1415 114.233 40C114.233 35.8585 110.875 32.5 106.733 32.5Z" fill="white"/>
</mask>
<g mask="url(#mask0_8_6118)">
</g>
<rect x="0.5" y="0.5" width="149" height="79" rx="15.5" stroke="#FF69B4"/>
<rect x="185" width="150" height="80" rx="16" fill="#FF69B4" fill-opacity="0.1"/>
<path fill-rule="evenodd" clip-rule="evenodd" d="M275.125 46.4625L275.675 43.4375C275.675 43.4375 274.3 44.125 273.338 44.125C271.413 44.125 270.588 42.6125 270.588 40.9625C270.588 37.6625 272.238 35.875 274.163 35.875C275.538 35.875 276.638 36.7 276.638 36.7L277.05 33.8125C277.05 33.8125 275.4 33.125 273.888 33.125C270.725 33.125 267.563 35.875 267.563 41.1C267.563 44.5375 269.213 46.875 272.513 46.875C273.613 46.875 275.125 46.4625 275.125 46.4625ZM252.3 44.125L251.888 46.4625C251.613 46.6 250.925 46.875 250.1 46.875C250.059 46.875 250.018 46.8742 249.978 46.8727C249.927 46.8742 249.876 46.875 249.825 46.875C248.588 46.875 247.625 46.1875 247.625 44.5375L247.971 43.7847C248.287 41.311 249.55 34.3625 249.55 34.3625H252.3L252.025 36.0125H253.4L252.988 38.625H251.475L250.65 43.4375C250.513 43.7125 250.65 44.2625 251.613 44.2625C251.774 44.2625 251.935 44.2153 252.068 44.1762C252.163 44.1486 252.243 44.125 252.3 44.125ZM252.85 42.0625C252.85 45.9125 255.463 46.875 257.663 46.875C259.725 46.875 260.55 46.4625 260.55 46.4625L261.1 43.85C261.1 43.85 259.588 44.5375 258.213 44.5375C255.188 44.5375 255.738 42.3375 255.738 42.3375H261.375C261.375 42.3375 261.788 40.55 261.788 39.8625C261.788 38.075 260.825 35.875 257.8 35.875C257.771 35.8722 257.742 35.8698 257.714 35.8677C257.622 35.861 257.531 35.8577 257.44 35.8576C254.743 35.8551 252.85 38.7695 252.85 42.0625ZM257.663 38.075C259.055 38.075 258.932 39.5909 258.904 39.9381C258.902 39.9679 258.9 39.9891 258.9 40H255.875C255.875 39.8625 256.15 38.075 257.663 38.075ZM236.763 35.6C234.838 35.6 233.463 36.15 233.463 36.15L233.05 38.4875C233.05 38.4875 233.173 38.4329 233.397 38.3582L233.05 38.625C233.05 38.625 234.288 38.075 236.075 38.075C237.017 38.075 237.827 38.2066 237.861 38.985C237.848 39.4644 237.725 39.5875 237.725 39.5875H236.488C234.15 39.5875 231.538 40.55 231.538 43.7125C231.538 43.7354 231.538 43.7581 231.538 43.7807C231.538 43.8037 231.538 43.8268 231.538 43.85C231.538 46.325 233.188 46.875 234.15 46.875C235.669 46.875 236.503 46.1044 236.855 45.7794C236.933 45.7075 236.987 45.6575 237.02 45.6423L236.9 46.6H236.917L236.9 46.7375H239.375L240.475 39.175C240.475 39.1321 240.475 39.0897 240.474 39.0479L240.475 39.0375C240.475 35.7375 237.725 35.6 236.763 35.6ZM237.313 41.7875C237.313 42.2 237.038 44.4 235.388 44.4C234.563 44.4 234.288 43.7125 234.288 43.3C234.288 42.6125 234.7 41.65 236.763 41.65C237.175 41.7875 237.313 41.7875 237.313 41.7875ZM243.088 46.7375L243.159 46.7378C243.208 46.738 243.266 46.7384 243.332 46.738C244.209 46.7421 247.35 46.7113 247.35 43.1625C247.35 41.0568 246.112 40.4989 245.152 40.0667C244.545 39.7933 244.05 39.5702 244.05 39.0375C244.05 38.3696 244.569 38.091 245.481 38.0757C245.959 38.086 247.35 38.2125 247.35 38.2125L247.352 38.2004L247.488 38.2125L247.9 35.7375C247.9 35.7375 246.938 35.4625 245.288 35.4625L245.23 35.4627L245.15 35.4625C243.088 35.4625 241.025 36.2875 241.025 39.0375C241.025 40.983 242.326 41.6276 243.327 42.1237C243.954 42.434 244.463 42.6863 244.463 43.1625C244.463 43.9875 243.5 44.125 242.813 44.125C241.575 44.125 240.338 43.7125 240.338 43.7125L239.925 46.1875C239.96 46.2567 240.029 46.326 240.151 46.3908L240.063 46.4625C240.063 46.4625 240.409 46.5779 241.288 46.6591C241.737 46.7082 242.324 46.7375 243.088 46.7375ZM297.95 33.4L297.4 37.1125C297.4 37.1125 296.3 35.7375 294.788 35.7375L294.766 35.7376C292.3 35.7552 290.113 38.773 290.113 42.3375C290.113 44.536 291.211 46.8718 293.545 46.875L293.55 46.875C293.653 46.875 293.754 46.8707 293.851 46.8626C295.311 46.7423 296.156 45.783 296.163 45.7751L296.025 46.7375H298.775L300.838 33.5375L297.95 33.4ZM294.513 44.125H294.513C293.55 44.125 293 43.3 293 41.925C293 39.725 293.963 38.35 295.2 38.35C296.163 38.35 296.713 39.0375 296.713 40.6875C296.713 42.1999 296.025 44.1248 294.513 44.125ZM221.775 46.6L223.425 36.7L223.7 46.6H225.625L229.2 36.7L227.688 46.6H230.575L232.775 33.4H229.338H228.238L225.488 41.5125L225.35 33.4H223.838H221.363L219.163 46.6H221.775ZM264.798 44.2189C264.678 44.9706 264.551 45.7716 264.4 46.6V46.7375H261.375L263.163 36.0125H265.775L265.5 37.525C265.5 37.525 266.463 35.875 267.7 35.875H268.25L268.231 35.922C268.199 36.0003 268.165 36.0789 268.13 36.1595L268.088 36.2573C267.829 36.8494 267.513 37.5755 267.288 39.0375C265.714 38.4755 265.335 40.8535 264.798 44.2189ZM278.15 36.15C278.15 36.15 279.525 35.6 281.45 35.6C282.413 35.6 285.3 35.7375 285.163 39.0375L285.161 39.0479C285.162 39.0897 285.163 39.1321 285.163 39.175L284.063 46.7375H281.588L281.605 46.6H281.588L281.707 45.6423C281.674 45.6575 281.62 45.7075 281.543 45.7794L281.542 45.7794C281.191 46.1044 280.357 46.875 278.838 46.875C277.875 46.875 276.225 46.325 276.225 43.85C276.225 43.8268 276.225 43.8037 276.226 43.7807C276.225 43.7581 276.225 43.7354 276.225 43.7125C276.225 40.55 278.838 39.5875 281.175 39.5875H282.413C282.413 39.5875 282.536 39.4644 282.549 38.985C282.514 38.2066 281.704 38.075 280.763 38.075C278.975 38.075 277.738 38.625 277.738 38.625L278.084 38.3582C277.86 38.4329 277.738 38.4875 277.738 38.4875L278.15 36.15ZM281.032 44.1769C280.745 44.3052 280.447 44.387 280.148 44.3986C279.373 44.3638 279.113 43.7016 279.113 43.3C279.113 42.6274 279.507 41.6917 281.456 41.6513C281.538 41.6715 281.637 41.6887 281.748 41.7034C281.93 41.7632 281.991 41.7805 282.053 41.7855C282.078 41.7875 282.104 41.7875 282.138 41.7875C282.138 42.1192 281.96 43.607 281.032 44.1769ZM287.898 44.2189C287.778 44.9706 287.651 45.7716 287.5 46.6V46.7375H284.475L286.263 36.0125H288.875L288.6 37.525C288.6 37.525 289.563 35.875 290.8 35.875H291.35C291.3 36.0002 291.245 36.1254 291.188 36.2572C290.929 36.8494 290.613 37.5755 290.388 39.0375C288.814 38.4755 288.435 40.8535 287.898 44.2189Z" fill="#7F7F7F"/>
</svg>
