<svg width="24" height="24" viewBox="0 0 24 24" fill="none" xmlns="http://www.w3.org/2000/svg">
<path d="M11.9998 0.799988C5.80665 0.799988 0.799805 5.80684 0.799805 12C0.799805 18.1931 5.80665 23.2 11.9998 23.2C18.193 23.2 23.1998 18.1931 23.1998 12C23.1998 5.80684 18.193 0.799988 11.9998 0.799988ZM11.9998 2.66665C17.1933 2.66665 21.3331 6.80647 21.3331 12C21.3331 17.1935 17.1933 21.3333 11.9998 21.3333C6.80629 21.3333 2.66647 17.1935 2.66647 12C2.66647 6.80647 6.80629 2.66665 11.9998 2.66665ZM6.3998 11.0667C6.27613 11.0649 6.15334 11.0878 6.03856 11.1339C5.92379 11.18 5.81933 11.2485 5.73126 11.3353C5.64318 11.4221 5.57324 11.5256 5.5255 11.6397C5.47776 11.7538 5.45318 11.8763 5.45318 12C5.45318 12.1237 5.47776 12.2461 5.5255 12.3602C5.57324 12.4743 5.64318 12.5778 5.73126 12.6647C5.81933 12.7515 5.92379 12.82 6.03856 12.8661C6.15334 12.9122 6.27613 12.9351 6.3998 12.9333H9.1998C9.32348 12.9351 9.44627 12.9122 9.56104 12.8661C9.67582 12.82 9.78027 12.7515 9.86835 12.6647C9.95643 12.5778 10.0264 12.4743 10.0741 12.3602C10.1218 12.2461 10.1464 12.1237 10.1464 12C10.1464 11.8763 10.1218 11.7538 10.0741 11.6397C10.0264 11.5256 9.95643 11.4221 9.86835 11.3353C9.78027 11.2485 9.67582 11.18 9.56104 11.1339C9.44627 11.0878 9.32348 11.0649 9.1998 11.0667H6.3998ZM14.7998 11.0667C14.6761 11.0649 14.5533 11.0878 14.4386 11.1339C14.3238 11.18 14.2193 11.2485 14.1313 11.3353C14.0432 11.4221 13.9732 11.5256 13.9255 11.6397C13.8778 11.7538 13.8532 11.8763 13.8532 12C13.8532 12.1237 13.8778 12.2461 13.9255 12.3602C13.9732 12.4743 14.0432 12.5778 14.1313 12.6647C14.2193 12.7515 14.3238 12.82 14.4386 12.8661C14.5533 12.9122 14.6761 12.9351 14.7998 12.9333H17.5998C17.7235 12.9351 17.8463 12.9122 17.961 12.8661C18.0758 12.82 18.1803 12.7515 18.2684 12.6647C18.3564 12.5778 18.4264 12.4743 18.4741 12.3602C18.5218 12.2461 18.5464 12.1237 18.5464 12C18.5464 11.8763 18.5218 11.7538 18.4741 11.6397C18.4264 11.5256 18.3564 11.4221 18.2684 11.3353C18.1803 11.2485 18.0758 11.18 17.961 11.1339C17.8463 11.0878 17.7235 11.0649 17.5998 11.0667H14.7998ZM13.3998 15.7333C12.6531 15.7333 11.9998 16.3867 11.9998 17.1333C11.9998 17.88 12.6531 18.5333 13.3998 18.5333C14.1465 18.5333 14.7998 17.88 14.7998 17.1333C14.7998 16.3867 14.1465 15.7333 13.3998 15.7333Z" fill="white"/>
</svg>
