<svg width="18" height="18" viewBox="0 0 18 18" fill="none" xmlns="http://www.w3.org/2000/svg">
<path d="M9.75 8.36255H5.25" stroke="#3A3A3A" stroke-width="1.5" stroke-linecap="round" stroke-linejoin="round"/>
<path d="M1.5 8.3625V4.89751C1.5 3.36751 2.7375 2.13 4.2675 2.13H8.4825C10.0125 2.13 11.25 3.0825 11.25 4.6125" stroke="#3A3A3A" stroke-width="1.5" stroke-linecap="round" stroke-linejoin="round"/>
<path d="M13.11 9.15004C12.735 9.51004 12.555 10.065 12.705 10.635C12.8925 11.3325 13.5825 11.775 14.3025 11.775H15V12.8625C15 14.52 13.6575 15.8625 12 15.8625H4.5C2.8425 15.8625 1.5 14.52 1.5 12.8625V7.61255C1.5 5.95505 2.8425 4.61255 4.5 4.61255H12C13.65 4.61255 15 5.96255 15 7.61255V8.70001H14.19C13.77 8.70001 13.3875 8.86504 13.11 9.15004Z" stroke="#3A3A3A" stroke-width="1.5" stroke-linecap="round" stroke-linejoin="round"/>
<path d="M16.5 9.46497V11.01C16.5 11.43 16.155 11.775 15.7275 11.775H14.28C13.47 11.775 12.7275 11.1825 12.66 10.3725C12.615 9.89998 12.795 9.45748 13.11 9.14998C13.3875 8.86498 13.77 8.69995 14.19 8.69995H15.7275C16.155 8.69995 16.5 9.04497 16.5 9.46497Z" stroke="#3A3A3A" stroke-width="1.5" stroke-linecap="round" stroke-linejoin="round"/>
</svg>
