<svg width="206" height="377" viewBox="0 0 206 377" fill="none" xmlns="http://www.w3.org/2000/svg">
<path d="M4.99976 2.4659C4.98092 1.08532 3.84647 -0.0185928 2.46589 0.000240215C1.08531 0.0190734 -0.0186005 1.15352 0.000232586 2.5341L4.99976 2.4659ZM204.085 370.93C205.427 370.606 206.253 369.256 205.93 367.914L200.662 346.039C200.339 344.697 198.988 343.871 197.646 344.194C196.304 344.517 195.478 345.868 195.801 347.21L200.484 366.654L181.04 371.337C179.697 371.66 178.871 373.01 179.195 374.353C179.518 375.695 180.868 376.521 182.21 376.198L204.085 370.93ZM0.000232586 2.5341C0.888632 67.6592 23.3829 142.48 59.6 209.547C95.8138 276.608 145.893 336.185 202.195 370.632L204.804 366.367C149.476 332.516 99.9372 273.721 63.9995 207.171C28.0652 140.628 5.8746 66.5971 4.99976 2.4659L0.000232586 2.5341Z" fill="black" fill-opacity="0.35"/>
</svg>
