<svg width="47" height="47" viewBox="0 0 47 47" fill="none" xmlns="http://www.w3.org/2000/svg">
<path d="M23.5 0C18.8521 0 14.3087 1.37825 10.4441 3.96046C6.57955 6.54268 3.5675 10.2129 1.78884 14.5069C0.0101822 18.801 -0.455196 23.5261 0.451556 28.0846C1.35831 32.6432 3.59647 36.8305 6.883 40.117C10.1695 43.4035 14.3568 45.6417 18.9154 46.5484C23.4739 47.4552 28.199 46.9898 32.4931 45.2112C36.7871 43.4325 40.4573 40.4204 43.0395 36.5559C45.6217 32.6913 47 28.1479 47 23.5C47 20.4139 46.3922 17.3581 45.2112 14.5069C44.0302 11.6558 42.2992 9.06517 40.117 6.88299C37.9348 4.70081 35.3442 2.96982 32.4931 1.78883C29.6419 0.607845 26.5861 0 23.5 0ZM23.5 42.3C19.7817 42.3 16.1469 41.1974 13.0553 39.1316C9.96364 37.0658 7.554 34.1297 6.13107 30.6944C4.70815 27.2592 4.33584 23.4791 5.06125 19.8323C5.78665 16.1855 7.57717 12.8356 10.2064 10.2064C12.8356 7.57716 16.1855 5.78664 19.8323 5.06124C23.4792 4.33583 27.2592 4.70814 30.6945 6.13106C34.1297 7.55399 37.0659 9.96363 39.1316 13.0553C41.1974 16.1469 42.3 19.7817 42.3 23.5C42.3 28.4861 40.3193 33.2679 36.7936 36.7936C33.2679 40.3193 28.4861 42.3 23.5 42.3ZM32.9 21.15H25.85V14.1C25.85 13.4767 25.6024 12.879 25.1617 12.4383C24.721 11.9976 24.1233 11.75 23.5 11.75C22.8767 11.75 22.279 11.9976 21.8383 12.4383C21.3976 12.879 21.15 13.4767 21.15 14.1V21.15H14.1C13.4767 21.15 12.879 21.3976 12.4383 21.8383C11.9976 22.279 11.75 22.8767 11.75 23.5C11.75 24.1233 11.9976 24.721 12.4383 25.1617C12.879 25.6024 13.4767 25.85 14.1 25.85H21.15V32.9C21.15 33.5233 21.3976 34.121 21.8383 34.5617C22.279 35.0024 22.8767 35.25 23.5 35.25C24.1233 35.25 24.721 35.0024 25.1617 34.5617C25.6024 34.121 25.85 33.5233 25.85 32.9V25.85H32.9C33.5233 25.85 34.121 25.6024 34.5617 25.1617C35.0024 24.721 35.25 24.1233 35.25 23.5C35.25 22.8767 35.0024 22.279 34.5617 21.8383C34.121 21.3976 33.5233 21.15 32.9 21.15Z" fill="#FF69B4"/>
</svg>
