<svg width="24" height="20" viewBox="0 0 24 20" fill="none" xmlns="http://www.w3.org/2000/svg">
<path d="M23.972 2.33893C23.9376 2.29819 23.8808 2.28437 23.8324 2.30659C23.1148 2.62633 22.36 2.8562 21.5825 2.992C22.4079 2.36831 23.0229 1.50464 23.3383 0.514303C23.3535 0.466898 23.3378 0.415048 23.2992 0.384184C23.2604 0.353321 23.2065 0.349371 23.164 0.374802C22.2344 0.92861 21.2275 1.31897 20.1701 1.5355C19.2331 0.558746 17.9246 0 16.5705 0C13.8164 0 11.5761 2.25029 11.5761 5.01637C11.5761 5.35093 11.6083 5.68227 11.6723 6.00399C7.85781 5.76746 4.29114 3.92801 1.866 0.940215C1.84118 0.909599 1.80357 0.892562 1.76424 0.896513C1.72516 0.899475 1.69025 0.921697 1.67059 0.955523C1.22813 1.71797 0.994369 2.59028 0.994369 3.47766C0.994369 5.01563 1.69 6.45361 2.87455 7.40246C2.2647 7.32889 1.66911 7.13605 1.13202 6.83656C1.09589 6.81606 1.0509 6.81631 1.01477 6.8373C0.978637 6.85804 0.955777 6.89655 0.954794 6.93853L0.954302 7.00272C0.954302 9.21154 2.40334 11.151 4.46493 11.7949C3.92194 11.8828 3.35855 11.8769 2.80474 11.7707C2.76394 11.7631 2.72117 11.7771 2.69315 11.8087C2.66537 11.8403 2.65603 11.8845 2.66881 11.9245C3.28702 13.8627 5.00472 15.2219 7.00412 15.3913C5.33632 16.6187 3.36494 17.2653 1.28196 17.2653C0.898258 17.2653 0.511849 17.2424 0.133305 17.1977C0.0792272 17.1915 0.0256411 17.2239 0.00695975 17.276C-0.0117216 17.3285 0.00818879 17.3873 0.0548922 17.4172C2.30895 18.8692 4.91525 19.6364 7.59234 19.6364C16.3492 19.6364 21.582 12.4914 21.582 5.58401C21.582 5.39167 21.5783 5.20032 21.5707 5.00946C22.5153 4.31541 23.3262 3.46581 23.9801 2.48238C24.0093 2.43844 24.0061 2.37992 23.972 2.33893Z" fill="#3A3A3A"/>
</svg>
