<svg width="54" height="17" viewBox="0 0 54 17" fill="none" xmlns="http://www.w3.org/2000/svg">
<path fill-rule="evenodd" clip-rule="evenodd" d="M35.7434 0C37.4577 0 38.8292 0.34286 39.6863 0.685721L39.0006 4.02861L38.572 3.85718C37.8006 3.51432 36.772 3.25717 35.3149 3.25717C33.6006 3.25717 32.8291 3.94289 32.8291 4.62862C32.8291 5.36068 33.6782 5.78398 35.0834 6.48453L35.3149 6.60006C37.8863 7.71436 39.0006 9.0858 39.0006 10.8858C39.0006 12.1825 38.5252 13.3026 37.6662 14.1812L37.7149 14.2288C36.4292 15.6002 34.2006 16.3717 31.4577 16.3717C29.4862 16.3717 27.6005 15.9431 26.5719 15.5145L26.5856 15.4344L26.5719 15.4287L27.1719 11.9144L27.7719 12.1715C29.2291 12.7715 30.172 13.0287 31.8863 13.0287C33.0863 13.0287 34.4577 12.5144 34.4577 11.4858C34.4577 11.3275 34.4303 11.1783 34.367 11.033C34.2898 10.905 34.175 10.7746 34.0291 10.6288L34.2856 10.8793C34.0183 10.453 33.4069 10.0444 32.2291 9.51438C30.5148 8.74294 28.3719 7.54293 28.3719 5.22862C28.3719 2.14551 31.4524 0.00366283 35.7325 4.69316e-06L35.7434 0ZM19.7997 15.9431L22.5426 0.514375H23.3141H26.8284L24.1712 15.9431V15.9431H19.7997V15.9431ZM47.0573 0.514375C46.0287 0.514375 45.2573 0.60009 44.8287 1.62867L38.4001 15.9431H38.9998L38.9998 15.9431H43.0284L43.0284 15.9431H43.0287L43.8858 13.3717H49.3713L49.8856 15.9431H53.9999L53.9999 15.9431H54.0002L53.8368 15.2428L52.5428 9.68592L52.5395 9.68276L50.4002 0.514375H48.0859H47.0573ZM47.3998 4.71456C47.1427 5.31457 46.7999 6.25732 46.7999 6.25732C46.7999 6.25732 45.4284 9.94307 45.0856 10.8002H48.6681C48.4631 9.79924 47.6569 6.1716 47.6569 6.1716L47.3998 4.71456ZM13.9716 16.0287L14.0101 15.943H14.0566L14.638 14.5477L20.9145 0.600006H17.143H16.2859L13.3051 7.90575L13.2852 7.88583L11.9137 11.143L11.5709 9.00012C11.5003 8.76471 11.4153 8.52714 11.317 8.28872L9.94295 1.80002C9.68581 0.771436 8.91437 0.514291 7.9715 0.514291H0L2.75749 1.36065C3.76044 1.7451 4.71244 2.19892 5.59715 2.71032L9.34295 16.0287H13.9716Z" fill="#FF69B4"/>
</svg>
