<svg width="14" height="14" viewBox="0 0 14 14" fill="none" xmlns="http://www.w3.org/2000/svg">
<path d="M7.3371 2.38154L7.3378 2.38295L8.36331 4.43397C8.50072 4.71279 8.72222 4.93851 8.93853 5.09812C9.15614 5.25868 9.43648 5.40253 9.74033 5.45317L9.7407 5.45323L11.6012 5.76233C11.9705 5.82389 12.0656 5.93815 12.0831 5.96402C12.0839 5.99566 12.0717 6.14223 11.8084 6.40373L11.8066 6.40554L10.36 7.85221C10.1251 8.0871 9.97713 8.39009 9.89727 8.66905C9.81732 8.94835 9.78323 9.28169 9.85512 9.60241L9.8551 9.60241L9.85625 9.60736L10.2703 11.3976C10.3371 11.6877 10.3352 11.879 10.3153 11.9865C10.3115 12.0068 10.3075 12.0225 10.3039 12.0344C10.2911 12.0343 10.2743 12.0333 10.2529 12.0306C10.1433 12.0167 9.95948 11.9602 9.70257 11.8084L7.95931 10.7765C7.65786 10.5979 7.30838 10.5317 7.00165 10.5317C6.69423 10.5317 6.34617 10.5981 6.04479 10.7734L6.04478 10.7734L6.0399 10.7763L4.29574 11.8088L4.29503 11.8092C4.04048 11.9603 3.85815 12.0161 3.74976 12.0296C3.72709 12.0325 3.70963 12.0333 3.69659 12.0333C3.69265 12.021 3.68826 12.0045 3.68416 11.9825C3.66421 11.8758 3.66193 11.6859 3.72848 11.3983L3.7285 11.3982L4.14267 9.60736L4.14269 9.60737L4.1438 9.60241C4.21569 9.28169 4.1816 8.94835 4.10164 8.66905C4.02179 8.39009 3.87385 8.0871 3.63896 7.85221L2.19229 6.40554C1.92814 6.1414 1.91745 5.99374 1.91829 5.9628C1.93569 5.93696 2.03013 5.8236 2.39776 5.76233L4.25821 5.45323L4.25822 5.45323L4.26085 5.45279C4.56255 5.40156 4.84116 5.25688 5.05668 5.09708C5.27129 4.93796 5.49245 4.71258 5.62974 4.43402L6.65458 2.38435C6.65467 2.38417 6.65476 2.38398 6.65486 2.3838C6.82575 2.04402 6.9633 1.97692 6.99858 1.96436C7.03394 1.97709 7.16948 2.04454 7.3371 2.38154ZM10.2906 12.0661C10.2906 12.066 10.2912 12.0649 10.2926 12.0631C10.2914 12.0653 10.2907 12.0662 10.2906 12.0661ZM10.3347 12.0322C10.3369 12.0314 10.3381 12.0311 10.3382 12.0312C10.3382 12.0313 10.3371 12.0317 10.3347 12.0322ZM3.66469 12.0299C3.66475 12.0299 3.66596 12.0301 3.66814 12.0309C3.66573 12.0304 3.66464 12.03 3.66469 12.0299ZM3.70739 12.0597C3.70884 12.0615 3.70945 12.0626 3.70939 12.0626C3.70933 12.0627 3.70861 12.0618 3.70739 12.0597Z" stroke="#7F7F7F" stroke-width="1.5" stroke-linecap="round" stroke-linejoin="round"/>
</svg>
