<svg width="28" height="28" viewBox="0 0 28 28" fill="none" xmlns="http://www.w3.org/2000/svg">
<path d="M20.7478 5.61212C20.2345 5.03626 19.4962 4.66666 18.6665 4.66666C17.5633 4.66666 16.7382 5.34052 16.1689 6.53332C12.3963 6.53332 2.7998 10.0791 2.7998 16.716C2.7998 17.822 3.54647 18.6667 4.54234 19.1473C4.09807 19.7223 3.73314 20.4913 3.73314 21.4667C3.73314 21.9819 4.15034 22.4 4.66647 22.4H14.9331C15.4493 22.4 15.8665 21.9819 15.8665 21.4667C15.8665 20.9515 15.4493 20.5333 14.9331 20.5333H10.0462C10.0462 20.5333 13.0665 19.4647 13.0665 16.8C13.0665 16.1887 12.7361 14.9333 11.1998 14.9333C10.6837 14.9333 10.2665 14.5152 10.2665 14C10.2665 13.4848 10.6837 13.0667 11.1998 13.0667C13.7086 13.0667 14.8323 14.8316 14.8323 16.5704C14.8323 17.4141 14.3255 18.9261 14.3255 18.9261C14.9471 18.984 15.7535 18.9709 16.6887 18.7189C17.3281 19.9696 18.3967 21.6673 18.995 22.1769C19.163 22.3216 19.3786 22.4 19.5998 22.4H21.4665C21.9826 22.4 22.3998 21.9819 22.3998 21.4667C22.3998 20.9515 21.9826 20.5333 21.4665 20.5333H19.9918C19.8313 19.6355 19.5205 18.5696 19.2983 17.4141C20.1169 16.9241 22.3998 14.7149 22.3998 11.2C24.5847 10.1687 25.1998 8.47746 25.1998 7.79239C25.1998 6.46146 22.2887 5.73159 20.7478 5.61212ZM18.6665 8.39999C18.1513 8.39999 17.7331 7.98092 17.7331 7.46666C17.7331 6.95239 18.1513 6.53332 18.6665 6.53332C19.1817 6.53332 19.5998 6.95239 19.5998 7.46666C19.5998 7.98092 19.1817 8.39999 18.6665 8.39999Z" fill="white"/>
</svg>
