<svg width="28" height="28" viewBox="0 0 28 28" fill="none" xmlns="http://www.w3.org/2000/svg">
<path d="M12.5998 2.8C11.8147 2.80071 11.0562 3.08409 10.4631 3.59827C9.86987 4.11245 9.48169 4.82304 9.36954 5.6C9.35739 5.59992 9.34524 5.59992 9.33309 5.6C8.59048 5.6 7.87829 5.895 7.35319 6.4201C6.82809 6.94521 6.53309 7.6574 6.53309 8.4C6.53309 9.14261 6.82809 9.8548 7.35319 10.3799C7.87829 10.905 8.59048 11.2 9.33309 11.2H19.5998C20.0948 11.2 20.5696 11.0033 20.9197 10.6533C21.2698 10.3032 21.4664 9.82841 21.4664 9.33334C21.4664 8.83827 21.2698 8.36347 20.9197 8.0134C20.5696 7.66334 20.0948 7.46667 19.5998 7.46667H19.5961C19.5961 6.72469 19.3016 6.01306 18.7773 5.48806C18.253 4.96306 17.5417 4.66764 16.7998 4.66667C16.4043 4.66742 16.0135 4.75191 15.6531 4.91459C15.4191 4.29374 15.0017 3.75887 14.4562 3.38113C13.9108 3.00339 13.2632 2.80069 12.5998 2.8ZM17.7331 12.1333C17.7331 12.1333 16.7998 13.4848 16.7998 14C16.7998 14.5152 17.2179 14.9333 17.7331 14.9333C18.2483 14.9333 18.6664 14.5152 18.6664 14C18.6664 13.4848 17.7331 12.1333 17.7331 12.1333ZM10.2664 13.0667C10.2664 13.0667 9.33309 14.4181 9.33309 14.9333C9.33309 15.4485 9.75122 15.8667 10.2664 15.8667C10.7816 15.8667 11.1998 15.4485 11.1998 14.9333C11.1998 14.4181 10.2664 13.0667 10.2664 13.0667ZM13.9998 14C13.9998 14 13.0664 15.3515 13.0664 15.8667C13.0664 16.3819 13.4846 16.8 13.9998 16.8C14.515 16.8 14.9331 16.3819 14.9331 15.8667C14.9331 15.3515 13.9998 14 13.9998 14ZM2.74142 14.9206C2.60318 14.9286 2.46846 14.9673 2.34703 15.0339C2.22561 15.1005 2.12051 15.1932 2.03936 15.3054C1.95822 15.4176 1.90305 15.5465 1.87787 15.6827C1.85269 15.8188 1.85812 15.9589 1.89376 16.0927L3.40678 22.1448C3.40678 22.1454 3.40678 22.146 3.40678 22.1466C3.71779 23.3878 4.84433 24.2667 6.12475 24.2667H21.8766C23.157 24.2667 24.2829 23.3868 24.5927 22.1448L26.1057 16.0927C26.1355 15.9737 26.1415 15.85 26.1234 15.7287C26.1053 15.6074 26.0635 15.4909 26.0003 15.3857C25.9372 15.2806 25.854 15.1889 25.7554 15.1159C25.6568 15.043 25.5449 14.9901 25.4259 14.9604C25.3069 14.9308 25.1832 14.9248 25.0619 14.9429C24.9406 14.961 24.824 15.0029 24.7189 15.066C24.6138 15.1292 24.5221 15.2124 24.4492 15.311C24.3762 15.4096 24.3234 15.5216 24.2938 15.6406L23.6248 18.3185C22.9889 18.5047 22.2384 18.6667 21.4664 18.6667C19.5998 18.6667 17.7331 17.7333 17.7331 17.7333C17.7331 17.7333 15.8664 18.6667 13.9998 18.6667C12.1331 18.6667 10.2664 17.7333 10.2664 17.7333C10.2664 17.7333 8.39975 18.6667 6.53309 18.6667C5.761 18.6667 5.01062 18.5046 4.37475 18.3185L3.70574 15.6406C3.65924 15.4418 3.54884 15.2638 3.39145 15.1337C3.23407 15.0037 3.03839 14.9288 2.83439 14.9206C2.80342 14.919 2.77239 14.919 2.74142 14.9206Z" fill="white"/>
</svg>
