<svg width="24" height="24" viewBox="0 0 24 24" fill="none" xmlns="http://www.w3.org/2000/svg">
<path d="M14.4004 15.2V13.6C14.7604 13.4216 15.79 12.196 15.898 11.2384C16.1812 11.2168 16.626 10.9568 16.7572 9.93039C16.8276 9.37919 16.5476 9.06959 16.378 8.97199C16.378 8.97199 16.8004 8.16959 16.8004 7.20079C16.8004 5.25839 16.038 3.60079 14.4004 3.60079C14.4004 3.60079 13.8316 2.40079 12.0004 2.40079C8.60679 2.40079 7.20039 4.57759 7.20039 7.20079C7.20039 8.08399 7.62279 8.97199 7.62279 8.97199C7.45319 9.06959 7.17319 9.37999 7.24359 9.93039C7.37479 10.9568 7.81959 11.2168 8.10279 11.2384C8.21079 12.196 9.24039 13.4216 9.60039 13.6V15.2C8.80039 17.6 2.40039 16 2.40039 21.6H21.6004C21.6004 16 15.2004 17.6 14.4004 15.2Z" fill="#8E8E93"/>
</svg>
