<svg width="261" height="147" viewBox="0 0 261 147" fill="none" xmlns="http://www.w3.org/2000/svg">
<g clip-path="url(#clip0_8_4502)">
<rect width="261" height="147" fill="#FF69B4"/>
<path d="M19.6367 146.927L19.362 146.419C23.0449 144.427 27.6285 141.949 30.0225 137.882C32.3825 133.873 32.4355 128.429 30.1607 123.674C28.2249 119.627 24.6688 116.002 19.877 113.19C18.9318 112.635 17.9397 112.109 16.9801 111.601C14.6608 110.372 12.2625 109.101 10.285 107.298C7.56135 104.815 5.50056 100.647 7.03653 96.9355C7.54168 95.7508 8.36897 94.7313 9.42447 93.993C10.48 93.2546 11.7214 92.827 13.0078 92.7585L13.0403 93.3351C11.8619 93.3976 10.7245 93.7891 9.75733 94.4652C8.79016 95.1413 8.0319 96.0749 7.56862 97.1601C6.14129 100.609 8.09957 104.524 10.6742 106.871C12.5976 108.625 14.9631 109.878 17.2506 111.091C18.2156 111.602 19.2135 112.131 20.1695 112.692C25.0609 115.563 28.696 119.274 30.6818 123.425C33.0383 128.35 32.9765 134.002 30.5203 138.175C28.0447 142.38 23.3827 144.901 19.6367 146.927Z" fill="#F1F1F1"/>
<path d="M16.6683 95.802C19.4593 95.802 21.7219 94.7033 21.7219 93.3479C21.7219 91.9925 19.4593 90.8938 16.6683 90.8938C13.8772 90.8938 11.6147 91.9925 11.6147 93.3479C11.6147 94.7033 13.8772 95.802 16.6683 95.802Z" fill="#F1F1F1"/>
<path d="M20.7112 111.97C23.5022 111.97 25.7648 110.871 25.7648 109.516C25.7648 108.161 23.5022 107.062 20.7112 107.062C17.9201 107.062 15.6576 108.161 15.6576 109.516C15.6576 110.871 17.9201 111.97 20.7112 111.97Z" fill="#F1F1F1"/>
<path d="M11.4702 114.569C14.2613 114.569 16.5239 113.47 16.5239 112.115C16.5239 110.759 14.2613 109.66 11.4702 109.66C8.67921 109.66 6.41663 110.759 6.41663 112.115C6.41663 113.47 8.67921 114.569 11.4702 114.569Z" fill="#F1F1F1"/>
<path d="M25.9092 128.138C28.7002 128.138 30.9628 127.04 30.9628 125.684C30.9628 124.329 28.7002 123.23 25.9092 123.23C23.1181 123.23 20.8556 124.329 20.8556 125.684C20.8556 127.04 23.1181 128.138 25.9092 128.138Z" fill="#F1F1F1"/>
<path d="M36.0164 128.138C38.8075 128.138 41.07 127.04 41.07 125.684C41.07 124.329 38.8075 123.23 36.0164 123.23C33.2254 123.23 30.9628 124.329 30.9628 125.684C30.9628 127.04 33.2254 128.138 36.0164 128.138Z" fill="#F1F1F1"/>
<path d="M261 4.45483H98.4767V81.5592H261V4.45483Z" fill="#E6E6E6"/>
<path d="M256.353 11.0667H103.124V75.3972H256.353V11.0667Z" fill="white"/>
<path d="M260.931 0H98.4073V6.90306H260.931V0Z" fill="#00B0FF"/>
<path d="M103.538 4.47249C104.245 4.47249 104.818 3.89965 104.818 3.19303C104.818 2.48641 104.245 1.91357 103.538 1.91357C102.831 1.91357 102.259 2.48641 102.259 3.19303C102.259 3.89965 102.831 4.47249 103.538 4.47249Z" fill="white"/>
<path d="M108.396 4.47249C109.102 4.47249 109.675 3.89965 109.675 3.19303C109.675 2.48641 109.102 1.91357 108.396 1.91357C107.689 1.91357 107.116 2.48641 107.116 3.19303C107.116 3.89965 107.689 4.47249 108.396 4.47249Z" fill="white"/>
<path d="M113.253 4.47249C113.96 4.47249 114.533 3.89965 114.533 3.19303C114.533 2.48641 113.96 1.91357 113.253 1.91357C112.546 1.91357 111.974 2.48641 111.974 3.19303C111.974 3.89965 112.546 4.47249 113.253 4.47249Z" fill="white"/>
<path d="M171.659 26.3335C171.495 26.3335 171.337 26.3988 171.221 26.515C171.105 26.6313 171.039 26.7889 171.039 26.9533C171.039 27.1177 171.105 27.2754 171.221 27.3916C171.337 27.5079 171.495 27.5732 171.659 27.5732H205.678C205.843 27.5732 206.001 27.5079 206.117 27.3916C206.233 27.2754 206.298 27.1177 206.298 26.9533C206.298 26.7889 206.233 26.6313 206.117 26.515C206.001 26.3988 205.843 26.3335 205.678 26.3335H171.659Z" fill="#E6E6E6"/>
<path d="M171.659 30.053C171.495 30.0533 171.338 30.1188 171.222 30.235C171.106 30.3512 171.041 30.5087 171.041 30.6728C171.041 30.837 171.106 30.9944 171.222 31.1107C171.338 31.2269 171.495 31.2923 171.659 31.2927H189.027C189.191 31.2923 189.348 31.2269 189.464 31.1107C189.58 30.9944 189.645 30.837 189.645 30.6728C189.645 30.5087 189.58 30.3512 189.464 30.235C189.348 30.1188 189.191 30.0533 189.027 30.053H171.659Z" fill="#E6E6E6"/>
<path d="M170.803 48.0554C170.639 48.0554 170.481 48.1207 170.365 48.237C170.249 48.3532 170.183 48.5109 170.183 48.6753C170.183 48.8397 170.249 48.9973 170.365 49.1136C170.481 49.2298 170.639 49.2951 170.803 49.2951H234.589C234.754 49.2951 234.912 49.2298 235.028 49.1136C235.144 48.9973 235.209 48.8397 235.209 48.6753C235.209 48.5109 235.144 48.3532 235.028 48.237C234.912 48.1207 234.754 48.0554 234.589 48.0554H170.803Z" fill="#E6E6E6"/>
<path d="M170.803 51.7749C170.639 51.7753 170.482 51.8407 170.366 51.9569C170.25 52.0731 170.185 52.2306 170.185 52.3947C170.185 52.5589 170.25 52.7164 170.366 52.8326C170.482 52.9488 170.639 53.0142 170.803 53.0146H217.938C218.102 53.0142 218.259 52.9488 218.375 52.8326C218.491 52.7164 218.556 52.5589 218.556 52.3947C218.556 52.2306 218.491 52.0731 218.375 51.9569C218.259 51.8407 218.102 51.7753 217.938 51.7749H170.803Z" fill="#E6E6E6"/>
<path d="M170.803 55.4102C170.639 55.4105 170.482 55.476 170.366 55.5922C170.25 55.7084 170.185 55.8658 170.185 56.03C170.185 56.1942 170.25 56.3516 170.366 56.4678C170.482 56.584 170.639 56.6495 170.803 56.6498H234.589C234.754 56.6495 234.911 56.584 235.027 56.4678C235.143 56.3516 235.208 56.1942 235.208 56.03C235.208 55.8658 235.143 55.7084 235.027 55.5922C234.911 55.476 234.754 55.4105 234.589 55.4102H170.803Z" fill="#E6E6E6"/>
<path d="M170.803 59.1296C170.639 59.13 170.482 59.1955 170.366 59.3117C170.25 59.4279 170.185 59.5853 170.185 59.7495C170.185 59.9136 170.25 60.0711 170.366 60.1873C170.482 60.3035 170.639 60.369 170.803 60.3693H217.938C218.102 60.369 218.259 60.3035 218.375 60.1873C218.491 60.0711 218.556 59.9136 218.556 59.7495C218.556 59.5853 218.491 59.4279 218.375 59.3117C218.259 59.1955 218.102 59.13 217.938 59.1296H170.803Z" fill="#E6E6E6"/>
<path d="M137.455 50.5712C140.437 50.5712 142.854 48.1547 142.854 45.1738C142.854 42.1929 140.437 39.7764 137.455 39.7764C134.474 39.7764 132.057 42.1929 132.057 45.1738C132.057 48.1547 134.474 50.5712 137.455 50.5712Z" fill="#A0616A"/>
<path d="M135.746 40.8557C135.746 40.8557 138.265 41.5304 139.57 41.8003C140.874 42.0702 140.739 41.3055 140.739 41.3055C140.739 41.3055 142.449 41.5304 142.359 41.3505C142.269 41.1706 143.079 40.226 142.134 39.1466C141.189 38.0671 141.459 37.2575 141.459 37.2575H140.649L140.425 36.9426H139.165C139.165 36.9426 137.772 35.7217 135.298 36.0815C132.824 36.4413 129.897 37.3924 129.627 38.8767C129.591 39.078 129.543 39.3017 129.487 39.5379C128.81 42.3938 130.248 45.0659 131.739 47.5939C132.105 48.2152 133.878 49.57 133.832 48.6405C133.787 47.711 132.237 45.6234 133.316 45.4885C134.396 45.3536 136.241 42.6099 135.746 40.8557Z" fill="#2F2E41"/>
<path d="M134.393 62.6226C133.351 62.5392 132.317 62.3694 131.303 62.115L131.36 61.0387L131.833 52.4804L131.837 52.4148H141.347L142.839 60.2948L143.04 61.3581C142.646 61.5112 142.248 61.6556 141.841 61.7825C141.837 61.7825 141.837 61.7869 141.833 61.7869C141.268 61.9619 140.695 62.115 140.117 62.2419C139.349 62.4076 138.571 62.5274 137.789 62.6007C137.184 62.6607 136.576 62.6899 135.968 62.6882C135.443 62.6882 134.914 62.6663 134.393 62.6226Z" fill="#00B0FF"/>
<path d="M128.279 61.0999C127.885 60.9293 127.504 60.7455 127.128 60.553L126.966 60.4699C126.857 60.413 126.743 60.3517 126.634 60.2904C126.485 60.2073 126.34 60.1242 126.2 60.0411C126.065 59.9623 125.925 59.8792 125.789 59.7961C125.78 59.7917 125.776 59.7873 125.767 59.7873C125.295 59.4854 124.831 59.1747 124.384 58.8378C124.31 58.781 124.235 58.7241 124.161 58.6672L124.082 57.4071L124.196 57.3371L131.833 52.4804L131.938 52.4148L131.946 52.4104L133.023 52.4148V56.4226C133.631 57.3021 134.043 59.1441 134.296 61.5549C134.332 61.9006 134.362 62.255 134.393 62.6225C133.351 62.5392 132.317 62.3694 131.303 62.115C131.194 62.0931 131.089 62.0669 130.979 62.0362C130.341 61.8694 129.713 61.6678 129.098 61.4324C128.909 61.3624 128.725 61.288 128.542 61.2137L128.524 61.2049C128.445 61.1699 128.358 61.1349 128.279 61.0999Z" fill="#2F2E41"/>
<path d="M126.634 60.2903C126.485 60.2072 126.34 60.1241 126.2 60.041C126.065 59.9622 125.925 59.8791 125.789 59.7959C125.78 59.7915 125.776 59.7872 125.767 59.7872C125.295 59.4853 124.831 59.1746 124.384 58.8377C124.31 58.7808 124.236 58.724 124.161 58.6671C124.126 58.6365 124.091 58.6102 124.052 58.5796C123.772 58.3652 123.5 58.142 123.238 57.9058C123.225 57.897 123.216 57.8839 123.203 57.8751C123.468 57.6713 123.765 57.5131 124.082 57.407L124.393 57.4989L126.607 58.1639L126.621 59.0609L126.634 60.2903Z" fill="#2F2E41"/>
<path d="M145.281 60.3037C145.15 60.3737 145.018 60.4437 144.887 60.5093C144.856 60.5268 144.83 60.5399 144.804 60.5531C144.629 60.6406 144.458 60.7281 144.283 60.8112C144.279 60.8156 144.27 60.8156 144.27 60.82C144.261 60.8243 144.248 60.8287 144.239 60.8331C143.846 61.0212 143.447 61.1962 143.04 61.3581C142.646 61.5113 142.248 61.6557 141.841 61.7825C141.837 61.7825 141.837 61.7869 141.833 61.7869C141.268 61.9619 140.695 62.1151 140.117 62.2419C140.11 61.8825 140.158 61.5242 140.257 61.1787L140.261 61.1175L140.638 55.0269L140.134 52.4148L141.579 52.2004L149.522 56.4752C149.522 56.4752 148.646 57.3503 145.053 59.2142C144.736 59.379 145.202 59.9274 145.281 60.3037Z" fill="#2F2E41"/>
<path d="M137.693 61.5506C137.124 61.6032 136.546 61.6294 135.968 61.6294C135.408 61.6294 134.852 61.6075 134.297 61.555C134.332 61.9007 134.362 62.2551 134.393 62.6226C134.914 62.6664 135.443 62.6883 135.968 62.6883C136.576 62.69 137.184 62.6608 137.789 62.6007C138.571 62.5275 139.349 62.4076 140.117 62.242C140.11 61.8826 140.158 61.5242 140.257 61.1787L140.261 61.1175C139.417 61.3231 138.558 61.4678 137.693 61.5506ZM154.23 36.996C153.306 34.3401 151.813 31.9179 149.855 29.8982C147.898 27.8785 145.524 26.3099 142.898 25.3019C140.272 24.2939 137.457 23.8707 134.651 24.0618C131.845 24.2529 129.114 25.0537 126.649 26.4084C124.184 27.7631 122.044 29.6391 120.379 31.9055C118.714 34.1719 117.563 36.7742 117.007 39.5309C116.451 42.2877 116.503 45.1325 117.16 47.867C117.816 50.6015 119.062 53.16 120.809 55.3639C120.984 55.5826 121.163 55.8014 121.347 56.0114C121.365 56.0289 121.373 56.0421 121.386 56.0552C121.838 56.5761 122.319 57.0713 122.826 57.5384C122.949 57.6522 123.076 57.766 123.203 57.8753C123.216 57.8841 123.225 57.8972 123.238 57.906C123.5 58.1422 123.772 58.3654 124.052 58.5798C124.091 58.6104 124.126 58.6367 124.161 58.6673C124.236 58.7242 124.31 58.781 124.384 58.8379C124.831 59.1748 125.295 59.4855 125.767 59.7874C125.776 59.7874 125.78 59.7917 125.789 59.7961C125.925 59.8793 126.065 59.9624 126.2 60.0411C126.341 60.1243 126.485 60.2074 126.634 60.2905C126.743 60.3518 126.857 60.413 126.966 60.4699L127.128 60.5531C127.504 60.7456 127.885 60.9293 128.279 61.1C128.358 61.135 128.445 61.17 128.524 61.205L128.542 61.2137C128.725 61.2881 128.909 61.3625 129.098 61.4325C129.713 61.6679 130.341 61.8694 130.979 62.0363C131.089 62.067 131.194 62.0932 131.303 62.1151C132.317 62.3695 133.351 62.5392 134.393 62.6226C134.914 62.6664 135.443 62.6882 135.968 62.6882C136.576 62.69 137.184 62.6608 137.789 62.6007C138.571 62.5274 139.349 62.4076 140.117 62.242C140.695 62.1151 141.268 61.9619 141.833 61.7869C141.837 61.7869 141.837 61.7825 141.841 61.7825C142.248 61.6557 142.646 61.5113 143.04 61.3581C143.447 61.1962 143.846 61.0212 144.239 60.8331C144.248 60.8287 144.261 60.8243 144.27 60.82C144.27 60.8156 144.279 60.8156 144.283 60.8112C144.458 60.7281 144.629 60.6406 144.804 60.5531C144.83 60.5399 144.856 60.5268 144.887 60.5093C145.018 60.4437 145.15 60.3737 145.281 60.3037C145.29 60.2993 145.294 60.2949 145.303 60.2905C145.649 60.098 145.99 59.8968 146.327 59.6824C146.419 59.6255 146.511 59.5686 146.603 59.503C146.738 59.4198 146.87 59.328 146.996 59.2361C147.167 59.1179 147.338 58.9954 147.504 58.8685C147.559 58.833 147.612 58.7936 147.662 58.7504C148.069 58.4441 148.463 58.1204 148.839 57.7791C151.693 55.2365 153.729 51.9048 154.688 48.2053C155.648 44.5059 155.489 40.6049 154.23 36.996L154.23 36.996ZM148.511 56.6502C148.037 57.0959 147.54 57.5165 147.023 57.9104C146.909 57.9978 146.791 58.0854 146.673 58.1641C146.559 58.2516 146.445 58.3347 146.327 58.4135C146.226 58.4835 146.126 58.5535 146.021 58.6192C146.012 58.6279 145.999 58.6323 145.99 58.641C145.915 58.6935 145.837 58.7417 145.762 58.7898C145.53 58.9342 145.29 59.0786 145.053 59.2142C144.997 59.2448 144.944 59.2798 144.887 59.3104C144.856 59.328 144.826 59.3455 144.791 59.3629C144.66 59.4374 144.528 59.503 144.397 59.573C144.379 59.5861 144.358 59.5905 144.34 59.6036C144.334 59.6047 144.327 59.6077 144.323 59.6123C144.231 59.6605 144.139 59.7042 144.047 59.748C143.968 59.7874 143.894 59.8267 143.815 59.8617C143.495 60.0149 143.167 60.1593 142.839 60.2949C142.493 60.4349 142.143 60.5618 141.789 60.6799C141.701 60.7106 141.609 60.7456 141.517 60.7718C141.102 60.9031 140.686 61.0212 140.261 61.1175C139.417 61.323 138.558 61.4678 137.693 61.5506C137.124 61.6031 136.546 61.6294 135.968 61.6294C135.408 61.6294 134.852 61.6075 134.297 61.555C133.305 61.4643 132.323 61.2917 131.36 61.0387C131.325 61.03 131.286 61.0212 131.251 61.0125C130.461 60.8066 129.687 60.5434 128.936 60.2249C128.896 60.2074 128.852 60.1943 128.817 60.1768C128.774 60.1593 128.734 60.1461 128.699 60.1286C128.655 60.1111 128.616 60.0936 128.577 60.0761C128.249 59.9318 127.929 59.7742 127.61 59.6123L127.461 59.5336C127.176 59.3848 126.896 59.2317 126.621 59.061C126.524 59.0085 126.424 58.9473 126.327 58.886C126.218 58.8204 126.109 58.7504 126.003 58.6804C125.977 58.6629 125.951 58.6454 125.925 58.6279C125.68 58.4616 125.43 58.2953 125.194 58.116C125.028 57.9935 124.866 57.8753 124.704 57.7484C124.599 57.6697 124.494 57.5866 124.393 57.4991C124.327 57.4509 124.262 57.394 124.196 57.3372C124.109 57.2628 124.021 57.1884 123.934 57.1096C123.798 57.0003 123.671 56.8777 123.548 56.764C123.056 56.31 122.589 55.8279 122.152 55.3201C122.004 55.1538 121.863 54.9876 121.728 54.8126C121.696 54.7781 121.667 54.7416 121.64 54.7032C119.437 51.9225 118.091 48.5608 117.766 45.0282C117.441 41.4956 118.152 37.9449 119.811 34.8092C121.47 31.6735 124.007 29.0884 127.11 27.3693C130.214 25.6501 133.751 24.8712 137.29 25.1277C140.829 25.3841 144.217 26.6647 147.04 28.8134C149.863 30.962 152 33.8857 153.19 37.2278C154.38 40.57 154.571 44.186 153.74 47.6349C152.909 51.0837 151.092 54.2162 148.511 56.6502L148.511 56.6502Z" fill="#3F3D56"/>
<path d="M47.1968 143.406L50.7372 143.406L52.4214 129.753L47.1962 129.753L47.1968 143.406Z" fill="#A0616A"/>
<path d="M46.2938 142.251L53.266 142.25H53.2663C54.4447 142.25 55.5748 142.718 56.4081 143.551C57.2414 144.385 57.7095 145.514 57.7096 146.693V146.837L46.294 146.837L46.2938 142.251Z" fill="#2F2E41"/>
<path d="M60.4806 143.406L64.021 143.406L65.7052 129.753L60.48 129.753L60.4806 143.406Z" fill="#A0616A"/>
<path d="M59.5776 142.251L66.5499 142.25H66.5502C67.7286 142.25 68.8587 142.718 69.6919 143.551C70.5252 144.385 70.9934 145.514 70.9934 146.693V146.837L59.5778 146.837L59.5776 142.251Z" fill="#2F2E41"/>
<path d="M36.4544 89.4568C36.7442 89.1466 36.9624 88.7766 37.0936 88.373C37.2249 87.9693 37.2661 87.5418 37.2142 87.1206C37.1624 86.6993 37.0188 86.2945 36.7935 85.9347C36.5683 85.575 36.2669 85.269 35.9105 85.0382L38.3704 75.0183L33.319 76.8179L31.7575 86.0571C31.4095 86.6813 31.3026 87.4114 31.4571 88.1091C31.6116 88.8068 32.0167 89.4237 32.5956 89.8427C33.1746 90.2618 33.8872 90.4539 34.5984 90.3828C35.3096 90.3117 35.97 89.9822 36.4544 89.4568Z" fill="#9E616A"/>
<path d="M74.0363 88.5905C73.7466 88.2803 73.5284 87.9104 73.3971 87.5068C73.2658 87.1031 73.2247 86.6756 73.2765 86.2543C73.3284 85.8331 73.472 85.4283 73.6972 85.0685C73.9224 84.7088 74.2239 84.4027 74.5802 84.172L72.1203 74.1521L77.1717 75.9517L78.7332 85.1909C79.0812 85.8151 79.1881 86.5452 79.0336 87.2429C78.8792 87.9406 78.4741 88.5575 77.8951 88.9765C77.3162 89.3956 76.6036 89.5877 75.8924 89.5166C75.1812 89.4455 74.5208 89.116 74.0363 88.5905Z" fill="#9E616A"/>
<path d="M41.1125 82.433L46.0197 139.907L53.1999 139.252L56.0735 94.833L58.6315 112.421L59.1438 140.359L65.6413 139.926L69.2493 109.871L68.3642 80.7628L43.6977 78.2654L41.1125 82.433Z" fill="#2F2E41"/>
<path d="M54.6115 30.1331C58.724 30.1331 62.0579 26.7999 62.0579 22.6882C62.0579 18.5766 58.724 15.2434 54.6115 15.2434C50.499 15.2434 47.1652 18.5766 47.1652 22.6882C47.1652 26.7999 50.499 30.1331 54.6115 30.1331Z" fill="#A0616A"/>
<path d="M52.2535 16.7325C52.2535 16.7325 55.7284 17.6631 57.528 18.0353C59.3275 18.4076 59.1414 17.3529 59.1414 17.3529C59.1414 17.3529 61.4994 17.6631 61.3753 17.4149C61.2512 17.1668 62.3681 15.8639 61.065 14.3749C59.7619 12.886 60.1342 11.7693 60.1342 11.7693H59.0173L58.707 11.335H56.9695C56.9695 11.335 55.0485 9.65087 51.6356 10.1472C48.2227 10.6435 44.1865 11.9554 43.8142 14.0027C43.7637 14.2804 43.6972 14.5889 43.62 14.9148C42.6868 18.854 44.6697 22.5397 46.7264 26.0267C47.2318 26.8837 49.6767 28.7524 49.6142 27.4703C49.5516 26.1882 47.4133 23.3088 48.9026 23.1226C50.3919 22.9365 52.9361 19.1521 52.2535 16.7325Z" fill="#2F2E41"/>
<path d="M46.8628 32.6763H59.9767L69.2493 81.6358C69.2493 81.6358 61.1653 82.3269 56.5449 84.0593C51.9244 85.7916 44.2433 80.1021 44.2433 80.1021L46.8628 32.6763Z" fill="#00B0FF"/>
<path d="M48.5 38.2052V32.6763L47.0151 32.6672L36.1666 39.5633L38.5206 77.3459C38.5206 77.3459 41.3068 89.9507 45.5327 89.82C49.7585 89.6893 53.017 44.7537 48.5 38.2052Z" fill="#2F2E41"/>
<path d="M39.6513 40.6069L36.1666 39.5632C36.1666 39.5632 33.587 40.3182 33.587 42.9167C33.587 45.5152 31.3643 82.4331 31.3643 82.4331L38.4251 83.057L39.9401 64.2819L39.6513 40.6069Z" fill="#2F2E41"/>
<path d="M58.9995 36.2761L58.3049 32.6762L60.299 32.3784L67.5184 35.2656C67.5184 35.2656 74.016 82.7599 71.1282 84.2035C68.2404 85.6471 66.2906 84.5287 66.2906 84.5287C66.2906 84.5287 56.7923 49.4995 58.4735 44.7645L58.9995 36.2761Z" fill="#2F2E41"/>
<path d="M62.4648 35.9874L63.6969 35.4512C63.6969 35.4512 67.3133 33.6595 69.3651 37.2775C71.417 40.8956 78.6364 81.3163 78.6364 81.3163L72.6962 82.433L68.2552 67.8863L62.4648 35.9874Z" fill="#2F2E41"/>
<path d="M110.313 147H0.288778C0.21219 147 0.138737 146.97 0.084581 146.915C0.0304246 146.861 0 146.788 0 146.711C0 146.635 0.0304246 146.561 0.084581 146.507C0.138737 146.453 0.21219 146.423 0.288778 146.423H110.313C110.39 146.423 110.463 146.453 110.518 146.507C110.572 146.561 110.602 146.635 110.602 146.711C110.602 146.788 110.572 146.861 110.518 146.915C110.463 146.97 110.39 147 110.313 147Z" fill="#CACACA"/>
</g>
<defs>
<clipPath id="clip0_8_4502">
<rect width="261" height="147" fill="white"/>
</clipPath>
</defs>
</svg>
