<svg width="18" height="18" viewBox="0 0 18 18" fill="none" xmlns="http://www.w3.org/2000/svg">
<path fill-rule="evenodd" clip-rule="evenodd" d="M17.8018 8.58317L16.4409 7.5173L17.2954 6.02936C17.4642 5.72327 17.306 5.34337 16.9684 5.25897L15.2769 4.79463L15.4879 3.04983C15.5301 2.71213 15.2346 2.42724 14.9076 2.4694L13.1986 2.68048L12.7344 1.02363C12.65 0.685926 12.2702 0.527676 11.9643 0.696476L10.4768 1.55127L9.41124 0.18997C9.31625 0.0633352 9.15805 0 8.99981 0C8.84157 0 8.6833 0.0633352 8.58838 0.18997L7.52285 1.55127L6.03537 0.696476C5.72945 0.527676 5.34959 0.685926 5.26529 1.02363L4.80109 2.68048L3.05681 2.4694C2.70862 2.42724 2.43434 2.72268 2.47653 3.04983L2.68753 4.79463L1.0312 5.25897C0.693605 5.34344 0.535404 5.72331 0.704151 6.02936L1.55868 7.5173L0.197804 8.58317C-0.0659345 8.79424 -0.0659345 9.19528 0.197804 9.40635L1.55868 10.4721L0.704186 11.9602C0.535439 12.2662 0.69364 12.6461 1.03124 12.7305L2.68757 13.1948L2.47656 14.9044C2.43441 15.2316 2.70869 15.5271 3.05684 15.4848L4.80109 15.2738L5.26529 16.9657C5.34966 17.3035 5.72948 17.4618 6.03537 17.2929L7.52285 16.4381L8.58838 17.7995C8.69392 17.9367 8.85212 18 8.99981 18C9.1475 18 9.30573 17.9367 9.41124 17.7995L10.4768 16.4381L11.9642 17.2929C12.2702 17.4618 12.65 17.3035 12.7343 16.9657L13.1985 15.2738L14.9076 15.4848C15.2558 15.5271 15.5301 15.2316 15.4879 14.9044L15.2769 13.1948L16.9683 12.7305C17.3059 12.646 17.4641 12.2661 17.2954 11.9602L16.4409 10.4721L17.8017 9.40635C18.0656 9.19528 18.0656 8.79424 17.8018 8.58317Z" fill="#FF69B4"/>
<path d="M17.8019 9.40631L16.4411 10.4721L17.2956 11.9601C17.4643 12.2661 17.3061 12.646 16.9685 12.7304L15.2771 13.1948L15.4881 14.9044C15.5302 15.2315 15.2559 15.527 14.9078 15.4848L13.1987 15.2738L12.7345 16.9657C12.6501 17.3034 12.2703 17.4617 11.9644 17.2929L10.477 16.4381L9.41143 17.7994C9.30589 17.9366 9.14769 18 9 18V0C9.15827 0 9.31651 0.0633352 9.41143 0.18997L10.477 1.55127L11.9644 0.696476C12.2704 0.527676 12.6502 0.685926 12.7345 1.02363L13.1987 2.68047L14.9078 2.4694C15.2348 2.42724 15.5302 2.71209 15.4881 3.04983L15.2771 4.79463L16.9685 5.25897C17.3061 5.34344 17.4643 5.72331 17.2956 6.02936L16.4411 7.5173L17.8019 8.58317C18.0657 8.79424 18.0657 9.19528 17.8019 9.40631Z" fill="#FF69B4"/>
<path d="M8.99602 14.7991C5.79657 14.7991 3.15845 12.1953 3.15845 8.9949C3.15845 5.79448 5.79657 3.1555 8.99602 3.1555C12.1955 3.1555 14.7984 5.79445 14.7984 8.9949C14.7984 12.1953 12.1955 14.7991 8.99602 14.7991Z" fill="#FF69B4"/>
<path d="M14.8024 8.9949C14.8024 5.79445 12.1994 3.1555 9 3.1555V14.7991C12.1995 14.7991 14.8024 12.1953 14.8024 8.9949Z" fill="#FF69B4"/>
<path d="M11.5505 6.12417L8.99753 9.95495L7.33062 12.456C7.17242 12.6882 6.84536 12.7621 6.59214 12.6038C6.34953 12.435 6.28621 12.1078 6.44448 11.8651L8.99749 8.03429L10.6644 5.5332C10.8331 5.29051 11.1602 5.22718 11.4029 5.38546C11.6455 5.5543 11.7088 5.88145 11.5505 6.12417Z" fill="white"/>
<path d="M11.553 6.12417L9 9.95495V8.03429L10.6669 5.5332C10.8357 5.29051 11.1627 5.22718 11.4054 5.38546C11.648 5.5543 11.7113 5.88145 11.553 6.12417Z" fill="white"/>
<path fill-rule="evenodd" clip-rule="evenodd" d="M9.52734 11.1052C9.52734 11.978 10.2372 12.6881 11.1098 12.6881C11.9824 12.6881 12.6923 11.978 12.6923 11.1052C12.6923 10.2323 11.9824 9.5222 11.1098 9.5222C10.2372 9.5222 9.52734 10.2323 9.52734 11.1052ZM10.582 11.1054C10.582 10.8143 10.8186 10.5777 11.1097 10.5777C11.4008 10.5777 11.6373 10.8143 11.6373 11.1054C11.6373 11.3965 11.4008 11.633 11.1097 11.633C10.8186 11.633 10.582 11.3965 10.582 11.1054Z" fill="white"/>
<path fill-rule="evenodd" clip-rule="evenodd" d="M5.31055 6.88392C5.31055 7.75679 6.02041 8.46688 6.89301 8.46688C7.76565 8.46688 8.47547 7.75679 8.47547 6.88392C8.47547 6.01105 7.76561 5.30096 6.89301 5.30096C6.02041 5.30096 5.31055 6.01105 5.31055 6.88392ZM6.36513 6.88404C6.36513 6.59293 6.60166 6.3564 6.89277 6.3564C7.18392 6.3564 7.42041 6.59293 7.42041 6.88404C7.42041 7.17515 7.18388 7.41169 6.89277 7.41169C6.60166 7.41169 6.36513 7.17515 6.36513 6.88404Z" fill="white"/>
</svg>
