<svg width="28" height="28" viewBox="0 0 28 28" fill="none" xmlns="http://www.w3.org/2000/svg">
<path d="M17.5368 1.02811C17.3196 1.03149 17.1104 1.11052 16.9452 1.25158C16.78 1.39264 16.6692 1.58691 16.6318 1.8009C16.5945 2.0149 16.6329 2.23523 16.7405 2.42392C16.8482 2.61261 17.0183 2.75785 17.2215 2.83462C20.8541 4.25426 23.7461 7.14628 25.1657 10.7789C25.2104 10.8931 25.2771 10.9974 25.362 11.0858C25.447 11.1742 25.5485 11.245 25.6608 11.2942C25.7731 11.3433 25.894 11.3699 26.0166 11.3724C26.1392 11.3748 26.2611 11.3531 26.3752 11.3084C26.4894 11.2638 26.5937 11.1971 26.6821 11.1122C26.7705 11.0272 26.8413 10.9257 26.8905 10.8134C26.9397 10.7011 26.9663 10.5802 26.9687 10.4576C26.9712 10.335 26.9494 10.2131 26.9048 10.0989C25.2948 5.97929 22.0211 2.70553 17.9014 1.09556C17.7856 1.04892 17.6616 1.02599 17.5368 1.02811ZM16.8788 4.81796C16.6694 4.82677 16.469 4.9058 16.31 5.04232C16.151 5.17884 16.0425 5.36491 16.0021 5.57056C15.9617 5.77621 15.9917 5.98948 16.0872 6.17603C16.1827 6.36258 16.3383 6.51154 16.5288 6.59894C18.6612 7.61254 20.3878 9.33919 21.4014 11.4716C21.4512 11.5868 21.5236 11.6907 21.6145 11.7773C21.7053 11.8638 21.8126 11.9312 21.9301 11.9753C22.0475 12.0194 22.1727 12.0394 22.298 12.034C22.4234 12.0287 22.5464 11.9982 22.6596 11.9442C22.7729 11.8903 22.8741 11.8141 22.9573 11.7201C23.0404 11.6262 23.1038 11.5164 23.1436 11.3974C23.1834 11.2784 23.1987 11.1527 23.1888 11.0276C23.1789 10.9025 23.1438 10.7807 23.0858 10.6695C21.8874 8.14832 19.852 6.11297 17.3308 4.91457C17.1906 4.84497 17.0352 4.81174 16.8788 4.81796ZM11.2004 7.46665L9.93527 9.36431C9.5638 9.92151 9.519 10.6354 9.8186 11.2346L10.267 12.1333L4.18397 19.075C3.8937 19.4138 3.7337 19.8447 3.7337 20.2909V22.9469L2.14048 24.5401C2.0509 24.6261 1.97939 24.7291 1.93012 24.8431C1.88085 24.9571 1.85483 25.0797 1.85356 25.2039C1.8523 25.3281 1.87583 25.4513 1.92276 25.5662C1.9697 25.6812 2.0391 25.7856 2.12691 25.8734C2.21472 25.9613 2.31916 26.0307 2.43413 26.0776C2.54909 26.1245 2.67227 26.1481 2.79644 26.1468C2.92061 26.1455 3.04328 26.1195 3.15727 26.0702C3.27125 26.021 3.37427 25.9495 3.46027 25.8599L5.0535 24.2667H7.70949C8.15469 24.2667 8.58657 24.1067 8.92537 23.8164L15.867 17.7333L16.7657 18.1818C17.3649 18.4814 18.0788 18.4366 18.636 18.0651L20.5337 16.8C20.5337 16.8 20.5337 13.0667 17.7337 10.2667C14.9337 7.46665 11.2004 7.46665 11.2004 7.46665ZM13.067 14C13.3059 14 13.5449 14.091 13.7269 14.2734C14.0919 14.6374 14.0919 15.2292 13.7269 15.5932L12.7936 16.5265C12.4287 16.8915 11.8378 16.8915 11.4738 16.5265C11.1089 16.1616 11.1089 15.5708 11.4738 15.2068L12.4071 14.2734C12.5896 14.091 12.8282 14 13.067 14Z" fill="white"/>
</svg>
