<svg width="28" height="28" viewBox="0 0 28 28" fill="none" xmlns="http://www.w3.org/2000/svg">
<path d="M9.33302 3.73334C8.08857 3.73334 7.18198 4.35677 6.48198 4.82344C5.78198 5.29011 5.28857 5.6 4.66635 5.6C4.54268 5.59825 4.41988 5.6211 4.30511 5.66722C4.19034 5.71334 4.08588 5.78181 3.9978 5.86865C3.90973 5.9555 3.83979 6.05898 3.79205 6.17308C3.74431 6.28719 3.71973 6.40965 3.71973 6.53334C3.71973 6.65703 3.74431 6.77948 3.79205 6.89359C3.83979 7.0077 3.90973 7.11118 3.9978 7.19802C4.08588 7.28486 4.19034 7.35333 4.30511 7.39945C4.41988 7.44557 4.54268 7.46842 4.66635 7.46667C5.9108 7.46667 6.81739 6.84323 7.51739 6.37657C8.21739 5.9099 8.7108 5.6 9.33302 5.6C9.95524 5.6 10.4486 5.9099 11.1486 6.37657C11.8486 6.84323 12.7552 7.46667 13.9997 7.46667C15.2441 7.46667 16.1507 6.84323 16.8507 6.37657C17.5507 5.9099 18.0441 5.6 18.6664 5.6C19.2886 5.6 19.782 5.9099 20.482 6.37657C21.182 6.84323 22.0886 7.46667 23.333 7.46667C23.4567 7.46842 23.5795 7.44557 23.6943 7.39945C23.809 7.35333 23.9135 7.28486 24.0016 7.19802C24.0896 7.11118 24.1596 7.0077 24.2073 6.89359C24.2551 6.77948 24.2796 6.65703 24.2796 6.53334C24.2796 6.40965 24.2551 6.28719 24.2073 6.17308C24.1596 6.05898 24.0896 5.9555 24.0016 5.86865C23.9135 5.78181 23.809 5.71334 23.6943 5.66722C23.5795 5.6211 23.4567 5.59825 23.333 5.6C22.7108 5.6 22.2174 5.29011 21.5174 4.82344C20.8174 4.35677 19.9108 3.73334 18.6664 3.73334C17.4219 3.73334 16.5153 4.35677 15.8153 4.82344C15.1153 5.29011 14.6219 5.6 13.9997 5.6C13.3775 5.6 12.8841 5.29011 12.1841 4.82344C11.4841 4.35677 10.5775 3.73334 9.33302 3.73334ZM9.33302 9.33334C8.08857 9.33334 7.18198 9.95677 6.48198 10.4234C5.78198 10.8901 5.28857 11.2 4.66635 11.2C4.54268 11.1983 4.41988 11.2211 4.30511 11.2672C4.19034 11.3133 4.08588 11.3818 3.9978 11.4687C3.90973 11.5555 3.83979 11.659 3.79205 11.7731C3.74431 11.8872 3.71973 12.0096 3.71973 12.1333C3.71973 12.257 3.74431 12.3795 3.79205 12.4936C3.83979 12.6077 3.90973 12.7112 3.9978 12.798C4.08588 12.8849 4.19034 12.9533 4.30511 12.9995C4.41988 13.0456 4.54268 13.0684 4.66635 13.0667C5.9108 13.0667 6.81739 12.4432 7.51739 11.9766C8.21739 11.5099 8.7108 11.2 9.33302 11.2C9.95524 11.2 10.4486 11.5099 11.1486 11.9766C11.8486 12.4432 12.7552 13.0667 13.9997 13.0667C15.2441 13.0667 16.1507 12.4432 16.8507 11.9766C17.5507 11.5099 18.0441 11.2 18.6664 11.2C19.2886 11.2 19.782 11.5099 20.482 11.9766C21.182 12.4432 22.0886 13.0667 23.333 13.0667C23.4567 13.0684 23.5795 13.0456 23.6943 12.9995C23.809 12.9533 23.9135 12.8849 24.0016 12.798C24.0896 12.7112 24.1596 12.6077 24.2073 12.4936C24.2551 12.3795 24.2796 12.257 24.2796 12.1333C24.2796 12.0096 24.2551 11.8872 24.2073 11.7731C24.1596 11.659 24.0896 11.5555 24.0016 11.4687C23.9135 11.3818 23.809 11.3133 23.6943 11.2672C23.5795 11.2211 23.4567 11.1983 23.333 11.2C22.7108 11.2 22.2174 10.8901 21.5174 10.4234C20.8174 9.95677 19.9108 9.33334 18.6664 9.33334C17.4219 9.33334 16.5153 9.95677 15.8153 10.4234C15.1153 10.8901 14.6219 11.2 13.9997 11.2C13.3775 11.2 12.8841 10.8901 12.1841 10.4234C11.4841 9.95677 10.5775 9.33334 9.33302 9.33334ZM9.33302 14.9333C8.08857 14.9333 7.18198 15.5568 6.48198 16.0234C5.78198 16.4901 5.28857 16.8 4.66635 16.8C4.54268 16.7983 4.41988 16.8211 4.30511 16.8672C4.19034 16.9133 4.08588 16.9818 3.9978 17.0687C3.90973 17.1555 3.83979 17.259 3.79205 17.3731C3.74431 17.4872 3.71973 17.6096 3.71973 17.7333C3.71973 17.857 3.74431 17.9795 3.79205 18.0936C3.83979 18.2077 3.90973 18.3112 3.9978 18.398C4.08588 18.4849 4.19034 18.5533 4.30511 18.5995C4.41988 18.6456 4.54268 18.6684 4.66635 18.6667C5.9108 18.6667 6.81739 18.0432 7.51739 17.5766C8.21739 17.1099 8.7108 16.8 9.33302 16.8C9.95524 16.8 10.4486 17.1099 11.1486 17.5766C11.8486 18.0432 12.7552 18.6667 13.9997 18.6667C15.2441 18.6667 16.1507 18.0432 16.8507 17.5766C17.5507 17.1099 18.0441 16.8 18.6664 16.8C19.2886 16.8 19.782 17.1099 20.482 17.5766C21.182 18.0432 22.0886 18.6667 23.333 18.6667C23.4567 18.6684 23.5795 18.6456 23.6943 18.5995C23.809 18.5533 23.9135 18.4849 24.0016 18.398C24.0896 18.3112 24.1596 18.2077 24.2073 18.0936C24.2551 17.9795 24.2796 17.857 24.2796 17.7333C24.2796 17.6096 24.2551 17.4872 24.2073 17.3731C24.1596 17.259 24.0896 17.1555 24.0016 17.0687C23.9135 16.9818 23.809 16.9133 23.6943 16.8672C23.5795 16.8211 23.4567 16.7983 23.333 16.8C22.7108 16.8 22.2174 16.4901 21.5174 16.0234C20.8174 15.5568 19.9108 14.9333 18.6664 14.9333C17.4219 14.9333 16.5153 15.5568 15.8153 16.0234C15.1153 16.4901 14.6219 16.8 13.9997 16.8C13.3775 16.8 12.8841 16.4901 12.1841 16.0234C11.4841 15.5568 10.5775 14.9333 9.33302 14.9333ZM9.33302 20.5333C8.08857 20.5333 7.18198 21.1568 6.48198 21.6234C5.78198 22.0901 5.28857 22.4 4.66635 22.4C4.54268 22.3983 4.41988 22.4211 4.30511 22.4672C4.19034 22.5133 4.08588 22.5818 3.9978 22.6687C3.90973 22.7555 3.83979 22.859 3.79205 22.9731C3.74431 23.0872 3.71973 23.2096 3.71973 23.3333C3.71973 23.457 3.74431 23.5795 3.79205 23.6936C3.83979 23.8077 3.90973 23.9112 3.9978 23.998C4.08588 24.0849 4.19034 24.1533 4.30511 24.1994C4.41988 24.2456 4.54268 24.2684 4.66635 24.2667C5.9108 24.2667 6.81739 23.6432 7.51739 23.1766C8.21739 22.7099 8.7108 22.4 9.33302 22.4C9.95524 22.4 10.4486 22.7099 11.1486 23.1766C11.8486 23.6432 12.7552 24.2667 13.9997 24.2667C15.2441 24.2667 16.1507 23.6432 16.8507 23.1766C17.5507 22.7099 18.0441 22.4 18.6664 22.4C19.2886 22.4 19.782 22.7099 20.482 23.1766C21.182 23.6432 22.0886 24.2667 23.333 24.2667C23.4567 24.2684 23.5795 24.2456 23.6943 24.1994C23.809 24.1533 23.9135 24.0849 24.0016 23.998C24.0896 23.9112 24.1596 23.8077 24.2073 23.6936C24.2551 23.5795 24.2796 23.457 24.2796 23.3333C24.2796 23.2096 24.2551 23.0872 24.2073 22.9731C24.1596 22.859 24.0896 22.7555 24.0016 22.6687C23.9135 22.5818 23.809 22.5133 23.6943 22.4672C23.5795 22.4211 23.4567 22.3983 23.333 22.4C22.7108 22.4 22.2174 22.0901 21.5174 21.6234C20.8174 21.1568 19.9108 20.5333 18.6664 20.5333C17.4219 20.5333 16.5153 21.1568 15.8153 21.6234C15.1153 22.0901 14.6219 22.4 13.9997 22.4C13.3775 22.4 12.8841 22.0901 12.1841 21.6234C11.4841 21.1568 10.5775 20.5333 9.33302 20.5333Z" fill="white"/>
</svg>
