<svg width="18" height="18" viewBox="0 0 18 18" fill="none" xmlns="http://www.w3.org/2000/svg">
<path d="M8.99961 0.624001C6.0563 0.624001 3.65415 2.73789 3.65415 5.328V6.672H2.12688C1.28306 6.672 0.599609 7.27344 0.599609 8.016V16.08C0.599609 16.8226 1.28306 17.424 2.12688 17.424H15.8723C16.7162 17.424 17.3996 16.8226 17.3996 16.08V8.016C17.3996 7.27344 16.7162 6.672 15.8723 6.672H5.18143V5.328C5.18143 3.4641 6.88154 1.968 8.99961 1.968C10.6677 1.968 12.0716 2.90522 12.5956 4.20844C12.6273 4.29359 12.678 4.37229 12.7448 4.43993C12.8116 4.50757 12.8931 4.56277 12.9845 4.60229C13.0759 4.6418 13.1753 4.66484 13.277 4.67004C13.3786 4.67524 13.4804 4.6625 13.5764 4.63257C13.6724 4.60263 13.7606 4.55611 13.8358 4.49574C13.9111 4.43537 13.9718 4.36237 14.0146 4.28103C14.0573 4.19969 14.0811 4.11165 14.0845 4.0221C14.088 3.93255 14.0711 3.84328 14.0348 3.75956C13.3003 1.93261 11.3193 0.624001 8.99961 0.624001Z" fill="white"/>
</svg>
