<svg width="21" height="22" viewBox="0 0 21 22" fill="none" xmlns="http://www.w3.org/2000/svg">
<path d="M20.9966 9.8822C20.9966 9.86876 20.9837 9.83382 20.9708 9.80044L10.9082 9.80358L10.9171 13.5584C10.9472 13.5606 10.977 13.5631 11.0062 13.5647L15.1395 13.5721C15.1395 13.5721 15.1907 13.9177 15.1348 14.2393C14.9196 15.569 14.1947 16.5205 12.9797 17.0677C12.2983 17.3753 11.5364 17.5377 10.7763 17.5377C9.18796 17.5377 7.76311 16.8652 6.76398 15.6442C6.31354 15.0939 5.96691 14.4985 5.73367 13.8749C4.93882 11.7479 4.99362 9.61296 5.89629 7.52936C6.2055 6.81616 6.6624 6.1621 7.25475 5.58486C8.12935 4.73279 9.37197 4.24425 10.6643 4.24425C12.4335 4.24425 13.9437 5.13239 14.8078 6.68109C14.8606 6.77607 14.9101 6.87328 14.9593 6.97049C15.0052 7.06121 15.0506 7.15215 15.1005 7.24085C15.1319 7.29708 15.1694 7.35263 15.2153 7.41938L19.6876 5.54611C19.7288 5.52886 19.7885 5.51139 19.8393 5.47264C19.8264 5.42762 19.799 5.37386 19.7838 5.34295C18.5564 2.84294 16.6599 1.20442 14.1464 0.472405C13.07 0.158812 11.9652 0 10.8632 0C9.69031 0 8.49157 0.179644 7.30019 0.534675C4.01142 1.5142 1.78037 3.64283 0.669631 6.86163C-0.0942513 9.07492 -0.205191 11.3639 0.33993 13.6648C1.15394 17.1007 3.18717 19.4819 6.38394 20.7419C8.25677 21.4804 10.276 21.7076 12.3702 21.4143C16.3291 20.8606 19.0133 18.6585 20.3488 14.8679C20.9616 13.127 21.0171 11.2889 20.9966 9.8822Z" fill="#3A3A3A"/>
</svg>
