<svg width="14" height="14" viewBox="0 0 14 14" fill="none" xmlns="http://www.w3.org/2000/svg">
<path d="M8.00863 2.04754L9.03529 4.10087C9.17529 4.38671 9.54862 4.66087 9.86363 4.71337L11.7245 5.02254C12.9145 5.22087 13.1945 6.08421 12.337 6.93587L10.8903 8.38254C10.6453 8.62754 10.5111 9.10004 10.587 9.43837L11.0011 11.2292C11.3278 12.6467 10.5753 13.195 9.32113 12.4542L7.57696 11.4217C7.26196 11.235 6.74279 11.235 6.42196 11.4217L4.67779 12.4542C3.42946 13.195 2.67113 12.6409 2.99779 11.2292L3.41196 9.43837C3.48779 9.10004 3.35363 8.62754 3.10863 8.38254L1.66196 6.93587C0.810292 6.08421 1.08446 5.22087 2.27446 5.02254L4.13529 4.71337C4.44446 4.66087 4.81779 4.38671 4.95779 4.10087L5.98446 2.04754C6.54446 0.933372 7.45446 0.933372 8.00863 2.04754Z" fill="#3A3A3A"/>
</svg>
