<svg width="14" height="13" viewBox="0 0 14 13" fill="none" xmlns="http://www.w3.org/2000/svg">
<path fill-rule="evenodd" clip-rule="evenodd" d="M6.93333 0.975C3.67854 0.975 1.04 3.44863 1.04 6.5C1.04 9.55137 3.67854 12.025 6.93333 12.025C10.1881 12.025 12.8267 9.55137 12.8267 6.5C12.8267 3.44863 10.1881 0.975 6.93333 0.975ZM0 6.5C0 2.91015 3.10416 0 6.93333 0C10.7625 0 13.8667 2.91015 13.8667 6.5C13.8667 10.0899 10.7625 13 6.93333 13C3.10416 13 0 10.0899 0 6.5Z" fill="#949494"/>
<path fill-rule="evenodd" clip-rule="evenodd" d="M4.86226 5.53869C5.04566 5.3315 5.37349 5.30293 5.59449 5.47487L6.93335 6.51651L8.2722 5.47487C8.4932 5.30293 8.82104 5.3315 9.00444 5.53869C9.18784 5.74588 9.15736 6.05322 8.93636 6.22516L7.26543 7.52516C7.07287 7.67496 6.79382 7.67496 6.60127 7.52516L4.93033 6.22516C4.70933 6.05322 4.67885 5.74588 4.86226 5.53869Z" fill="#949494"/>
</svg>
