<svg width="24" height="24" viewBox="0 0 24 24" fill="none" xmlns="http://www.w3.org/2000/svg">
<path d="M13.9998 1H9.99984C9.44984 1 8.99984 1.45 8.99984 2C8.99984 2.55 9.44984 3 9.99984 3H13.9998C14.5498 3 14.9998 2.55 14.9998 2C14.9998 1.45 14.5498 1 13.9998 1ZM11.9998 14C12.5498 14 12.9998 13.55 12.9998 13V9C12.9998 8.45 12.5498 8 11.9998 8C11.4498 8 10.9998 8.45 10.9998 9V13C10.9998 13.55 11.4498 14 11.9998 14ZM19.0298 7.39L19.7798 6.64C19.9647 6.45395 20.0685 6.2023 20.0685 5.94C20.0685 5.67769 19.9647 5.42604 19.7798 5.24L19.7698 5.23C19.5838 5.04509 19.3321 4.94131 19.0698 4.94131C18.8075 4.94131 18.5559 5.04509 18.3698 5.23L17.6198 5.98C16.0272 4.69833 14.0442 3.99969 11.9998 4C7.19984 4 3.11984 7.96 2.99984 12.76C2.9675 13.962 3.17641 15.1583 3.61422 16.2782C4.05204 17.3981 4.70988 18.4189 5.54888 19.2803C6.38787 20.1417 7.39101 20.8261 8.499 21.2933C9.607 21.7604 10.7974 22.0007 11.9998 22C13.6941 22.0009 15.3543 21.5232 16.789 20.622C18.2237 19.7207 19.3746 18.4325 20.1093 16.9057C20.8439 15.379 21.1324 13.6758 20.9414 11.9923C20.7504 10.3087 20.0878 8.71341 19.0298 7.39ZM11.9998 20C8.12984 20 4.99984 16.87 4.99984 13C4.99984 9.13 8.12984 6 11.9998 6C15.8698 6 18.9998 9.13 18.9998 13C18.9998 16.87 15.8698 20 11.9998 20Z" fill="black" fill-opacity="0.35"/>
</svg>
