<svg width="14" height="14" viewBox="0 0 14 14" fill="none" xmlns="http://www.w3.org/2000/svg">
<path d="M8.0085 2.04754L9.03517 4.10087C9.17517 4.38671 9.5485 4.66087 9.8635 4.71337L11.7243 5.02254C12.9143 5.22087 13.1943 6.08421 12.3368 6.93587L10.8902 8.38254C10.6452 8.62754 10.511 9.10004 10.5868 9.43837L11.001 11.2292C11.3277 12.6467 10.5752 13.195 9.321 12.4542L7.57684 11.4217C7.26184 11.235 6.74267 11.235 6.42184 11.4217L4.67767 12.4542C3.42934 13.195 2.671 12.6409 2.99767 11.2292L3.41184 9.43837C3.48767 9.10004 3.3535 8.62754 3.1085 8.38254L1.66184 6.93587C0.81017 6.08421 1.08434 5.22087 2.27434 5.02254L4.13517 4.71337C4.44434 4.66087 4.81767 4.38671 4.95767 4.10087L5.98434 2.04754C6.54434 0.933372 7.45434 0.933372 8.0085 2.04754Z" fill="#7F7F7F"/>
</svg>
