<svg width="98" height="98" viewBox="0 0 98 98" fill="none" xmlns="http://www.w3.org/2000/svg">
<rect x="2.5" y="2.5" width="93" height="93" rx="46.5" stroke="#FF69B4" stroke-width="5"/>
<path d="M66.0267 47.83C66.0255 47.0388 65.7401 46.2744 65.2225 45.676C64.7049 45.0776 63.9895 44.6851 63.2067 44.57C61.8367 37.34 56.0267 31.97 49.0267 31.97C42.0267 31.97 36.2167 37.34 34.8467 44.57C34.0582 44.6772 33.3353 45.0666 32.8118 45.666C32.2884 46.2654 32 47.0342 32 47.83C32 48.6258 32.2884 49.3946 32.8118 49.994C33.3353 50.5934 34.0582 50.9828 34.8467 51.09C36.2167 58.34 42.0267 63.7 49.0267 63.7C56.0267 63.7 61.8367 58.34 63.2067 51.09C63.9895 50.9749 64.7049 50.5824 65.2225 49.984C65.7401 49.3856 66.0255 48.6212 66.0267 47.83Z" fill="#FFDA8F"/>
<path d="M34.8467 47.88C35.5015 44.6012 37.2722 41.6507 39.8576 39.5306C42.443 37.4105 45.6832 36.2518 49.0267 36.2518C52.3702 36.2518 55.6104 37.4105 58.1957 39.5306C60.7811 41.6507 62.5519 44.6012 63.2067 47.88C63.6976 47.9416 64.1686 48.1117 64.5854 48.3781C65.0023 48.6445 65.3546 49.0004 65.6167 49.42C65.8747 48.9539 66.0157 48.4322 66.0275 47.8996C66.0394 47.367 65.9217 46.8395 65.6846 46.3625C65.4476 45.8854 65.0982 45.473 64.6666 45.1608C64.235 44.8486 63.734 44.6458 63.2067 44.57C61.8367 37.34 56.0267 31.97 49.0267 31.97C42.0267 31.97 36.2167 37.34 34.8467 44.57C34.3194 44.6458 33.8184 44.8486 33.3868 45.1608C32.9551 45.473 32.6058 45.8854 32.3687 46.3625C32.1317 46.8395 32.014 47.367 32.0258 47.8996C32.0377 48.4322 32.1787 48.9539 32.4367 49.42C32.6988 49.0004 33.0511 48.6445 33.4679 48.3781C33.8848 48.1117 34.3558 47.9416 34.8467 47.88Z" fill="#FFE9BD"/>
<path d="M66.0267 47.83C66.0255 47.0388 65.7401 46.2744 65.2225 45.676C64.7049 45.0776 63.9895 44.6851 63.2067 44.57C61.8367 37.34 56.0267 31.97 49.0267 31.97C42.0267 31.97 36.2167 37.34 34.8467 44.57C34.0582 44.6772 33.3353 45.0666 32.8118 45.666C32.2884 46.2654 32 47.0342 32 47.83C32 48.6258 32.2884 49.3946 32.8118 49.994C33.3353 50.5934 34.0582 50.9828 34.8467 51.09C36.2167 58.34 42.0267 63.7 49.0267 63.7C56.0267 63.7 61.8367 58.34 63.2067 51.09C63.9895 50.9749 64.7049 50.5824 65.2225 49.984C65.7401 49.3856 66.0255 48.6212 66.0267 47.83Z" stroke="#45413C" stroke-linecap="round" stroke-linejoin="round"/>
<path d="M44.5868 54.34C44.4861 54.3387 44.3864 54.3595 44.2946 54.4008C44.2028 54.4421 44.1212 54.503 44.0554 54.5793C43.9897 54.6555 43.9414 54.7452 43.914 54.8421C43.8866 54.9389 43.8807 55.0406 43.8968 55.14C44.0982 56.3551 44.7244 57.4593 45.6639 58.2559C46.6033 59.0524 47.7951 59.4896 49.0268 59.4896C50.2585 59.4896 51.4502 59.0524 52.3897 58.2559C53.3291 57.4593 53.9554 56.3551 54.1568 55.14C54.1728 55.0406 54.1669 54.9389 54.1395 54.8421C54.1121 54.7452 54.0639 54.6555 53.9981 54.5793C53.9324 54.503 53.8507 54.4421 53.7589 54.4008C53.6672 54.3595 53.5674 54.3387 53.4668 54.34H44.5868Z" fill="#FF6242"/>
<path d="M49.0268 56.46C47.6125 56.4149 46.2232 56.8404 45.0768 57.67C45.5695 58.2328 46.1769 58.6838 46.8581 58.9928C47.5393 59.3018 48.2787 59.4617 49.0268 59.4617C49.7748 59.4617 50.5142 59.3018 51.1955 58.9928C51.8767 58.6838 52.484 58.2328 52.9768 57.67C51.8304 56.8404 50.4411 56.4149 49.0268 56.46Z" fill="#FFA694"/>
<path d="M44.5868 54.34C44.4861 54.3387 44.3864 54.3595 44.2946 54.4008C44.2028 54.4421 44.1212 54.503 44.0554 54.5793C43.9897 54.6555 43.9414 54.7452 43.914 54.8421C43.8866 54.9389 43.8807 55.0406 43.8968 55.14C44.0982 56.3551 44.7244 57.4593 45.6639 58.2559C46.6033 59.0524 47.7951 59.4896 49.0268 59.4896C50.2585 59.4896 51.4502 59.0524 52.3897 58.2559C53.3291 57.4593 53.9554 56.3551 54.1568 55.14C54.1728 55.0406 54.1669 54.9389 54.1395 54.8421C54.1121 54.7452 54.0639 54.6555 53.9981 54.5793C53.9324 54.503 53.8507 54.4421 53.7589 54.4008C53.6672 54.3595 53.5674 54.3387 53.4668 54.34H44.5868Z" stroke="#45413C" stroke-linecap="round" stroke-linejoin="round"/>
<path d="M38.1567 52.12C38.1567 52.3693 38.3221 52.6084 38.6166 52.7847C38.911 52.961 39.3103 53.06 39.7267 53.06C40.1431 53.06 40.5425 52.961 40.8369 52.7847C41.1313 52.6084 41.2967 52.3693 41.2967 52.12C41.2967 51.8707 41.1313 51.6316 40.8369 51.4553C40.5425 51.279 40.1431 51.18 39.7267 51.18C39.3103 51.18 38.911 51.279 38.6166 51.4553C38.3221 51.6316 38.1567 51.8707 38.1567 52.12ZM56.7567 52.12C56.7567 52.3693 56.9221 52.6084 57.2166 52.7847C57.511 52.961 57.9103 53.06 58.3267 53.06C58.7431 53.06 59.1425 52.961 59.4369 52.7847C59.7313 52.6084 59.8967 52.3693 59.8967 52.12C59.8967 51.8707 59.7313 51.6316 59.4369 51.4553C59.1425 51.279 58.7431 51.18 58.3267 51.18C57.9103 51.18 57.511 51.279 57.2166 51.4553C56.9221 51.6316 56.7567 51.8707 56.7567 52.12Z" fill="#FFBE3D"/>
<path d="M49.0267 31C47.8349 31.0123 46.6959 31.4937 45.8567 32.34C46.1372 32.2467 46.431 32.1994 46.7267 32.2C47.1831 32.2009 47.6317 32.318 48.0304 32.5401C48.4291 32.7622 48.7647 33.0821 49.0056 33.4696C49.2466 33.8572 49.385 34.2997 49.4078 34.7555C49.4306 35.2113 49.3371 35.6655 49.136 36.0752C48.935 36.4849 48.633 36.8367 48.2585 37.0975C47.8839 37.3583 47.4492 37.5195 46.9952 37.566C46.5412 37.6125 46.0829 37.5427 45.6633 37.3632C45.2437 37.1837 44.8766 36.9004 44.5967 36.54C44.785 37.374 45.205 38.1378 45.8083 38.7436C46.4116 39.3494 47.1737 39.7726 48.0069 39.9643C48.8401 40.1561 49.7105 40.1087 50.5179 39.8276C51.3253 39.5465 52.037 39.0431 52.5709 38.3753C53.1049 37.7076 53.4394 36.9027 53.5361 36.0532C53.6327 35.2037 53.4875 34.3442 53.1172 33.5735C52.7469 32.8029 52.1665 32.1526 51.4428 31.6973C50.7192 31.242 49.8817 31.0003 49.0267 31Z" fill="#614B44"/>
<path d="M49.1367 33.65C50.1046 33.9064 50.9603 34.4763 51.57 35.2705C52.1797 36.0648 52.5091 37.0387 52.5067 38.04C52.5166 38.1932 52.5166 38.3468 52.5067 38.5C53.2288 37.6687 53.6203 36.6011 53.6067 35.5C53.5922 34.6085 53.3161 33.741 52.8127 33.0051C52.3093 32.2692 51.6008 31.6974 50.7752 31.3608C49.9496 31.0241 49.0433 30.9375 48.1689 31.1116C47.2944 31.2857 46.4904 31.7128 45.8567 32.34C46.1372 32.2467 46.431 32.1994 46.7267 32.2C47.2231 32.1958 47.7109 32.329 48.1363 32.5849C48.5616 32.8409 48.9079 33.2095 49.1367 33.65Z" fill="#947063"/>
<path d="M43.7367 46.83C43.6082 46.5393 43.398 46.2922 43.1317 46.1188C42.8654 45.9454 42.5545 45.853 42.2367 45.853C41.9189 45.853 41.6079 45.9454 41.3416 46.1188C41.0753 46.2922 40.8652 46.5393 40.7367 46.83M57.3367 46.83C57.2082 46.5393 56.998 46.2922 56.7317 46.1188C56.4654 45.9454 56.1545 45.853 55.8367 45.853C55.5189 45.853 55.2079 45.9454 54.9416 46.1188C54.6753 46.2922 54.4652 46.5393 54.3367 46.83M49.0267 31C47.8349 31.0123 46.6959 31.4937 45.8567 32.34C46.1372 32.2467 46.431 32.1994 46.7267 32.2C47.1831 32.2009 47.6317 32.318 48.0304 32.5401C48.4291 32.7622 48.7647 33.0821 49.0057 33.4696C49.2466 33.8572 49.385 34.2997 49.4079 34.7555C49.4307 35.2113 49.3371 35.6655 49.1361 36.0752C48.935 36.4849 48.633 36.8367 48.2585 37.0975C47.884 37.3583 47.4492 37.5195 46.9952 37.566C46.5412 37.6125 46.0829 37.5427 45.6633 37.3632C45.2437 37.1837 44.8766 36.9004 44.5967 36.54C44.785 37.374 45.205 38.1378 45.8083 38.7436C46.4116 39.3494 47.1737 39.7726 48.0069 39.9643C48.8401 40.1561 49.7105 40.1087 50.5179 39.8276C51.3254 39.5465 52.037 39.0431 52.571 38.3753C53.1049 37.7076 53.4395 36.9027 53.5361 36.0532C53.6327 35.2037 53.4875 34.3442 53.1172 33.5735C52.7469 32.8029 52.1665 32.1526 51.4428 31.6973C50.7192 31.242 49.8817 31.0003 49.0267 31Z" stroke="#45413C" stroke-linecap="round" stroke-linejoin="round"/>
<path opacity="0.15" d="M35.5267 70.84C35.5267 71.2378 36.9491 71.6194 39.4808 71.9007C42.0125 72.182 45.4463 72.34 49.0267 72.34C52.6072 72.34 56.0409 72.182 58.5727 71.9007C61.1044 71.6194 62.5267 71.2378 62.5267 70.84C62.5267 70.4422 61.1044 70.0606 58.5727 69.7793C56.0409 69.498 52.6072 69.34 49.0267 69.34C45.4463 69.34 42.0125 69.498 39.4808 69.7793C36.9491 70.0606 35.5267 70.4422 35.5267 70.84Z" fill="#45413C"/>
</svg>
