<svg width="20" height="20" viewBox="0 0 20 20" fill="none" xmlns="http://www.w3.org/2000/svg">
<path d="M18.3332 18.3333L16.6665 16.6667M9.58317 17.5C10.6228 17.5 11.6523 17.2952 12.6127 16.8974C13.5732 16.4995 14.446 15.9164 15.1811 15.1813C15.9162 14.4461 16.4994 13.5734 16.8972 12.6129C17.2951 11.6524 17.4998 10.623 17.4998 9.58332C17.4998 8.54369 17.2951 7.51424 16.8972 6.55375C16.4994 5.59325 15.9162 4.72052 15.1811 3.98539C14.446 3.25026 13.5732 2.66713 12.6127 2.26928C11.6523 1.87143 10.6228 1.66666 9.58317 1.66666C7.48354 1.66666 5.4699 2.50073 3.98524 3.98539C2.50058 5.47006 1.6665 7.48369 1.6665 9.58332C1.6665 11.683 2.50058 13.6966 3.98524 15.1813C5.4699 16.6659 7.48354 17.5 9.58317 17.5Z" stroke="#7C7C7C" stroke-width="1.5" stroke-linecap="round" stroke-linejoin="round"/>
</svg>
