<svg width="16" height="16" viewBox="0 0 16 16" fill="none" xmlns="http://www.w3.org/2000/svg">
<path d="M1.87963 10.5726L5.42041 14.1134C6.87424 15.5672 9.23476 15.5672 10.6964 14.1134L14.1278 10.682C15.5816 9.22821 15.5816 6.86769 14.1278 5.40604L10.5792 1.87307C9.83662 1.13052 8.81268 0.731892 7.7653 0.786607L3.85715 0.974198C2.29389 1.04454 1.0511 2.28734 0.972938 3.84278L0.785347 7.75093C0.738449 8.80613 1.13708 9.83006 1.87963 10.5726Z" stroke="#3A3A3A" stroke-width="1.5" stroke-linecap="round" stroke-linejoin="round"/>
<path d="M6.04847 7.99237C7.12768 7.99237 8.00254 7.1175 8.00254 6.03829C8.00254 4.95909 7.12768 4.08422 6.04847 4.08422C4.96926 4.08422 4.0944 4.95909 4.0944 6.03829C4.0944 7.1175 4.96926 7.99237 6.04847 7.99237Z" stroke="#3A3A3A" stroke-width="1.5" stroke-linecap="round"/>
</svg>
