<svg width="23" height="24" viewBox="0 0 23 24" fill="none" xmlns="http://www.w3.org/2000/svg">
<path d="M8.94435 15.5245L5.18862 11.7026C5.00891 11.5198 4.76519 11.4171 4.51107 11.4171C4.25696 11.4171 4.01325 11.5198 3.83353 11.7026C3.65387 11.8855 3.55294 12.1335 3.55294 12.3921C3.55294 12.6507 3.65387 12.8987 3.83353 13.0816L7.58926 16.9034C7.76725 17.0846 7.97857 17.2284 8.21117 17.3264C8.44376 17.4245 8.69306 17.475 8.94483 17.475C9.19659 17.475 9.44589 17.4245 9.67848 17.3264C9.91108 17.2284 10.1224 17.0846 10.3004 16.9034L19.1669 7.88077C19.3466 7.69789 19.4475 7.44988 19.4475 7.19129C19.4475 6.9327 19.3466 6.68469 19.1669 6.50182C18.9872 6.31899 18.7435 6.21629 18.4894 6.21629C18.2353 6.21629 17.9916 6.31899 17.8118 6.50182L8.94435 15.5245Z" fill="#3A4F39"/>
</svg>
