<svg width="24" height="24" viewBox="0 0 24 24" fill="none" xmlns="http://www.w3.org/2000/svg">
<path d="M18.4004 2.4C18.3664 2.39992 18.3325 2.40201 18.2988 2.40625L18.2816 2.40937C18.2738 2.4103 18.266 2.41134 18.2582 2.4125L7.88633 4.00781C7.69582 4.03525 7.52159 4.13046 7.3956 4.27596C7.26961 4.42147 7.2003 4.60752 7.20039 4.8V15.3687C7.20039 16.3199 7.09152 16.8 5.20352 16.8C3.11872 16.8 2.40039 18.0166 2.40039 19.2062C2.40039 20.1734 2.96519 21.6062 5.20039 21.6062C7.70359 21.6062 8.80039 20.0725 8.80039 18.7141V8.35156L17.6004 6.91718V13.7687C17.6004 14.7199 17.4915 15.2016 15.6035 15.2016C13.5187 15.2008 12.8004 16.4166 12.8004 17.6062C12.8004 18.5734 13.3652 20.0062 15.6004 20.0062C18.1036 20.0062 19.2004 18.3209 19.2004 16.9625V3.2C19.2004 2.98782 19.1161 2.78434 18.9661 2.63431C18.816 2.48428 18.6126 2.4 18.4004 2.4Z" fill="#8E8E93"/>
</svg>
