<svg width="28" height="28" viewBox="0 0 28 28" fill="none" xmlns="http://www.w3.org/2000/svg">
<path d="M9.33314 2.8C8.3018 2.8 7.46647 3.63534 7.46647 4.66667C5.91994 4.66667 4.66647 5.92014 4.66647 7.46667C4.66647 7.55067 4.68453 7.63063 4.69199 7.71276C4.12266 8.0329 3.73314 8.63427 3.73314 9.33334C3.73314 9.55547 3.77887 9.7662 3.8498 9.96407C3.2142 10.4774 2.7998 11.2532 2.7998 12.1333C2.7998 12.9771 3.18062 13.7255 3.77142 14.2388C3.19462 14.5571 2.7998 15.162 2.7998 15.8667C2.7998 16.898 3.63514 17.7333 4.66647 17.7333C4.66647 19.2799 5.91994 20.5333 7.46647 20.5333H8.3998V24.2667C8.3998 24.7819 8.81794 25.2 9.33314 25.2C9.84834 25.2 10.2665 24.7819 10.2665 24.2667V20.5333C10.2665 19.9631 10.4528 19.4007 10.8243 18.8836L12.1824 17.0607C11.5813 16.5473 11.1998 15.7845 11.1998 14.9333C11.1998 14.2679 11.4384 13.6282 11.8743 13.1195L13.5404 10.8901C13.2418 10.444 13.0665 9.90827 13.0665 9.33334C13.0665 8.83027 13.2093 8.34061 13.4912 7.88047C13.5201 7.83287 13.5524 7.78673 13.586 7.74193L14.6396 6.32552C14.4194 6.14912 14.1764 5.99647 13.9141 5.88073C13.6192 4.6506 12.5205 3.73334 11.1998 3.73334C11.1158 3.73334 11.0358 3.75139 10.9537 3.75886C10.6336 3.18952 10.0322 2.8 9.33314 2.8ZM18.6665 4.66667C18.337 4.66667 18.0615 4.84746 17.8954 5.10599L17.8808 5.09688L15.0826 8.85573C14.9958 8.99667 14.9331 9.15507 14.9331 9.33334C14.9331 9.84854 15.3513 10.2667 15.8665 10.2667H16.3331L13.3235 14.299C13.1667 14.466 13.0665 14.6869 13.0665 14.9333C13.0665 15.4485 13.4846 15.8667 13.9998 15.8667H15.3998L12.3209 19.9992C12.2108 20.1523 12.1331 20.3308 12.1331 20.5333C12.1331 21.0485 12.5513 21.4667 13.0665 21.4667H17.7331V24.2667C17.7331 24.7819 18.1513 25.2 18.6665 25.2C19.1817 25.2 19.5998 24.7819 19.5998 24.2667V21.4667H24.2665C24.7817 21.4667 25.1998 21.0485 25.1998 20.5333C25.1998 20.3308 25.1222 20.1523 25.012 19.9992L21.9331 15.8667H23.3331C23.8483 15.8667 24.2665 15.4485 24.2665 14.9333C24.2665 14.6869 24.1662 14.466 24.0094 14.299L20.9998 10.2667H21.4665C21.9817 10.2667 22.3998 9.84854 22.3998 9.33334C22.3998 9.15507 22.3371 8.99667 22.2503 8.85573L19.4521 5.09688L19.4376 5.10599C19.2714 4.84746 18.9959 4.66667 18.6665 4.66667Z" fill="white"/>
</svg>
