<svg width="34" height="40" viewBox="0 0 34 40" fill="none" xmlns="http://www.w3.org/2000/svg">
<g clip-path="url(#clip0_8_9923)">
<path fill-rule="evenodd" clip-rule="evenodd" d="M0 0H47.3449V3.08333H0V0ZM0 6.15833H47.3449V9.24166H0V6.15833ZM0 12.3083H47.3449V15.3917H0V12.3083ZM0 18.4583H47.3449V21.5417H0V18.4583ZM0 24.625H47.3449V27.6916H0V24.625ZM0 30.7667H47.3449V33.85H0V30.7667ZM0 36.9166H47.3449V40H0V36.9166Z" fill="#BD3D44"/>
<path fill-rule="evenodd" clip-rule="evenodd" d="M0 3.08338H47.3449V6.15838H0V3.08338ZM0 9.23338H47.3449V12.3084H0V9.23338ZM0 15.3834H47.3449V18.4667H0V15.3834ZM0 21.5417H47.3449V24.625H0V21.5417ZM0 27.6917H47.3449V30.775H0V27.6917ZM0 33.8417H47.3449V36.925H0V33.8417Z" fill="white"/>
<path fill-rule="evenodd" clip-rule="evenodd" d="M0 0H18.938V21.5417H0V0Z" fill="#192F5D"/>
<path fill-rule="evenodd" clip-rule="evenodd" d="M1.57814 0.91667L1.75464 1.775H2.30493L1.85847 2.3L2.02978 3.15834L1.57814 2.625L1.13168 3.15L1.29781 2.3L0.846162 1.775H1.41202L1.57814 0.91667ZM4.73447 0.91667L4.90578 1.775H5.46645L5.0148 2.3L5.18092 3.15834L4.73447 2.625L4.28282 3.15L4.45414 2.3L4.00768 1.775H4.55796L4.73447 0.91667ZM7.8908 0.91667L8.06211 1.775H8.61758L8.17113 2.3L8.34244 3.15834L7.8908 2.625L7.43915 3.15L7.61046 2.3L7.15882 1.775H7.71948L7.8908 0.91667ZM11.0471 0.91667L11.2184 1.775H11.7791L11.3275 2.3L11.4988 3.15834L11.0471 2.625L10.5955 3.15L10.772 2.3L10.3151 1.775H10.8706L11.0471 0.91667ZM14.2035 0.91667L14.3748 1.775H14.9302L14.4838 2.3L14.6551 3.15834L14.2035 2.625L13.7518 3.15L13.9231 2.3L13.4767 1.775H14.0321L14.2035 0.91667ZM17.3598 0.91667L17.5311 1.775H18.0918L17.6349 2.3L17.8114 3.15834L17.3598 2.625L16.9081 3.15L17.0846 2.3L16.6278 1.775H17.1885L17.3598 0.91667ZM3.1563 3.08334L3.32762 3.93334H3.89347L3.44183 4.45L3.60795 5.30833L3.16669 4.78333L2.71504 5.30833L2.87597 4.45L2.4399 3.93334H2.99537L3.1563 3.08334ZM6.31263 3.08334L6.48914 3.93334H7.04461L6.58777 4.45L6.76428 5.30833L6.31263 4.78333L5.86099 5.30833L6.0323 4.45L5.58065 3.93334H6.14132L6.31263 3.08334ZM9.46896 3.08334L9.64027 3.93334H10.2009L9.74929 4.45L9.92061 5.30833L9.46896 4.78333L9.01731 5.30833L9.18863 4.45L8.74217 3.93334H9.29246L9.46896 3.08334ZM12.6253 3.08334L12.8018 3.93334H13.3573L12.9004 4.45L13.0769 5.30833L12.6253 4.78333L12.1788 5.30833L12.345 4.45L11.8933 3.93334H12.4592L12.6253 3.08334ZM15.7816 3.08334L15.9529 3.93334H16.5136L16.0619 4.45L16.2333 5.30833L15.7816 4.78333L15.33 5.30833L15.5013 4.45L15.0548 3.93334H15.6103L15.7816 3.08334ZM1.57814 5.21667L1.75464 6.08333H2.30493L1.85847 6.60833L2.02978 7.45833L1.57814 6.93333L1.13168 7.45833L1.29781 6.60833L0.846162 6.08333H1.41202L1.57814 5.21667ZM4.73447 5.21667L4.90578 6.08333H5.46645L5.0148 6.60833L5.18092 7.45833L4.73447 6.93333L4.28282 7.45833L4.45414 6.6L4.00768 6.075H4.55796L4.73447 5.21667ZM7.8908 5.21667L8.06211 6.075H8.61758L8.17113 6.6L8.34244 7.45L7.8908 6.925L7.43915 7.45L7.61046 6.59167L7.15882 6.06667H7.71948L7.8908 5.21667ZM11.0471 5.21667L11.2184 6.075H11.7791L11.3275 6.6L11.4988 7.45L11.0471 6.925L10.5955 7.45L10.772 6.59167L10.3151 6.06667H10.8706L11.0471 5.21667ZM14.2035 5.21667L14.3748 6.075H14.9302L14.4838 6.6L14.6551 7.45L14.2035 6.925L13.7518 7.45L13.9231 6.59167L13.4767 6.06667H14.0321L14.2035 5.21667ZM17.3598 5.21667L17.5311 6.075H18.0918L17.6349 6.6L17.8114 7.45L17.3598 6.925L16.9081 7.45L17.0846 6.59167L16.6278 6.06667H17.1885L17.3598 5.21667ZM3.1563 7.38333L3.32762 8.23333H3.89347L3.44183 8.75833L3.61314 9.61667L3.1615 9.08333L2.70985 9.60833L2.88116 8.75833L2.43471 8.23333H2.99018L3.1563 7.38333ZM6.31263 7.38333L6.48914 8.23333H7.04461L6.58777 8.75833L6.76428 9.61667L6.31263 9.08333L5.86099 9.60833L6.0323 8.75833L5.58065 8.23333H6.14132L6.31263 7.38333ZM9.46896 7.38333L9.64027 8.23333H10.2009L9.74929 8.75833L9.92061 9.61667L9.46896 9.08333L9.01731 9.60833L9.18863 8.75833L8.74217 8.23333H9.29246L9.46896 7.38333ZM12.6253 7.38333L12.8018 8.23333H13.3573L12.9056 8.75833L13.0769 9.61667L12.6253 9.08333L12.1788 9.60833L12.345 8.75833L11.8933 8.23333H12.4592L12.6253 7.38333ZM15.7816 7.38333L15.9529 8.23333H16.5136L16.0619 8.75833L16.2333 9.61667L15.7816 9.08333L15.33 9.60833L15.5013 8.75833L15.0548 8.23333H15.6103L15.7816 7.38333ZM1.57814 9.54166L1.75464 10.3917H2.30493L1.85847 10.9167L2.02978 11.775L1.57814 11.2417L1.13168 11.7667L1.29781 10.9167L0.846162 10.3917H1.41202L1.57814 9.54166ZM4.73447 9.54166L4.90578 10.3917H5.46645L5.0148 10.9167L5.18092 11.7667L4.73447 11.2417L4.28282 11.7667L4.45414 10.9167L4.00768 10.3917H4.55796L4.73447 9.54166ZM7.8908 9.54166L8.06211 10.3917H8.61758L8.17113 10.9167L8.34244 11.775L7.8908 11.2417L7.43915 11.7667L7.61046 10.9167L7.15882 10.3917H7.71948L7.8908 9.54166ZM11.0471 9.54166L11.2184 10.3917H11.7791L11.3275 10.9167L11.4988 11.775L11.0471 11.2417L10.5955 11.7667L10.772 10.9167L10.3151 10.3917H10.8706L11.0471 9.54166ZM14.2035 9.54166L14.3748 10.3917H14.9302L14.4838 10.9167L14.6551 11.775L14.2035 11.2417L13.7518 11.7667L13.9231 10.9167L13.4767 10.3917H14.0321L14.2035 9.54166ZM17.3598 9.54166L17.5311 10.3917H18.0918L17.6349 10.9167L17.8114 11.775L17.3598 11.2417L16.9081 11.7667L17.0794 10.9167L16.6226 10.3917H17.1833L17.3598 9.54166ZM3.1563 11.6917L3.32762 12.55H3.89347L3.44183 13.0667L3.61314 13.925L3.1615 13.3917L2.70985 13.925L2.88116 13.0667L2.43471 12.5417H2.99018L3.1563 11.6917ZM6.31263 11.6917L6.48914 12.55H7.04461L6.58777 13.0667L6.76428 13.925L6.31263 13.3917L5.86099 13.925L6.0323 13.0667L5.58065 12.5417H6.14132L6.31263 11.6917ZM9.46896 11.6917L9.64027 12.55H10.2009L9.74929 13.0667L9.92061 13.925L9.46896 13.3917L9.01731 13.925L9.18863 13.0667L8.74217 12.5417H9.29246L9.46896 11.6917ZM12.6253 11.6917L12.8018 12.55H13.3573L12.9056 13.0667L13.0769 13.925L12.6253 13.3917L12.1788 13.925L12.345 13.0667L11.8933 12.5417H12.4592L12.6253 11.6917ZM15.7816 11.6917L15.9529 12.55H16.5136L16.0619 13.0667L16.2333 13.925L15.7816 13.3917L15.33 13.925L15.5013 13.0667L15.0548 12.5417H15.6103L15.7816 11.6917ZM1.57814 13.8417L1.75464 14.7H2.30493L1.85847 15.225L2.02978 16.0667L1.57814 15.55L1.13168 16.0667L1.29781 15.2167L0.846162 14.6917H1.41202L1.57814 13.8417ZM4.73447 13.8417L4.90578 14.7H5.46645L5.0148 15.225L5.18611 16.0667L4.73447 15.55L4.28282 16.0667L4.45933 15.2167L4.00768 14.6917H4.55796L4.73447 13.8417ZM7.8908 13.8417L8.06211 14.7H8.61758L8.17113 15.225L8.34244 16.0667L7.8908 15.55L7.43915 16.0667L7.61046 15.2167L7.15882 14.6917H7.71948L7.8908 13.8417ZM11.0471 13.8417L11.2184 14.7H11.7791L11.3275 15.225L11.4988 16.0667L11.0471 15.55L10.5955 16.0667L10.772 15.2167L10.3151 14.6917H10.8706L11.0471 13.8417ZM14.2035 13.8417L14.3748 14.7H14.9302L14.4838 15.225L14.6551 16.0667L14.2035 15.55L13.7518 16.0667L13.9231 15.2167L13.4767 14.6917H14.0321L14.2035 13.8417ZM17.3598 13.8417L17.5311 14.7H18.0918L17.6349 15.225L17.8114 16.0667L17.3598 15.55L16.9081 16.0667L17.0846 15.2167L16.6278 14.6917H17.1885L17.3598 13.8417ZM3.1563 16L3.32762 16.85H3.89347L3.44183 17.375L3.61314 18.2333L3.1615 17.7L2.70985 18.225L2.88116 17.375L2.43471 16.85H2.99018L3.1563 16ZM6.31263 16L6.48914 16.85H7.04461L6.58777 17.375L6.76428 18.2333L6.31263 17.7L5.86099 18.225L6.0323 17.375L5.58065 16.85H6.14132L6.31263 16ZM9.46896 16L9.64027 16.85H10.2009L9.74929 17.375L9.92061 18.2333L9.46896 17.7L9.01731 18.225L9.18863 17.375L8.74217 16.85H9.29246L9.46896 16ZM12.6253 16L12.8018 16.85H13.3573L12.9056 17.375L13.0769 18.2333L12.6253 17.7L12.1788 18.225L12.345 17.375L11.8933 16.85H12.4592L12.6253 16ZM15.7816 16L15.9529 16.85H16.5136L16.0619 17.375L16.2333 18.2333L15.7816 17.7L15.33 18.225L15.5013 17.375L15.0548 16.85H15.6103L15.7816 16ZM1.57814 18.1583L1.75464 19.0083H2.30493L1.85847 19.5333L2.02978 20.3833L1.57814 19.8583L1.13168 20.3833L1.29781 19.525L0.846162 19H1.41202L1.57814 18.1583ZM4.73447 18.1583L4.90578 19.0083H5.46645L5.0148 19.5333L5.18611 20.3833L4.73447 19.8583L4.28282 20.3833L4.45933 19.525L4.00768 19H4.55796L4.73447 18.1583ZM7.8908 18.1583L8.06211 19.0083H8.61758L8.18151 19.5333L8.35282 20.3833L7.90118 19.8583L7.44953 20.3833L7.62085 19.525L7.1692 19H7.72986L7.8908 18.1583ZM11.0471 18.1583L11.2184 19.0083H11.7791L11.3275 19.5333L11.4988 20.3833L11.0471 19.8583L10.5955 20.3833L10.772 19.525L10.3151 19H10.8706L11.0471 18.1583ZM14.2035 18.1583L14.3748 19.0083H14.9302L14.4838 19.5333L14.6551 20.3833L14.2035 19.8583L13.7518 20.3833L13.9231 19.525L13.4767 19H14.0321L14.2035 18.1583ZM17.3598 18.1583L17.5311 19.0083H18.0918L17.6349 19.5333L17.8114 20.3833L17.3598 19.8583L16.9081 20.3833L17.0846 19.525L16.6278 19H17.1885L17.3598 18.1583Z" fill="white"/>
</g>
<defs>
<clipPath id="clip0_8_9923">
<rect width="33.1034" height="39.8542" fill="white" transform="scale(1.00366)"/>
</clipPath>
</defs>
</svg>
