<svg width="28" height="28" viewBox="0 0 28 28" fill="none" xmlns="http://www.w3.org/2000/svg">
<path d="M14.0003 1.86667C13.2577 1.86667 12.5455 2.16167 12.0204 2.68677C11.4953 3.21187 11.2003 3.92406 11.2003 4.66667C11.2003 5.40927 11.4953 6.12147 12.0204 6.64657C12.5455 7.17167 13.2577 7.46667 14.0003 7.46667C14.7429 7.46667 15.4551 7.17167 15.9802 6.64657C16.5053 6.12147 16.8003 5.40927 16.8003 4.66667C16.8003 3.92406 16.5053 3.21187 15.9802 2.68677C15.4551 2.16167 14.7429 1.86667 14.0003 1.86667ZM10.9798 5.60182C10.5708 5.61753 9.68106 5.72292 9.10216 6.30182C8.3303 7.07369 8.40216 8.39818 8.40216 8.39818C8.40216 8.39818 9.72665 8.47005 10.4985 7.69818C11.2704 6.92631 11.1985 5.60182 11.1985 5.60182C11.1985 5.60182 11.1161 5.59659 10.9798 5.60182ZM16.8022 5.60182C16.8022 5.60182 16.7303 6.92631 17.5022 7.69818C18.274 8.47005 19.5985 8.39818 19.5985 8.39818C19.5985 8.39818 19.6704 7.07369 18.8985 6.30182C18.1266 5.52996 16.8022 5.60182 16.8022 5.60182ZM14.0003 9.33333C12.48 9.33333 11.1444 10.3756 10.7756 11.8508L9.36102 17.5073C9.32675 17.6449 9.32428 17.7885 9.3538 17.9272C9.38331 18.0659 9.44403 18.1961 9.53136 18.3079C9.61868 18.4196 9.73031 18.51 9.85777 18.5722C9.98524 18.6343 10.1252 18.6667 10.267 18.6667H17.7081C17.7167 18.6668 17.7252 18.6668 17.7337 18.6667C17.8755 18.6667 18.0154 18.6343 18.1429 18.5722C18.2704 18.51 18.382 18.4196 18.4693 18.3079C18.5566 18.1961 18.6174 18.0659 18.6469 17.9272C18.6764 17.7885 18.6739 17.6449 18.6397 17.5073L17.2251 11.8508C16.8563 10.3756 15.5206 9.33333 14.0003 9.33333ZM11.2003 20.5333V24.2357C11.2003 24.7677 11.6327 25.2 12.1647 25.2C12.6724 25.2 13.0936 24.8053 13.1272 24.2995L13.3769 20.5333H11.2003ZM14.6238 20.5333L14.8735 24.2995C14.9071 24.8063 15.3283 25.2 15.836 25.2C16.368 25.2 16.8003 24.7677 16.8003 24.2357V20.5333H14.6238Z" fill="white"/>
</svg>
