<svg width="24" height="24" viewBox="0 0 24 24" fill="none" xmlns="http://www.w3.org/2000/svg">
<g clip-path="url(#clip0_0_224)">
<path d="M15.1879 -0.0109498C14.976 -0.00763745 14.7741 0.0796106 14.6264 0.231646C14.4788 0.383681 14.3975 0.588082 14.4004 0.799988V1.59999H13.6004C13.4944 1.59849 13.3891 1.61807 13.2908 1.6576C13.1924 1.69714 13.1028 1.75582 13.0273 1.83026C12.9519 1.9047 12.8919 1.99339 12.851 2.0912C12.8101 2.18901 12.789 2.29397 12.789 2.39999C12.789 2.50601 12.8101 2.61097 12.851 2.70878C12.8919 2.80658 12.9519 2.89528 13.0273 2.96972C13.1028 3.04415 13.1924 3.10284 13.2908 3.14237C13.3891 3.1819 13.4944 3.20149 13.6004 3.19999H14.4004V3.99999C14.3989 4.106 14.4185 4.21125 14.458 4.30962C14.4975 4.408 14.5562 4.49753 14.6307 4.57303C14.7051 4.64853 14.7938 4.70847 14.8916 4.74939C14.9894 4.79031 15.0944 4.81138 15.2004 4.81138C15.3064 4.81138 15.4114 4.79031 15.5092 4.74939C15.607 4.70847 15.6957 4.64853 15.7701 4.57303C15.8446 4.49753 15.9032 4.408 15.9428 4.30962C15.9823 4.21125 16.0019 4.106 16.0004 3.99999V3.19999H16.8004C16.9064 3.20149 17.0116 3.1819 17.11 3.14237C17.2084 3.10284 17.2979 3.04415 17.3734 2.96972C17.4489 2.89528 17.5089 2.80658 17.5498 2.70878C17.5907 2.61097 17.6118 2.50601 17.6118 2.39999C17.6118 2.29397 17.5907 2.18901 17.5498 2.0912C17.5089 1.99339 17.4489 1.9047 17.3734 1.83026C17.2979 1.75582 17.2084 1.69714 17.11 1.6576C17.0116 1.61807 16.9064 1.59849 16.8004 1.59999H16.0004V0.799988C16.0019 0.692956 15.9818 0.586719 15.9415 0.487567C15.9012 0.388414 15.8413 0.298363 15.7656 0.222746C15.6898 0.14713 15.5997 0.0874841 15.5004 0.0473423C15.4012 0.00720049 15.2949 -0.0126215 15.1879 -0.0109498ZM9.91289 2.63436C5.61609 3.58876 2.40039 7.41599 2.40039 12C2.40039 17.3016 6.69879 21.6 12.0004 21.6C16.5844 21.6 20.4116 18.3843 21.366 14.0875C20.1372 14.7915 18.718 15.2 17.2004 15.2C12.5612 15.2 8.80039 11.4392 8.80039 6.79999C8.80039 5.28239 9.20889 3.86316 9.91289 2.63436ZM20.0004 5.59999C19.5588 5.59999 19.2004 5.95839 19.2004 6.39999V7.19999C19.2004 7.64159 18.842 7.99999 18.4004 7.99999H17.6004C17.1588 7.99999 16.8004 8.35839 16.8004 8.79999C16.8004 9.24159 17.1588 9.59999 17.6004 9.59999H18.4004C18.842 9.59999 19.2004 9.95839 19.2004 10.4V11.2C19.2004 11.6416 19.5588 12 20.0004 12C20.442 12 20.8004 11.6416 20.8004 11.2V10.4C20.8004 9.95839 21.1588 9.59999 21.6004 9.59999H22.4004C22.842 9.59999 23.2004 9.24159 23.2004 8.79999C23.2004 8.35839 22.842 7.99999 22.4004 7.99999H21.6004C21.1588 7.99999 20.8004 7.64159 20.8004 7.19999V6.39999C20.8004 5.95839 20.442 5.59999 20.0004 5.59999Z" fill="#4870FF"/>
</g>
<defs>
<clipPath id="clip0_0_224">
<rect width="24" height="24" fill="white"/>
</clipPath>
</defs>
</svg>
