<svg width="20" height="20" viewBox="0 0 20 20" fill="none" xmlns="http://www.w3.org/2000/svg">
<path d="M17.0835 8.49162H14.6752C12.7002 8.49162 11.0918 6.88329 11.0918 4.90829V2.49996C11.0918 2.04163 10.7168 1.66663 10.2585 1.66663H6.72516C4.1585 1.66663 2.0835 3.33329 2.0835 6.30829V13.6916C2.0835 16.6666 4.1585 18.3333 6.72516 18.3333H13.2752C15.8418 18.3333 17.9168 16.6666 17.9168 13.6916V9.32496C17.9168 8.86662 17.5418 8.49162 17.0835 8.49162ZM9.6085 11.275C9.4835 11.4 9.32516 11.4583 9.16683 11.4583C9.0085 11.4583 8.85016 11.4 8.72516 11.275L8.12516 10.675V14.1666C8.12516 14.5083 7.84183 14.7916 7.50016 14.7916C7.1585 14.7916 6.87516 14.5083 6.87516 14.1666V10.675L6.27516 11.275C6.0335 11.5166 5.6335 11.5166 5.39183 11.275C5.15016 11.0333 5.15016 10.6333 5.39183 10.3916L7.0585 8.72496C7.11683 8.67496 7.17516 8.63329 7.24183 8.59996C7.2585 8.59162 7.2835 8.58329 7.30016 8.57496C7.35016 8.55829 7.40016 8.54996 7.4585 8.54163C7.4835 8.54163 7.50016 8.54163 7.52516 8.54163C7.59183 8.54163 7.6585 8.55829 7.72516 8.58329C7.7335 8.58329 7.7335 8.58329 7.74183 8.58329C7.8085 8.60829 7.87516 8.65829 7.92516 8.70829C7.9335 8.71662 7.94183 8.71663 7.94183 8.72496L9.6085 10.3916C9.85016 10.6333 9.85016 11.0333 9.6085 11.275Z" fill="#FF69B4"/>
<path d="M14.5251 7.3417C15.3167 7.35004 16.4167 7.35004 17.3584 7.35004C17.8334 7.35004 18.0834 6.7917 17.7501 6.45837C16.5501 5.25004 14.4001 3.07504 13.1667 1.8417C12.8251 1.50003 12.2334 1.73337 12.2334 2.20837V5.1167C12.2334 6.33337 13.2667 7.3417 14.5251 7.3417Z" fill="#FF69B4"/>
</svg>
