<svg width="18" height="18" viewBox="0 0 18 18" fill="none" xmlns="http://www.w3.org/2000/svg">
<path d="M16.2 9C16.2 8.7744 16.0704 8.5854 15.8862 8.4828L15.8898 8.4768L3.9498 1.9116L3.9378 1.9176C3.8406 1.8492 3.7284 1.8 3.6 1.8C3.2688 1.8 3 2.0688 3 2.4C3 2.4006 3.0006 2.4012 3.0006 2.4024H3V9V15.5976H3.0006C3.0006 15.5988 3 15.5994 3 15.6C3 15.9312 3.2688 16.2 3.6 16.2C3.7284 16.2 3.8406 16.1508 3.9384 16.0824L3.9498 16.0884L15.8898 9.5232L15.8862 9.5172C16.0704 9.4146 16.2 9.2256 16.2 9Z" fill="white"/>
</svg>
