<svg width="52" height="78" viewBox="0 0 52 78" fill="none" xmlns="http://www.w3.org/2000/svg">
<circle cx="26" cy="26" r="26" fill="#E6F2EA"/>
<path d="M18.0066 25.8812C18.0066 25.1539 18.2223 24.4543 18.6231 23.8621C18.4914 23.4372 18.4234 22.992 18.4234 22.5509C18.4234 20.6483 19.6233 18.9908 21.363 18.3686C21.5181 16.95 22.4286 15.7294 23.7117 15.1451C23.0522 14.0785 22.0114 13.4532 21.0518 13.6086C20.3584 13.7213 19.7838 14.192 19.4461 14.9026C18.8384 14.6235 18.2063 14.5771 17.6521 14.7719C17.0523 14.983 16.5865 15.4344 16.3049 16.0769C15.9315 16.928 15.931 18.0232 16.2921 19.0646C15.8055 19.3985 15.4417 19.8891 15.2291 20.5043C14.8716 21.5373 14.9909 22.7836 15.5562 23.9252C15.6181 24.0498 15.6857 24.1734 15.7595 24.2949C15.2287 24.6398 14.8314 25.1512 14.6183 25.7752C14.2798 26.7654 14.4296 27.9322 15.0294 28.9753C15.3047 29.4545 15.6694 29.8886 16.0941 30.2455C15.9522 30.839 16.0596 31.4913 16.4053 32.0818C16.8884 32.9054 17.7586 33.4641 18.6885 33.5582C19.9341 35.8971 21.4394 37.0903 23.5923 38.1242C21.0346 35.103 19.6123 32.6007 19.5323 28.8274C18.5909 28.1556 18.0066 27.052 18.0066 25.8812Z" fill="#28B446"/>
<path d="M37.6864 22.4312C37.7217 20.7115 36.7109 19.1645 35.1445 18.4958C34.916 17.0283 33.7324 15.8814 32.2615 15.687C32.2482 15.5409 32.2204 15.3951 32.1784 15.2512C31.9189 14.3661 31.138 13.6997 30.2359 13.5928C29.6458 13.5226 29.088 13.6705 28.627 13.9943C28.216 13.7227 27.7373 13.576 27.2467 13.576C25.9831 13.576 24.933 14.5088 24.75 15.7215C23.3051 16.013 22.2218 17.2995 22.2218 18.8045C22.2218 18.8854 22.2254 18.9662 22.2316 19.0483C20.5564 19.3495 19.3056 20.8038 19.3056 22.5514C19.3056 23.0566 19.4148 23.5574 19.6243 24.018C19.1536 24.5211 18.8893 25.1831 18.8893 25.8817C18.8893 26.9258 19.4895 27.8726 20.4119 28.3284C20.3713 32.3309 21.8302 34.7608 24.6766 38.0351L24.837 38.2175L24.8662 38.2506C25.2976 38.7342 25.9186 39 26.6156 39C26.7362 39 26.8551 38.9899 26.9723 38.9749L26.8211 38.6816C25.8713 36.4244 25.2883 34.4203 24.963 32.6387C23.7374 32.2616 23.2075 31.2829 23.184 31.2379C23.07 31.0224 23.1535 30.7547 23.3692 30.6412C23.5836 30.5277 23.8501 30.6099 23.9655 30.8241C23.9818 30.8545 24.239 31.3068 24.8017 31.615C24.6479 30.4593 24.6032 29.4038 24.6479 28.4525C24.6426 28.4044 24.6448 28.3571 24.6558 28.3085C24.7327 26.9487 24.9811 25.7978 25.3091 24.8333C23.82 23.9461 23.6362 22.2943 23.7644 21.4928C23.8028 21.2521 24.03 21.0856 24.2704 21.1262C24.5113 21.1646 24.6753 21.3903 24.6377 21.6306C24.6267 21.7017 24.4282 23.1666 25.6339 23.9907C25.694 23.8515 25.7546 23.7133 25.8174 23.5839C26.9798 21.1867 28.6412 19.9939 29.2843 19.6004C29.2829 18.7158 29.8633 17.9473 29.8907 17.9116C30.0387 17.7177 30.3172 17.6815 30.5099 17.829C30.7035 17.9769 30.7406 18.2538 30.593 18.4473C30.4944 18.578 30.3008 18.9035 30.2142 19.2616C31.2321 19.1464 32.2257 19.7205 32.2761 19.7505C32.4869 19.8746 32.5563 20.1453 32.4325 20.3551C32.3499 20.4947 32.2022 20.5724 32.0515 20.5724C31.9751 20.5724 31.8982 20.553 31.8279 20.5115C31.5198 20.3317 30.5819 19.9347 29.9393 20.2421C29.8275 20.299 29.0752 20.7036 28.2191 21.5961C29.9724 21.4685 31.1919 21.9887 31.2533 22.0152C31.4765 22.1137 31.5782 22.3743 31.4805 22.5973C31.4076 22.7625 31.2454 22.8614 31.0752 22.8614C31.0164 22.8614 30.9563 22.8499 30.8988 22.8243C30.8657 22.8102 29.3705 22.191 27.3886 22.603C26.9917 23.1608 26.6098 23.8295 26.2934 24.6262C26.2925 24.6845 26.2806 24.7436 26.2549 24.8002C26.2381 24.8377 26.2156 24.8704 26.1908 24.9004C25.9394 25.5889 25.7365 26.3631 25.6145 27.2376C26.6138 26.6113 27.8744 26.5839 27.9464 26.5831H27.9517C28.193 26.5831 28.3897 26.7765 28.3932 27.0185C28.3968 27.2623 28.2014 27.4623 27.9579 27.4663C27.9393 27.4668 26.1206 27.5092 25.5018 28.5633C25.4585 29.6405 25.5332 30.8431 25.763 32.1812C25.7652 32.1914 25.7665 32.2015 25.7679 32.2121C26.0772 33.9959 26.6589 36.0146 27.6229 38.3062L27.8332 38.7117C28.1577 38.5483 28.437 38.3221 28.6363 38.0439C28.9691 37.5793 29.0478 37.0158 28.8569 36.4571C28.0578 34.1142 28.0825 32.3265 28.9302 31.1429C30.029 29.6082 32.3176 29.379 33.5834 29.379C34.2354 29.379 34.6831 29.4391 34.6875 29.44L35.1419 29.5018L35.1874 29.046C35.1936 28.986 35.324 27.563 34.493 26.5963C34.4449 26.5402 34.394 26.4872 34.3419 26.4364C34.5766 26.3839 34.8086 26.3092 35.0367 26.213C36.6119 25.5492 37.6523 24.0644 37.6864 22.4312Z" fill="#28B446"/>
<path d="M9.89188 70.43C10.2652 70.4967 10.5819 70.6933 10.8419 71.02C11.1019 71.3467 11.2319 71.7167 11.2319 72.13C11.2319 72.4833 11.1385 72.8033 10.9519 73.09C10.7719 73.37 10.5085 73.5933 10.1619 73.76C9.81521 73.92 9.41188 74 8.95188 74H6.17188V67.05H8.82188C9.29521 67.05 9.70188 67.13 10.0419 67.29C10.3819 67.45 10.6385 67.6667 10.8119 67.94C10.9852 68.2067 11.0719 68.5067 11.0719 68.84C11.0719 69.24 10.9652 69.5733 10.7519 69.84C10.5385 70.1067 10.2519 70.3033 9.89188 70.43ZM7.31188 69.97H8.72188C9.09521 69.97 9.38521 69.8867 9.59188 69.72C9.80521 69.5467 9.91188 69.3 9.91188 68.98C9.91188 68.6667 9.80521 68.4233 9.59188 68.25C9.38521 68.07 9.09521 67.98 8.72188 67.98H7.31188V69.97ZM8.85188 73.07C9.23854 73.07 9.54188 72.9767 9.76188 72.79C9.98188 72.6033 10.0919 72.3433 10.0919 72.01C10.0919 71.67 9.97521 71.4 9.74188 71.2C9.50854 71 9.19854 70.9 8.81188 70.9H7.31188V73.07H8.85188ZM13.6107 69.29C13.7774 69.01 13.9974 68.7933 14.2707 68.64C14.5507 68.48 14.8807 68.4 15.2607 68.4V69.58H14.9707C14.524 69.58 14.184 69.6933 13.9507 69.92C13.724 70.1467 13.6107 70.54 13.6107 71.1V74H12.4707V68.49H13.6107V69.29ZM18.6986 74.09C18.1786 74.09 17.7086 73.9733 17.2886 73.74C16.8686 73.5 16.5386 73.1667 16.2986 72.74C16.0586 72.3067 15.9386 71.8067 15.9386 71.24C15.9386 70.68 16.0619 70.1833 16.3086 69.75C16.5553 69.3167 16.8919 68.9833 17.3186 68.75C17.7453 68.5167 18.2219 68.4 18.7486 68.4C19.2753 68.4 19.7519 68.5167 20.1786 68.75C20.6053 68.9833 20.9419 69.3167 21.1886 69.75C21.4353 70.1833 21.5586 70.68 21.5586 71.24C21.5586 71.8 21.4319 72.2967 21.1786 72.73C20.9253 73.1633 20.5786 73.5 20.1386 73.74C19.7053 73.9733 19.2253 74.09 18.6986 74.09ZM18.6986 73.1C18.9919 73.1 19.2653 73.03 19.5186 72.89C19.7786 72.75 19.9886 72.54 20.1486 72.26C20.3086 71.98 20.3886 71.64 20.3886 71.24C20.3886 70.84 20.3119 70.5033 20.1586 70.23C20.0053 69.95 19.8019 69.74 19.5486 69.6C19.2953 69.46 19.0219 69.39 18.7286 69.39C18.4353 69.39 18.1619 69.46 17.9086 69.6C17.6619 69.74 17.4653 69.95 17.3186 70.23C17.1719 70.5033 17.0986 70.84 17.0986 71.24C17.0986 71.8333 17.2486 72.2933 17.5486 72.62C17.8553 72.94 18.2386 73.1 18.6986 73.1ZM22.3055 71.24C22.3055 70.6733 22.4189 70.1767 22.6455 69.75C22.8789 69.3167 23.1989 68.9833 23.6055 68.75C24.0122 68.5167 24.4789 68.4 25.0055 68.4C25.6722 68.4 26.2222 68.56 26.6555 68.88C27.0955 69.1933 27.3922 69.6433 27.5455 70.23H26.3155C26.2155 69.9567 26.0555 69.7433 25.8355 69.59C25.6155 69.4367 25.3389 69.36 25.0055 69.36C24.5389 69.36 24.1655 69.5267 23.8855 69.86C23.6122 70.1867 23.4755 70.6467 23.4755 71.24C23.4755 71.8333 23.6122 72.2967 23.8855 72.63C24.1655 72.9633 24.5389 73.13 25.0055 73.13C25.6655 73.13 26.1022 72.84 26.3155 72.26H27.5455C27.3855 72.82 27.0855 73.2667 26.6455 73.6C26.2055 73.9267 25.6589 74.09 25.0055 74.09C24.4789 74.09 24.0122 73.9733 23.6055 73.74C23.1989 73.5 22.8789 73.1667 22.6455 72.74C22.4189 72.3067 22.3055 71.8067 22.3055 71.24ZM28.3016 71.24C28.3016 70.6733 28.415 70.1767 28.6416 69.75C28.875 69.3167 29.195 68.9833 29.6016 68.75C30.0083 68.5167 30.475 68.4 31.0016 68.4C31.6683 68.4 32.2183 68.56 32.6516 68.88C33.0916 69.1933 33.3883 69.6433 33.5416 70.23H32.3116C32.2116 69.9567 32.0516 69.7433 31.8316 69.59C31.6116 69.4367 31.335 69.36 31.0016 69.36C30.535 69.36 30.1616 69.5267 29.8816 69.86C29.6083 70.1867 29.4716 70.6467 29.4716 71.24C29.4716 71.8333 29.6083 72.2967 29.8816 72.63C30.1616 72.9633 30.535 73.13 31.0016 73.13C31.6616 73.13 32.0983 72.84 32.3116 72.26H33.5416C33.3816 72.82 33.0816 73.2667 32.6416 73.6C32.2016 73.9267 31.655 74.09 31.0016 74.09C30.475 74.09 30.0083 73.9733 29.6016 73.74C29.195 73.5 28.875 73.1667 28.6416 72.74C28.415 72.3067 28.3016 71.8067 28.3016 71.24ZM37.0677 74.09C36.5477 74.09 36.0777 73.9733 35.6577 73.74C35.2377 73.5 34.9077 73.1667 34.6677 72.74C34.4277 72.3067 34.3077 71.8067 34.3077 71.24C34.3077 70.68 34.4311 70.1833 34.6777 69.75C34.9244 69.3167 35.2611 68.9833 35.6877 68.75C36.1144 68.5167 36.5911 68.4 37.1177 68.4C37.6444 68.4 38.1211 68.5167 38.5477 68.75C38.9744 68.9833 39.3111 69.3167 39.5577 69.75C39.8044 70.1833 39.9277 70.68 39.9277 71.24C39.9277 71.8 39.8011 72.2967 39.5477 72.73C39.2944 73.1633 38.9477 73.5 38.5077 73.74C38.0744 73.9733 37.5944 74.09 37.0677 74.09ZM37.0677 73.1C37.3611 73.1 37.6344 73.03 37.8877 72.89C38.1477 72.75 38.3577 72.54 38.5177 72.26C38.6777 71.98 38.7577 71.64 38.7577 71.24C38.7577 70.84 38.6811 70.5033 38.5277 70.23C38.3744 69.95 38.1711 69.74 37.9177 69.6C37.6644 69.46 37.3911 69.39 37.0977 69.39C36.8044 69.39 36.5311 69.46 36.2777 69.6C36.0311 69.74 35.8344 69.95 35.6877 70.23C35.5411 70.5033 35.4677 70.84 35.4677 71.24C35.4677 71.8333 35.6177 72.2933 35.9177 72.62C36.2244 72.94 36.6077 73.1 37.0677 73.1ZM42.1947 66.6V74H41.0547V66.6H42.1947ZM44.2714 67.76C44.0647 67.76 43.8914 67.69 43.7514 67.55C43.6114 67.41 43.5414 67.2367 43.5414 67.03C43.5414 66.8233 43.6114 66.65 43.7514 66.51C43.8914 66.37 44.0647 66.3 44.2714 66.3C44.4714 66.3 44.6414 66.37 44.7814 66.51C44.9214 66.65 44.9914 66.8233 44.9914 67.03C44.9914 67.2367 44.9214 67.41 44.7814 67.55C44.6414 67.69 44.4714 67.76 44.2714 67.76ZM44.8314 68.49V74H43.6914V68.49H44.8314Z" fill="#868889"/>
</svg>
