<svg width="52" height="78" viewBox="0 0 52 78" fill="none" xmlns="http://www.w3.org/2000/svg">
<circle cx="26" cy="26" r="26" fill="#DCF4F5"/>
<path d="M31.9779 13.7617C31.9779 13.341 31.6369 13 31.2162 13H28.1693C27.7486 13 27.4076 13.341 27.4076 13.7617V15.082H31.9779V13.7617Z" fill="#0CD4DC"/>
<path d="M18.5485 35.0029C17.8778 34.6072 17.2587 34.1276 16.7086 33.5775C16.6685 33.5374 16.6293 33.4964 16.5899 33.4556C15.6829 33.9074 14.8633 34.5388 14.1849 35.3251C13.9384 35.611 13.9384 36.0344 14.1849 36.3203C15.654 38.0232 17.7854 38.9999 20.0325 38.9999C20.7028 38.9999 21.3625 38.9124 21.9976 38.7452C21.2002 37.9039 20.5491 36.9405 20.0656 35.8979L18.5485 35.0029Z" fill="#0CD4DC"/>
<path d="M19.3226 33.6909C19.1629 32.9578 19.0795 32.2035 19.0795 31.4393C19.0795 29.7098 19.5006 28.0418 20.2687 26.5588C19.0387 25.9447 17.6529 25.6637 16.2495 25.7671C15.8729 25.7948 15.5735 26.0942 15.5458 26.4708C15.3805 28.7138 16.197 30.9115 17.7859 32.5004C18.2507 32.9652 18.7677 33.3635 19.3226 33.6909Z" fill="#0CD4DC"/>
<path d="M34.0644 23.4682C32.8431 22.797 32.1425 21.6129 32.1425 20.2193V18.1257C32.5336 18.0935 32.8411 17.7665 32.8411 17.3672C32.8411 16.9671 32.5324 16.6398 32.1404 16.6086C32.1402 16.6065 27.245 16.6065 27.2449 16.6086C26.8529 16.6398 26.5443 16.9671 26.5443 17.3672C26.5443 17.7665 26.8517 18.0935 27.2428 18.1257V20.2193C27.2428 21.6128 26.5423 22.797 25.3209 23.4682C23.3217 24.5667 21.8429 26.352 21.1128 28.4375H38.2725C37.5425 26.3519 36.0636 24.5667 34.0644 23.4682Z" fill="#0CD4DC"/>
<path d="M38.661 29.9609H20.7245C20.6447 30.4451 20.6029 30.9391 20.6029 31.4393C20.6029 34.3819 22.038 37.1558 24.4418 38.8597C24.5705 38.9509 24.7244 39 24.8822 39H34.5032C34.661 39 34.8149 38.951 34.9436 38.8597C37.3474 37.1558 38.7825 34.3819 38.7825 31.4393C38.7826 30.9391 38.7407 30.4451 38.661 29.9609Z" fill="#0CD4DC"/>
<path d="M21.051 67.05L18.991 74H17.701L16.241 68.74L14.691 74L13.411 74.01L11.441 67.05H12.651L14.091 72.71L15.651 67.05H16.931L18.381 72.68L19.831 67.05H21.051ZM21.6112 71.22C21.6112 70.6667 21.7245 70.1767 21.9512 69.75C22.1845 69.3233 22.4979 68.9933 22.8912 68.76C23.2912 68.52 23.7312 68.4 24.2112 68.4C24.6445 68.4 25.0212 68.4867 25.3412 68.66C25.6679 68.8267 25.9279 69.0367 26.1212 69.29V68.49H27.2712V74H26.1212V73.18C25.9279 73.44 25.6645 73.6567 25.3312 73.83C24.9979 74.0033 24.6179 74.09 24.1912 74.09C23.7179 74.09 23.2845 73.97 22.8912 73.73C22.4979 73.4833 22.1845 73.1433 21.9512 72.71C21.7245 72.27 21.6112 71.7733 21.6112 71.22ZM26.1212 71.24C26.1212 70.86 26.0412 70.53 25.8812 70.25C25.7279 69.97 25.5245 69.7567 25.2712 69.61C25.0179 69.4633 24.7445 69.39 24.4512 69.39C24.1579 69.39 23.8845 69.4633 23.6312 69.61C23.3779 69.75 23.1712 69.96 23.0112 70.24C22.8579 70.5133 22.7812 70.84 22.7812 71.22C22.7812 71.6 22.8579 71.9333 23.0112 72.22C23.1712 72.5067 23.3779 72.7267 23.6312 72.88C23.8912 73.0267 24.1645 73.1 24.4512 73.1C24.7445 73.1 25.0179 73.0267 25.2712 72.88C25.5245 72.7333 25.7279 72.52 25.8812 72.24C26.0412 71.9533 26.1212 71.62 26.1212 71.24ZM30.0986 69.42V72.47C30.0986 72.6767 30.1452 72.8267 30.2386 72.92C30.3386 73.0067 30.5052 73.05 30.7386 73.05H31.4386V74H30.5386C30.0252 74 29.6319 73.88 29.3586 73.64C29.0852 73.4 28.9486 73.01 28.9486 72.47V69.42H28.2986V68.49H28.9486V67.12H30.0986V68.49H31.4386V69.42H30.0986ZM37.5393 71.11C37.5393 71.3167 37.5259 71.5033 37.4993 71.67H33.2893C33.3226 72.11 33.4859 72.4633 33.7793 72.73C34.0726 72.9967 34.4326 73.13 34.8593 73.13C35.4726 73.13 35.9059 72.8733 36.1593 72.36H37.3893C37.2226 72.8667 36.9193 73.2833 36.4793 73.61C36.0459 73.93 35.5059 74.09 34.8593 74.09C34.3326 74.09 33.8593 73.9733 33.4393 73.74C33.0259 73.5 32.6993 73.1667 32.4593 72.74C32.2259 72.3067 32.1093 71.8067 32.1093 71.24C32.1093 70.6733 32.2226 70.1767 32.4493 69.75C32.6826 69.3167 33.0059 68.9833 33.4193 68.75C33.8393 68.5167 34.3193 68.4 34.8593 68.4C35.3793 68.4 35.8426 68.5133 36.2493 68.74C36.6559 68.9667 36.9726 69.2867 37.1993 69.7C37.4259 70.1067 37.5393 70.5767 37.5393 71.11ZM36.3493 70.75C36.3426 70.33 36.1926 69.9933 35.8993 69.74C35.6059 69.4867 35.2426 69.36 34.8093 69.36C34.4159 69.36 34.0793 69.4867 33.7993 69.74C33.5193 69.9867 33.3526 70.3233 33.2993 70.75H36.3493ZM39.8011 69.29C39.9678 69.01 40.1878 68.7933 40.4611 68.64C40.7411 68.48 41.0711 68.4 41.4511 68.4V69.58H41.1611C40.7145 69.58 40.3745 69.6933 40.1411 69.92C39.9145 70.1467 39.8011 70.54 39.8011 71.1V74H38.6611V68.49H39.8011V69.29Z" fill="#868889"/>
</svg>
